STARTFONT 2.1
FONT -gnu-unifont-medium-r-normal--16-160-75-75-c-80-iso10646-1
SIZE 16 75 75
FONTBOUNDINGBOX 16 16 0 -2
STARTPROPERTIES 3
FONT_ASCENT 14
FONT_DESCENT 2
DEFAULT_CHAR 32
ENDPROPERTIES
CHARS 2728
STARTCHAR U+4E06
ENCODING 19974
SWIDTH 1000 0
DWIDTH 16 0
BBX 16 16 0 -2
BITMAP 
0000
0004
3FFC
0200
0200
0200
0200
0200
0200
0400
0400
0800
1000
6000
0000
0000
ENDCHAR
STARTCHAR U+4E20
ENCODING 20000
SWIDTH 1000 0
DWIDTH 16 0
BBX 16 16 0 -2
BITMAP 
0000
0240
0240
0240
3E7C
0240
0240
0240
0240
1C44
607C
0000
0004
3FF8
0000
0000
ENDCHAR
STARTCHAR U+4E29
ENCODING 20009
SWIDTH 1000 0
DWIDTH 16 0
BBX 16 16 0 -2
BITMAP 
0000
0020
0420
0820
0820
0820
0820
0820
0820
08E0
0720
0020
0020
0020
0000
0000
ENDCHAR
STARTCHAR U+4E37
ENCODING 20023
SWIDTH 1000 0
DWIDTH 16 0
BBX 16 16 0 -2
BITMAP 
0000
0000
0000
0000
0008
0010
0820
0420
0400
0000
0000
0000
0000
0000
0000
0000
ENDCHAR
STARTCHAR U+4E46
ENCODING 20038
SWIDTH 1000 0
DWIDTH 16 0
BBX 16 16 0 -2
BITMAP 
0000
0460
0440
0440
0840
0840
1080
2080
1F80
0140
0240
0420
0818
300E
0000
0000
ENDCHAR
STARTCHAR U+4E4A
ENCODING 20042
SWIDTH 1000 0
DWIDTH 16 0
BBX 16 16 0 -2
BITMAP 
0000
0000
0008
0070
0780
1808
0010
0810
0420
0400
0000
0000
0000
0000
0000
0000
ENDCHAR
STARTCHAR U+4E5B
ENCODING 20059
SWIDTH 1000 0
DWIDTH 16 0
BBX 16 16 0 -2
BITMAP 
0000
0000
0000
0000
0000
7FFC
0008
0010
0000
0000
0000
0000
0000
0000
0000
0000
ENDCHAR
STARTCHAR U+4E64
ENCODING 20068
SWIDTH 1000 0
DWIDTH 16 0
BBX 16 16 0 -2
BITMAP 
0000
7FFE
0100
0180
0170
0108
0100
0100
3FE0
0040
0180
0600
1800
1FFE
0000
0000
ENDCHAR
STARTCHAR U+4E65
ENCODING 20069
SWIDTH 1000 0
DWIDTH 16 0
BBX 16 16 0 -2
BITMAP 
0000
0038
07D0
1810
0020
0C20
0440
0000
3FE0
0040
0180
0600
1800
1FFE
0000
0000
ENDCHAR
STARTCHAR U+4E67
ENCODING 20071
SWIDTH 1000 0
DWIDTH 16 0
BBX 16 16 0 -2
BITMAP 
0040
0640
1140
0C40
0244
007C
7FC0
0000
3FE0
0060
0180
0600
1800
1FFE
0000
0000
ENDCHAR
STARTCHAR U+4E6A
ENCODING 20074
SWIDTH 1000 0
DWIDTH 16 0
BBX 16 16 0 -2
BITMAP 
0000
0400
3DFC
0948
0948
0948
11F8
1148
1148
2148
2148
21B8
2004
1FFC
0000
0000
ENDCHAR
STARTCHAR U+4E6C
ENCODING 20076
SWIDTH 1000 0
DWIDTH 16 0
BBX 16 16 0 -2
BITMAP 
0000
3FFC
1000
1FF8
1010
1FF0
1000
3FFC
3FE0
0060
0180
0600
1800
1FFE
0000
0000
ENDCHAR
STARTCHAR U+4E6E
ENCODING 20078
SWIDTH 1000 0
DWIDTH 16 0
BBX 16 16 0 -2
BITMAP 
0000
267C
3944
2144
2644
3A4C
0440
1840
3FE0
0040
0180
0600
1800
1FFE
0000
0000
ENDCHAR
STARTCHAR U+4E6F
ENCODING 20079
SWIDTH 1000 0
DWIDTH 16 0
BBX 16 16 0 -2
BITMAP 
0000
01F0
1F18
0920
0144
3FB8
0100
0300
3FE0
0060
0180
0600
1800
1FFE
0000
0000
ENDCHAR
STARTCHAR U+4E72
ENCODING 20082
SWIDTH 1000 0
DWIDTH 16 0
BBX 16 16 0 -2
BITMAP 
0100
1100
02FC
0A48
1440
20A0
1110
060C
3FE0
0060
0180
0600
1804
1FFE
0000
0000
ENDCHAR
STARTCHAR U+4E78
ENCODING 20088
SWIDTH 1000 0
DWIDTH 16 0
BBX 16 16 0 -2
BITMAP 
0000
0804
28FC
28A4
2A94
3688
32FC
3328
3328
3308
33FC
2030
2002
1FFE
0000
0000
ENDCHAR
STARTCHAR U+4E7A
ENCODING 20090
SWIDTH 1000 0
DWIDTH 16 0
BBX 16 16 0 -2
BITMAP 
0000
038C
3CF0
1F80
22FC
2288
3C88
4008
3FE0
0060
0180
0600
1800
1FFE
0000
0000
ENDCHAR
STARTCHAR U+4E7B
ENCODING 20091
SWIDTH 1000 0
DWIDTH 16 0
BBX 16 16 0 -2
BITMAP 
1020
0820
7F50
108C
1F10
2200
2420
0C18
3FE0
0060
0180
0600
1800
1FFE
0000
0000
ENDCHAR
STARTCHAR U+4E7C
ENCODING 20092
SWIDTH 1000 0
DWIDTH 16 0
BBX 16 16 0 -2
BITMAP 
2040
1840
43F8
0040
1BF8
7040
2044
13B8
3FE0
0060
0180
0600
1800
1FFE
0000
0000
ENDCHAR
STARTCHAR U+4E7D
ENCODING 20093
SWIDTH 1000 0
DWIDTH 16 0
BBX 16 16 0 -2
BITMAP 
0200
0228
1FF0
7FFE
0410
7BF0
0FF0
0FF0
0020
1FE0
0180
0600
1800
1FFE
0000
0000
ENDCHAR
STARTCHAR U+4E81
ENCODING 20097
SWIDTH 1000 0
DWIDTH 16 0
BBX 16 16 0 -2
BITMAP 
0000
0820
7F40
0846
36B8
2200
3EF8
3E08
0610
7820
0A40
3C80
0882
087C
0000
0000
ENDCHAR
STARTCHAR U+4E87
ENCODING 20103
SWIDTH 1000 0
DWIDTH 16 0
BBX 16 16 0 -2
BITMAP 
0000
0400
0800
0804
17F8
1080
2080
4080
0080
0080
0080
0080
0080
0180
0000
0000
ENDCHAR
STARTCHAR U+4EA3
ENCODING 20131
SWIDTH 1000 0
DWIDTH 16 0
BBX 16 16 0 -2
BITMAP 
0000
0000
0100
0106
3EF8
0820
0820
0820
0820
0820
0820
1020
1020
2020
0000
0000
ENDCHAR
STARTCHAR U+4EAA
ENCODING 20138
SWIDTH 1000 0
DWIDTH 16 0
BBX 16 16 0 -2
BITMAP 
0200
0100
7FFE
0280
1A90
1488
2484
0800
3000
0FE0
0020
0010
0018
000E
0000
0000
ENDCHAR
STARTCHAR U+4EB1
ENCODING 20145
SWIDTH 1000 0
DWIDTH 16 0
BBX 16 16 0 -2
BITMAP 
0200
0100
7FFE
0000
0A00
13F8
1208
3208
53F8
1208
1208
11F8
1000
17FE
0000
0000
ENDCHAR
STARTCHAR U+4EB4
ENCODING 20148
SWIDTH 1000 0
DWIDTH 16 0
BBX 16 16 0 -2
BITMAP 
0100
7FFE
0FF0
0820
77DE
4004
0114
0FE0
3FF8
0100
0220
0FE0
0420
0822
301C
0000
ENDCHAR
STARTCHAR U+4EB7
ENCODING 20151
SWIDTH 1000 0
DWIDTH 16 0
BBX 16 16 0 -2
BITMAP 
0000
0104
3EF8
0420
3FFC
2240
2FF8
2254
2FF8
2FF8
2240
2660
5A58
6244
0000
0000
ENDCHAR
STARTCHAR U+4EB8
ENCODING 20152
SWIDTH 1000 0
DWIDTH 16 0
BBX 16 16 0 -2
BITMAP 
0000
1004
7E48
2290
5F6C
4724
3BFC
7D24
04FC
1820
1C22
70FC
1020
3000
0000
0000
ENDCHAR
STARTCHAR U+4EBC
ENCODING 20156
SWIDTH 1000 0
DWIDTH 16 0
BBX 16 16 0 -2
BITMAP 
0000
0100
0100
0300
0280
0440
0820
1018
2006
0000
0010
0FE0
0000
0000
0000
0000
ENDCHAR
STARTCHAR U+4EBD
ENCODING 20157
SWIDTH 1000 0
DWIDTH 16 0
BBX 16 16 0 -2
BITMAP 
0000
0100
0100
0300
0280
0440
0830
1008
6204
0100
0080
0040
0000
0000
0000
0000
ENDCHAR
STARTCHAR U+4EBE
ENCODING 20158
SWIDTH 1000 0
DWIDTH 16 0
BBX 16 16 0 -2
BITMAP 
0000
0080
2080
2080
2080
2080
2140
2140
2120
2210
241C
2800
2004
1FF8
0000
0000
ENDCHAR
STARTCHAR U+4ECC
ENCODING 20172
SWIDTH 1000 0
DWIDTH 16 0
BBX 16 16 0 -2
BITMAP 
0000
0100
0100
0300
0280
0440
0930
310C
0100
0300
0280
0440
0830
100E
2000
0000
ENDCHAR
STARTCHAR U+4ED2
ENCODING 20178
SWIDTH 1000 0
DWIDTH 16 0
BBX 16 16 0 -2
BITMAP 
0000
0180
0100
0280
0240
0420
1A18
210E
00C0
0000
0200
0180
0040
0000
0000
0000
ENDCHAR
STARTCHAR U+4EE6
ENCODING 20198
SWIDTH 1000 0
DWIDTH 16 0
BBX 16 16 0 -2
BITMAP 
0000
0840
1040
1040
2040
3240
5248
1244
1444
1842
1842
1040
1040
10C0
0000
0000
ENDCHAR
STARTCHAR U+4EE7
ENCODING 20199
SWIDTH 1000 0
DWIDTH 16 0
BBX 16 16 0 -2
BITMAP 
0000
0100
0100
01F8
0100
0100
0106
3FF8
0100
0100
0280
0240
0420
181E
2000
0000
ENDCHAR
STARTCHAR U+4EF8
ENCODING 20216
SWIDTH 1000 0
DWIDTH 16 0
BBX 16 16 0 -2
BITMAP 
0000
0808
10F0
1340
2040
2040
6084
2378
20C0
20A0
2120
2110
2208
0404
0000
0000
ENDCHAR
STARTCHAR U+4EF9
ENCODING 20217
SWIDTH 1000 0
DWIDTH 16 0
BBX 16 16 0 -2
BITMAP 
0000
0840
1040
11F8
1040
3044
57FC
1040
1040
1044
17F8
1040
1040
1040
0000
0000
ENDCHAR
STARTCHAR U+4EFA
ENCODING 20218
SWIDTH 1000 0
DWIDTH 16 0
BBX 16 16 0 -2
BITMAP 
0100
0100
0280
0440
0830
101C
6FF0
0800
0800
0820
0FC0
0800
0800
0FF8
0000
0000
ENDCHAR
STARTCHAR U+4EFC
ENCODING 20220
SWIDTH 1000 0
DWIDTH 16 0
BBX 16 16 0 -2
BITMAP 
0000
0800
0FFC
1040
1040
3040
5048
13FC
1040
1040
1040
1040
1044
17B8
0000
0000
ENDCHAR
STARTCHAR U+4F06
ENCODING 20230
SWIDTH 1000 0
DWIDTH 16 0
BBX 16 16 0 -2
BITMAP 
0000
0980
0900
1204
13FC
3494
50A4
5124
1244
1444
1088
1108
1208
1030
0000
0000
ENDCHAR
STARTCHAR U+4F07
ENCODING 20231
SWIDTH 1000 0
DWIDTH 16 0
BBX 16 16 0 -2
BITMAP 
0000
09F0
1110
1110
2110
3210
500C
1008
13F8
1110
10A0
1040
10A0
131E
0400
0000
ENDCHAR
STARTCHAR U+4F21
ENCODING 20257
SWIDTH 1000 0
DWIDTH 16 0
BBX 16 16 0 -2
BITMAP 
0800
0900
0904
13F8
2240
3240
5448
17F8
1040
1044
17F8
1040
1040
1040
0000
0000
ENDCHAR
STARTCHAR U+4F23
ENCODING 20259
SWIDTH 1000 0
DWIDTH 16 0
BBX 16 16 0 -2
BITMAP 
0800
0A08
0BF8
1208
2248
3248
5248
1248
1268
12A8
10A0
1120
1224
1026
0418
0000
ENDCHAR
STARTCHAR U+4F28
ENCODING 20264
SWIDTH 1000 0
DWIDTH 16 0
BBX 16 16 0 -2
BITMAP 
0800
0980
0900
1204
13FC
3404
5824
11C4
1004
1024
13C4
1008
1008
1038
0000
0000
ENDCHAR
STARTCHAR U+4F29
ENCODING 20265
SWIDTH 1000 0
DWIDTH 16 0
BBX 16 16 0 -2
BITMAP 
0800
0840
0800
17FE
1210
3210
5110
1110
10A0
10A0
1040
10A0
1110
120E
0400
0000
ENDCHAR
STARTCHAR U+4F44
ENCODING 20292
SWIDTH 1000 0
DWIDTH 16 0
BBX 16 16 0 -2
BITMAP 
0800
0A08
0A08
1208
1FFE
3208
5208
1208
13F8
1208
1208
1208
1208
13F8
0000
0000
ENDCHAR
STARTCHAR U+4F45
ENCODING 20293
SWIDTH 1000 0
DWIDTH 16 0
BBX 16 16 0 -2
BITMAP 
0000
0840
0840
1048
13F0
3040
5044
17FE
10C0
1160
1150
1248
144C
1040
0000
0000
ENDCHAR
STARTCHAR U+4F4A
ENCODING 20298
SWIDTH 1000 0
DWIDTH 16 0
BBX 16 16 0 -2
BITMAP 
0800
0840
0840
13FC
2248
3240
5240
13F8
1308
1510
14A0
1460
18B0
190E
0200
0000
ENDCHAR
STARTCHAR U+4F66
ENCODING 20326
SWIDTH 1000 0
DWIDTH 16 0
BBX 16 16 0 -2
BITMAP 
0800
0804
0BF8
1040
1080
3080
5100
11FC
1704
1104
1104
1104
1104
11F8
0000
0000
ENDCHAR
STARTCHAR U+4F68
ENCODING 20328
SWIDTH 1000 0
DWIDTH 16 0
BBX 16 16 0 -2
BITMAP 
0000
0500
0900
0AFC
1404
33F4
1224
1224
1224
13C4
1218
1200
1204
11FE
0000
0000
ENDCHAR
STARTCHAR U+4F6D
ENCODING 20333
SWIDTH 1000 0
DWIDTH 16 0
BBX 16 16 0 -2
BITMAP 
0800
0900
0AF8
1510
10E0
3070
53CC
1448
13F0
1240
1440
17FE
1040
1040
0000
0000
ENDCHAR
STARTCHAR U+4F72
ENCODING 20338
SWIDTH 1000 0
DWIDTH 16 0
BBX 16 16 0 -2
BITMAP 
0000
1880
1084
217C
2208
2510
E0A0
20C0
2104
27FC
2104
2104
2104
21FC
0000
0000
ENDCHAR
STARTCHAR U+4FA2
ENCODING 20386
SWIDTH 1000 0
DWIDTH 16 0
BBX 16 16 0 -2
BITMAP 
0000
0804
13F8
1040
13FC
3448
5448
1FFE
1448
1448
17BC
1408
1408
1018
0000
0000
ENDCHAR
STARTCHAR U+4FA4
ENCODING 20388
SWIDTH 1000 0
DWIDTH 16 0
BBX 16 16 0 -2
BITMAP 
0880
0884
0FFC
1088
1094
37FC
5080
13FC
1D00
1100
11FC
1004
1008
1018
0000
0000
ENDCHAR
STARTCHAR U+4FB0
ENCODING 20400
SWIDTH 1000 0
DWIDTH 16 0
BBX 16 16 0 -2
BITMAP 
0800
0808
09F8
1088
17FE
3088
5108
13F0
1200
13FC
1608
1208
1208
11FC
0000
0000
ENDCHAR
STARTCHAR U+4FB1
ENCODING 20401
SWIDTH 1000 0
DWIDTH 16 0
BBX 16 16 0 -2
BITMAP 
0800
0BF8
0A08
1208
1208
33FC
5008
1070
13C0
1040
17FC
1040
1040
17FE
0000
0000
ENDCHAR
STARTCHAR U+4FB4
ENCODING 20404
SWIDTH 1000 0
DWIDTH 16 0
BBX 16 16 0 -2
BITMAP 
0100
0100
0280
0C60
303E
07C0
3F00
1248
1248
12C8
3F48
1248
2208
7F98
0000
0000
ENDCHAR
STARTCHAR U+4FB8
ENCODING 20408
SWIDTH 1000 0
DWIDTH 16 0
BBX 16 16 0 -2
BITMAP 
0800
0804
0FFE
1000
13F8
3208
5208
1208
13F8
1008
1010
1110
1024
17FE
0000
0000
ENDCHAR
STARTCHAR U+4FD5
ENCODING 20437
SWIDTH 1000 0
DWIDTH 16 0
BBX 16 16 0 -2
BITMAP 
0000
0840
0840
17BE
1440
3040
5044
13F8
10E0
1160
1250
1248
1444
1040
0000
0000
ENDCHAR
STARTCHAR U+4FE7
ENCODING 20455
SWIDTH 1000 0
DWIDTH 16 0
BBX 16 16 0 -2
BITMAP 
0000
0840
0844
17FE
1040
3040
504C
13B0
1140
1120
1524
1502
1908
11F8
0000
0000
ENDCHAR
STARTCHAR U+4FEB
ENCODING 20459
SWIDTH 1000 0
DWIDTH 16 0
BBX 16 16 0 -2
BITMAP 
0800
0840
084C
13F0
1248
3150
5140
17FE
10C0
10E0
1150
1248
144C
1040
0000
0000
ENDCHAR
STARTCHAR U+4FF9
ENCODING 20473
SWIDTH 1000 0
DWIDTH 16 0
BBX 16 16 0 -2
BITMAP 
0800
0804
0BF8
1120
1120
373C
1404
1404
1404
17A4
1138
1120
1120
1FFE
0000
0000
ENDCHAR
STARTCHAR U+4FFB
ENCODING 20475
SWIDTH 1000 0
DWIDTH 16 0
BBX 16 16 0 -2
BITMAP 
0100
0900
09F8
1308
1490
3060
5098
1704
13FC
1448
1448
17F8
1448
13F8
0000
0000
ENDCHAR
STARTCHAR U+5003
ENCODING 20483
SWIDTH 1000 0
DWIDTH 16 0
BBX 16 16 0 -2
BITMAP 
0000
0A08
13C8
1450
1C98
32A4
5140
12C0
143C
13F8
1208
1208
1208
13F8
0000
0000
ENDCHAR
STARTCHAR U+5008
ENCODING 20488
SWIDTH 1000 0
DWIDTH 16 0
BBX 16 16 0 -2
BITMAP 
0000
0840
1044
13F8
1248
3250
555C
1444
1040
10E0
1150
1248
1446
1040
0000
0000
ENDCHAR
STARTCHAR U+5034
ENCODING 20532
SWIDTH 1000 0
DWIDTH 16 0
BBX 16 16 0 -2
BITMAP 
0880
0880
0FFE
1120
1250
344E
53F8
1040
1150
1210
17FC
1210
1410
1410
0000
0000
ENDCHAR
STARTCHAR U+5038
ENCODING 20536
SWIDTH 1000 0
DWIDTH 16 0
BBX 16 16 0 -2
BITMAP 
0000
0838
17C0
1404
1248
3040
5040
1044
17FC
10E0
1150
1248
1444
1040
0000
0000
ENDCHAR
STARTCHAR U+503D
ENCODING 20541
SWIDTH 1000 0
DWIDTH 16 0
BBX 16 16 0 -2
BITMAP 
0800
08C0
08A0
1110
120E
37F8
5040
1044
13F8
1048
13B8
1208
1208
13F8
0000
0000
ENDCHAR
STARTCHAR U+503F
ENCODING 20543
SWIDTH 1000 0
DWIDTH 16 0
BBX 16 16 0 -2
BITMAP 
0000
0840
0FFC
1218
1110
3124
53D8
1110
1FFE
1210
1220
11A0
1070
118C
0600
0000
ENDCHAR
STARTCHAR U+5044
ENCODING 20548
SWIDTH 1000 0
DWIDTH 16 0
BBX 16 16 0 -2
BITMAP 
0000
17FE
1040
13FE
14A4
34A4
54A4
14AC
1040
1044
13F8
1090
1108
1204
0400
0000
ENDCHAR
STARTCHAR U+5054
ENCODING 20564
SWIDTH 1000 0
DWIDTH 16 0
BBX 16 16 0 -2
BITMAP 
0000
17BC
14A8
14A8
13BC
3000
51F8
1000
17FC
1100
11F8
1008
1008
1030
0000
0000
ENDCHAR
STARTCHAR U+5058
ENCODING 20568
SWIDTH 1000 0
DWIDTH 16 0
BBX 16 16 0 -2
BITMAP 
0000
0BF8
1208
1208
1208
31F8
5000
5000
17BC
14A4
14A4
14A4
14A4
17BC
0000
0000
ENDCHAR
STARTCHAR U+5079
ENCODING 20601
SWIDTH 1000 0
DWIDTH 16 0
BBX 16 16 0 -2
BITMAP 
0000
0880
10FC
1588
1650
3430
54CE
5500
15FC
1544
15FC
1544
1144
11BC
0000
0000
ENDCHAR
STARTCHAR U+507C
ENCODING 20604
SWIDTH 1000 0
DWIDTH 16 0
BBX 16 16 0 -2
BITMAP 
0000
1080
107C
1080
13F8
3008
5FFE
1008
13F0
1240
127C
1240
1540
10FC
0000
0000
ENDCHAR
STARTCHAR U+5089
ENCODING 20617
SWIDTH 1000 0
DWIDTH 16 0
BBX 16 16 0 -2
BITMAP 
0004
13FE
1208
13F0
1204
33FC
5518
154E
1480
1408
15FC
1448
1808
1010
0000
0000
ENDCHAR
STARTCHAR U+5097
ENCODING 20631
SWIDTH 1000 0
DWIDTH 16 0
BBX 16 16 0 -2
BITMAP 
0080
1060
17FE
1100
1620
37C0
5184
13FC
1000
17F8
1448
17F8
1448
13B0
0000
0000
ENDCHAR
STARTCHAR U+50A4
ENCODING 20644
SWIDTH 1000 0
DWIDTH 16 0
BBX 16 16 0 -2
BITMAP 
0100
1114
17F4
1114
16F8
3210
5FF4
1414
1514
17F8
1108
11D8
1724
1106
0000
0000
ENDCHAR
STARTCHAR U+50A6
ENCODING 20646
SWIDTH 1000 0
DWIDTH 16 0
BBX 16 16 0 -2
BITMAP 
0000
09F8
1108
1178
1548
36B6
5A08
13F8
13E8
1208
1238
13C8
1208
1018
0000
0000
ENDCHAR
STARTCHAR U+50AB
ENCODING 20651
SWIDTH 1000 0
DWIDTH 16 0
BBX 16 16 0 -2
BITMAP 
0000
13FC
1244
13FC
1244
33BC
5110
17E0
10C0
13FC
1040
1148
1244
14C0
0000
0000
ENDCHAR
STARTCHAR U+50BC
ENCODING 20668
SWIDTH 1000 0
DWIDTH 16 0
BBX 16 16 0 -2
BITMAP 
0100
1114
13F8
11F0
1140
33F8
5248
13F8
1040
13F8
1084
13F8
1090
110E
0600
0000
ENDCHAR
STARTCHAR U+50D2
ENCODING 20690
SWIDTH 1000 0
DWIDTH 16 0
BBX 16 16 0 -2
BITMAP 
0000
0840
17FE
14A0
111C
3208
51F8
17FE
1108
11F0
1100
13FC
1504
11FC
0000
0000
ENDCHAR
STARTCHAR U+50D9
ENCODING 20697
SWIDTH 1000 0
DWIDTH 16 0
BBX 16 16 0 -2
BITMAP 
0100
1114
13FC
1110
10F0
3FFE
5000
13FC
1248
13F8
1248
13B0
1180
120C
0000
0000
ENDCHAR
STARTCHAR U+50E1
ENCODING 20705
SWIDTH 1000 0
DWIDTH 16 0
BBX 16 16 0 -2
BITMAP 
0000
1040
13FC
1244
13FC
33FC
5244
13F8
1044
17B8
1020
1100
1500
14F8
0000
0000
ENDCHAR
STARTCHAR U+50EB
ENCODING 20715
SWIDTH 1000 0
DWIDTH 16 0
BBX 16 16 0 -2
BITMAP 
0004
17FC
10A0
13BC
1208
3208
51F0
10E0
17FE
1000
1124
1102
150A
11F8
0000
0000
ENDCHAR
STARTCHAR U+50F4
ENCODING 20724
SWIDTH 1000 0
DWIDTH 16 0
BBX 16 16 0 -2
BITMAP 
0000
0FBC
14A4
17BC
14A4
37BC
5404
54F4
1514
14F4
1514
14F4
1404
140C
0000
0000
ENDCHAR
STARTCHAR U+50F7
ENCODING 20727
SWIDTH 1000 0
DWIDTH 16 0
BBX 16 16 0 -2
BITMAP 
0100
1110
139C
1000
1150
33BC
5190
1160
11FE
1022
11FC
1130
112C
1622
0000
0000
ENDCHAR
STARTCHAR U+50FC
ENCODING 20732
SWIDTH 1000 0
DWIDTH 16 0
BBX 16 16 0 -2
BITMAP 
00A0
10A0
17FC
14A4
17FC
34A4
5358
13FC
13F8
1208
1208
11F0
1110
17FE
0000
0000
ENDCHAR
STARTCHAR U+510F
ENCODING 20751
SWIDTH 1000 0
DWIDTH 16 0
BBX 16 16 0 -2
BITMAP 
0100
117C
13A4
13E8
1498
3A98
5164
1648
1140
17FE
1040
1140
124C
1440
0000
0000
ENDCHAR
STARTCHAR U+512B
ENCODING 20779
SWIDTH 1000 0
DWIDTH 16 0
BBX 16 16 0 -2
BITMAP 
0080
1064
13D8
11F8
1110
31F8
57FC
1804
19F0
11CC
16B0
1370
14AC
1740
0000
0000
ENDCHAR
STARTCHAR U+5136
ENCODING 20790
SWIDTH 1000 0
DWIDTH 16 0
BBX 16 16 0 -2
BITMAP 
0040
0844
17FC
1240
23FC
37FC
5240
13F8
13BC
17FC
1524
16FC
1494
14E4
0000
0000
ENDCHAR
STARTCHAR U+513E
ENCODING 20798
SWIDTH 1000 0
DWIDTH 16 0
BBX 16 16 0 -2
BITMAP 
0040
13FC
13F8
1248
11F0
3FBC
5220
1000
17FC
13FC
10E4
139C
1618
124C
0180
0000
ENDCHAR
STARTCHAR U+5160
ENCODING 20832
SWIDTH 1000 0
DWIDTH 16 0
BBX 16 16 0 -2
BITMAP 
0000
0890
0B50
0CD0
1C5C
0FD0
0C50
0C50
33CC
0240
0440
0440
0844
107E
2000
0000
ENDCHAR
STARTCHAR U+516F
ENCODING 20847
SWIDTH 1000 0
DWIDTH 16 0
BBX 16 16 0 -2
BITMAP 
0000
0830
0420
0040
0088
1F78
0208
0208
0208
0208
0208
0210
0200
0200
0000
0000
ENDCHAR
STARTCHAR U+5172
ENCODING 20850
SWIDTH 1000 0
DWIDTH 16 0
BBX 16 16 0 -2
BITMAP 
0000
3FFC
0100
0100
1FF0
0100
0104
3EF8
00E0
0C20
0820
1010
1018
200C
0000
0000
ENDCHAR
STARTCHAR U+517A
ENCODING 20858
SWIDTH 1000 0
DWIDTH 16 0
BBX 16 16 0 -2
BITMAP 
0000
0440
0830
300C
0FF0
0220
0C20
3060
0288
3E9C
26A0
26C0
1E80
00FE
0000
0000
ENDCHAR
STARTCHAR U+517F
ENCODING 20863
SWIDTH 1000 0
DWIDTH 16 0
BBX 16 16 0 -2
BITMAP 
0000
0420
7FFE
0840
7FF8
1248
7CC8
10A8
1304
1FF0
0004
3FF8
0810
3FE8
0000
0000
ENDCHAR
STARTCHAR U+519A
ENCODING 20890
SWIDTH 1000 0
DWIDTH 16 0
BBX 16 16 0 -2
BITMAP 
0000
2004
3FFC
4000
4100
0100
0100
2104
2108
2108
2108
2108
2108
3EF0
0000
0000
ENDCHAR
STARTCHAR U+519F
ENCODING 20895
SWIDTH 1000 0
DWIDTH 16 0
BBX 16 16 0 -2
BITMAP 
0000
2004
5FFC
4200
1FF8
1010
1FF0
1010
1FF0
0000
1018
1FE0
1004
1FFC
0000
0000
ENDCHAR
STARTCHAR U+51A7
ENCODING 20903
SWIDTH 1000 0
DWIDTH 16 0
BBX 16 16 0 -2
BITMAP 
0000
0004
3FFE
2820
0820
0820
7EFC
1860
2C70
2AB0
4928
4924
0820
0820
0000
0000
ENDCHAR
STARTCHAR U+51AE
ENCODING 20910
SWIDTH 1000 0
DWIDTH 16 0
BBX 16 16 0 -2
BITMAP 
0000
0000
1008
13F0
0040
0040
0840
1040
1040
2040
6040
2040
2044
27B8
0000
0000
ENDCHAR
STARTCHAR U+51C1
ENCODING 20929
SWIDTH 1000 0
DWIDTH 16 0
BBX 16 16 0 -2
BITMAP 
0000
4040
2044
17F8
0040
07FC
0448
0448
17FC
2140
2160
2250
444C
1840
0000
0000
ENDCHAR
STARTCHAR U+51C3
ENCODING 20931
SWIDTH 1000 0
DWIDTH 16 0
BBX 16 16 0 -2
BITMAP 
0000
4040
20A0
1110
0208
0414
01E0
0040
17FC
2040
2248
2444
4846
00C0
0000
0000
ENDCHAR
STARTCHAR U+51D9
ENCODING 20953
SWIDTH 1000 0
DWIDTH 16 0
BBX 16 16 0 -2
BITMAP 
0000
07FC
2528
0528
02D0
03F8
0040
1FBE
2110
27FC
2040
4FFE
4040
0040
0000
0000
ENDCHAR
STARTCHAR U+51DA
ENCODING 20954
SWIDTH 1000 0
DWIDTH 16 0
BBX 16 16 0 -2
BITMAP 
0000
0010
2210
27FC
07B8
0A54
0010
0008
13F0
2006
27F8
4340
444C
0844
0000
0000
ENDCHAR
STARTCHAR U+51DF
ENCODING 20959
SWIDTH 1000 0
DWIDTH 16 0
BBX 16 16 0 -2
BITMAP 
0000
0044
23F8
27FC
0404
07FC
07FC
0008
13F8
23F8
23F8
2208
43F8
0318
0400
0000
ENDCHAR
STARTCHAR U+51E3
ENCODING 20963
SWIDTH 1000 0
DWIDTH 16 0
BBX 16 16 0 -2
BITMAP 
0000
0100
0100
0100
06E0
0420
0420
0820
0820
0820
0820
0820
1024
203E
0000
0000
ENDCHAR
STARTCHAR U+51E8
ENCODING 20968
SWIDTH 1000 0
DWIDTH 16 0
BBX 16 16 0 -2
BITMAP 
0000
1FF8
1008
1008
17E8
1008
1008
1FE8
2108
2208
2208
2428
4BD6
4402
0000
0000
ENDCHAR
STARTCHAR U+51EC
ENCODING 20972
SWIDTH 1000 0
DWIDTH 16 0
BBX 16 16 0 -2
BITMAP 
0000
1FF8
1008
1028
17C8
1008
17E8
2428
2428
27E8
2428
2426
47E6
4002
0000
0000
ENDCHAR
STARTCHAR U+520F
ENCODING 21007
SWIDTH 1000 0
DWIDTH 16 0
BBX 16 16 0 -2
BITMAP 
0000
1004
2024
3F24
2024
5F24
0024
3F24
0224
0424
0824
1024
2084
1F8C
0000
0000
ENDCHAR
STARTCHAR U+521F
ENCODING 21023
SWIDTH 1000 0
DWIDTH 16 0
BBX 16 16 0 -2
BITMAP 
0000
0004
3F04
0924
1124
1124
2124
0224
3F24
2124
2124
2124
2104
3E0C
0000
0000
ENDCHAR
STARTCHAR U+5223
ENCODING 21027
SWIDTH 1000 0
DWIDTH 16 0
BBX 16 16 0 -2
BITMAP 
0000
0C00
0808
1248
2148
4148
7E48
0048
3F48
2148
2148
2108
3F08
2008
0000
0000
ENDCHAR
STARTCHAR U+5226
ENCODING 21030
SWIDTH 1000 0
DWIDTH 16 0
BBX 16 16 0 -2
BITMAP 
0000
0800
0828
0928
3E28
0828
0828
7FA8
0828
1028
1028
2128
2388
3C98
0000
0000
ENDCHAR
STARTCHAR U+522C
ENCODING 21036
SWIDTH 1000 0
DWIDTH 16 0
BBX 16 16 0 -2
BITMAP 
0000
1004
1124
1024
1624
7824
1124
0E24
79A4
0924
0A24
0424
0B04
310C
0000
0000
ENDCHAR
STARTCHAR U+522F
ENCODING 21039
SWIDTH 1000 0
DWIDTH 16 0
BBX 16 16 0 -2
BITMAP 
0000
0104
7FA4
0024
3F24
2224
2224
3E24
2224
2224
3C24
00A4
0F04
7008
0000
0000
ENDCHAR
STARTCHAR U+5234
ENCODING 21044
SWIDTH 1000 0
DWIDTH 16 0
BBX 16 16 0 -2
BITMAP 
0000
7F04
1224
12A4
21A4
20A4
0324
0024
09A4
3E24
1824
2924
4884
000C
0000
0000
ENDCHAR
STARTCHAR U+523E
ENCODING 21054
SWIDTH 1000 0
DWIDTH 16 0
BBX 16 16 0 -2
BITMAP 
0000
0404
04A4
1F24
0424
24A4
1524
1424
7FE4
0C24
0A24
1124
1104
200C
0000
0000
ENDCHAR
STARTCHAR U+5248
ENCODING 21064
SWIDTH 1000 0
DWIDTH 16 0
BBX 16 16 0 -2
BITMAP 
0000
3F04
2124
2124
3F24
0024
3F24
3124
2D24
2124
2F24
5124
4104
4308
0000
0000
ENDCHAR
STARTCHAR U+5253
ENCODING 21075
SWIDTH 1000 0
DWIDTH 16 0
BBX 16 16 0 -2
BITMAP 
0000
0C40
187C
0AA4
3C24
1E44
2A44
4898
0800
1FFC
0208
0208
0408
0830
1000
0000
ENDCHAR
STARTCHAR U+5259
ENCODING 21081
SWIDTH 1000 0
DWIDTH 16 0
BBX 16 16 0 -2
BITMAP 
0000
2400
24FC
0248
3C48
2448
24CC
7F4C
244A
2448
2488
2488
4508
4430
0000
0000
ENDCHAR
STARTCHAR U+5268
ENCODING 21096
SWIDTH 1000 0
DWIDTH 16 0
BBX 16 16 0 -2
BITMAP 
0000
0584
0E24
3424
3FA4
0424
7FA4
0424
7FE4
1024
1FA4
3124
1104
1F88
0000
0000
ENDCHAR
STARTCHAR U+5276
ENCODING 21110
SWIDTH 1000 0
DWIDTH 16 0
BBX 16 16 0 -2
BITMAP 
0000
1004
1F24
2224
3E24
04A4
3B24
1924
6E24
1624
2DA4
1484
2404
0C08
0000
0000
ENDCHAR
STARTCHAR U+527E
ENCODING 21118
SWIDTH 1000 0
DWIDTH 16 0
BBX 16 16 0 -2
BITMAP 
0000
0184
7E24
4F24
4924
4924
4E24
5C64
57A4
56A4
5EE4
5104
4084
3F0C
0000
0000
ENDCHAR
STARTCHAR U+5286
ENCODING 21126
SWIDTH 1000 0
DWIDTH 16 0
BBX 16 16 0 -2
BITMAP 
0404
0204
1FF4
2094
1FD4
2514
2E94
26B4
3FD4
2FD4
2514
2D94
5564
050C
0000
0000
ENDCHAR
STARTCHAR U+528E
ENCODING 21134
SWIDTH 1000 0
DWIDTH 16 0
BBX 16 16 0 -2
BITMAP 
0000
0800
0E7E
11A4
3FA4
0024
3BA4
2AA4
2AA4
1124
1144
2A44
2584
4098
0000
0000
ENDCHAR
STARTCHAR U+528F
ENCODING 21135
SWIDTH 1000 0
DWIDTH 16 0
BBX 16 16 0 -2
BITMAP 
0004
0484
1504
3FE4
4124
1F24
1124
1F24
00A4
3FA4
24A4
3F84
2484
3B8C
0000
0000
ENDCHAR
STARTCHAR U+52CA
ENCODING 21194
SWIDTH 1000 0
DWIDTH 16 0
BBX 16 16 0 -2
BITMAP 
0000
0020
09A0
3E24
087C
3724
2124
2124
3F44
1444
1484
1418
2404
03FE
0000
0000
ENDCHAR
STARTCHAR U+52CE
ENCODING 21198
SWIDTH 1000 0
DWIDTH 16 0
BBX 16 16 0 -2
BITMAP 
0000
0820
0A20
1C20
08FC
7F24
1424
2424
4A24
0A44
1C44
0884
7E84
4118
0000
0000
ENDCHAR
STARTCHAR U+52DA
ENCODING 21210
SWIDTH 1000 0
DWIDTH 16 0
BBX 16 16 0 -2
BITMAP 
0000
2A20
7FA0
2A20
2C7E
3F24
0024
3F24
2524
2524
2924
2944
0A44
1108
2000
0000
ENDCHAR
STARTCHAR U+52ED
ENCODING 21229
SWIDTH 1000 0
DWIDTH 16 0
BBX 16 16 0 -2
BITMAP 
1000
0820
3F20
1220
157E
2A24
3F24
2924
3F24
3F24
0844
3F44
0884
7E18
0000
0000
ENDCHAR
STARTCHAR U+52EE
ENCODING 21230
SWIDTH 1000 0
DWIDTH 16 0
BBX 16 16 0 -2
BITMAP 
0800
0810
0F20
3FA0
2A7E
2C24
2624
3FA4
4924
4624
4A24
5744
4A44
1488
0000
0000
ENDCHAR
STARTCHAR U+52FD
ENCODING 21245
SWIDTH 1000 0
DWIDTH 16 0
BBX 16 16 0 -2
BITMAP 
0000
0400
0800
0FFC
1104
2204
4204
0204
0504
0484
0848
1028
0008
0038
0000
0000
ENDCHAR
STARTCHAR U+5304
ENCODING 21252
SWIDTH 1000 0
DWIDTH 16 0
BBX 16 16 0 -2
BITMAP 
0800
0800
0804
17FC
1204
2124
5FF4
0804
0804
0804
0808
07E8
0008
0030
0000
0000
ENDCHAR
STARTCHAR U+5307
ENCODING 21255
SWIDTH 1000 0
DWIDTH 16 0
BBX 16 16 0 -2
BITMAP 
0000
0400
0800
0FFC
1204
2204
23E4
4424
0A44
0144
0084
0108
0208
0C38
0000
0000
ENDCHAR
STARTCHAR U+5314
ENCODING 21268
SWIDTH 1000 0
DWIDTH 16 0
BBX 16 16 0 -2
BITMAP 
0000
0800
0FFC
1404
1AF4
6518
1F18
22F8
1F48
25F8
3D18
0D18
15F8
0730
0000
0000
ENDCHAR
STARTCHAR U+5324
ENCODING 21284
SWIDTH 1000 0
DWIDTH 16 0
BBX 16 16 0 -2
BITMAP 
0000
3FFC
2000
2018
27E0
2080
2090
27F0
2080
2090
2080
2778
2000
3FFE
0000
0000
ENDCHAR
STARTCHAR U+5336
ENCODING 21302
SWIDTH 1000 0
DWIDTH 16 0
BBX 16 16 0 -2
BITMAP 
0000
3FFC
2140
2E78
2480
2BF0
2FE0
2FF0
27F8
2278
2D08
2E38
27F8
3FFE
0000
0000
ENDCHAR
STARTCHAR U+5350
ENCODING 21328
SWIDTH 1000 0
DWIDTH 16 0
BBX 16 16 0 -2
BITMAP 
0000
0104
21F8
2100
2100
2100
2100
3FFC
0104
0104
0104
0104
0104
7F04
0000
0000
ENDCHAR
STARTCHAR U+535D
ENCODING 21341
SWIDTH 1000 0
DWIDTH 16 0
BBX 16 16 0 -2
BITMAP 
0000
0440
0440
0440
0440
0440
7C7E
0440
0440
0440
0440
0440
0440
0440
0000
0000
ENDCHAR
STARTCHAR U+536A
ENCODING 21354
SWIDTH 1000 0
DWIDTH 16 0
BBX 16 16 0 -2
BITMAP 
0000
0FF0
0810
0810
0810
0910
0890
0810
0810
0810
0870
0800
0800
0800
0000
0000
ENDCHAR
STARTCHAR U+5376
ENCODING 21366
SWIDTH 1000 0
DWIDTH 16 0
BBX 16 16 0 -2
BITMAP 
0000
0800
1F7C
2248
5448
0848
1448
6448
0BC8
1148
6A48
0448
0840
3040
0000
0000
ENDCHAR
STARTCHAR U+5380
ENCODING 21376
SWIDTH 1000 0
DWIDTH 16 0
BBX 16 16 0 -2
BITMAP 
0000
0424
7FBC
0E24
15A4
6424
0A24
15A4
2424
15A4
0E24
0424
35A0
0C20
0000
0000
ENDCHAR
STARTCHAR U+5381
ENCODING 21377
SWIDTH 1000 0
DWIDTH 16 0
BBX 16 16 0 -2
BITMAP 
0800
0C00
1330
3E10
0950
1E14
3AF8
4910
0800
0008
1FF8
0408
0438
0000
0000
0000
ENDCHAR
STARTCHAR U+5390
ENCODING 21392
SWIDTH 1000 0
DWIDTH 16 0
BBX 16 16 0 -2
BITMAP 
0000
200C
3FF0
2120
2100
210C
27F0
2140
2250
2250
4260
4440
48C4
117C
0000
0000
ENDCHAR
STARTCHAR U+5391
ENCODING 21393
SWIDTH 1000 0
DWIDTH 16 0
BBX 16 16 0 -2
BITMAP 
0000
200C
3FF0
2040
2F40
2948
2950
2960
2940
2940
4940
4F40
4844
003C
0000
0000
ENDCHAR
STARTCHAR U+539B
ENCODING 21403
SWIDTH 1000 0
DWIDTH 16 0
BBX 16 16 0 -2
BITMAP 
0000
3FFE
2000
200C
2F70
2940
2940
297C
2948
2948
2E88
4088
4088
0108
0000
0000
ENDCHAR
STARTCHAR U+53B1
ENCODING 21425
SWIDTH 1000 0
DWIDTH 16 0
BBX 16 16 0 -2
BITMAP 
0000
0004
3FF8
2080
2140
2230
2DCE
3808
2F78
2948
2E70
4430
4628
4944
0000
0000
ENDCHAR
STARTCHAR U+53BC
ENCODING 21436
SWIDTH 1000 0
DWIDTH 16 0
BBX 16 16 0 -2
BITMAP 
0000
0100
0200
0410
0808
1FFC
0100
0100
0100
0910
1108
2104
0104
0300
0000
0000
ENDCHAR
STARTCHAR U+53BE
ENCODING 21438
SWIDTH 1000 0
DWIDTH 16 0
BBX 16 16 0 -2
BITMAP 
0000
0010
3FF0
0010
0410
3FD0
0410
0408
042A
3FC6
0802
1040
21A0
3E10
0000
0000
ENDCHAR
STARTCHAR U+53C4
ENCODING 21444
SWIDTH 1000 0
DWIDTH 16 0
BBX 16 16 0 -2
BITMAP 
0000
0100
0610
1FE8
1000
1520
275C
3AE0
0C30
37EC
0000
0FF0
0000
3FFC
0000
0000
ENDCHAR
STARTCHAR U+53C6
ENCODING 21446
SWIDTH 1000 0
DWIDTH 16 0
BBX 16 16 0 -2
BITMAP 
0000
0038
08C4
3028
0010
0BEE
3240
23FE
2080
44FC
4988
7150
0220
00DC
0100
0000
ENDCHAR
STARTCHAR U+53C7
ENCODING 21447
SWIDTH 1000 0
DWIDTH 16 0
BBX 16 16 0 -2
BITMAP 
0000
0410
0A7C
3014
007E
0814
307C
2794
2250
4A38
4ED4
7610
0310
04FC
0000
0000
ENDCHAR
STARTCHAR U+53D0
ENCODING 21456
SWIDTH 1000 0
DWIDTH 16 0
BBX 16 16 0 -2
BITMAP 
0000
0038
1FC0
0400
0404
7FFE
0400
0408
0BF8
0A10
1120
10C0
21B0
061E
1800
0000
ENDCHAR
STARTCHAR U+53DC
ENCODING 21468
SWIDTH 1000 0
DWIDTH 16 0
BBX 16 16 0 -2
BITMAP 
0200
0100
3FFE
4104
4110
09A0
0240
0430
380C
1FF8
0830
0640
0180
0E7E
3000
0000
ENDCHAR
STARTCHAR U+53F4
ENCODING 21492
SWIDTH 1000 0
DWIDTH 16 0
BBX 16 16 0 -2
BITMAP 
0000
0200
0200
3FF0
0420
0420
0824
101E
2000
1FF0
1010
1010
1010
0FF0
0000
0000
ENDCHAR
STARTCHAR U+53FE
ENCODING 21502
SWIDTH 1000 0
DWIDTH 16 0
BBX 16 16 0 -2
BITMAP 
0000
1FF8
0030
00C0
0080
0080
0080
0080
0100
1FF8
2008
2008
2008
1FF8
0000
0000
ENDCHAR
STARTCHAR U+53FF
ENCODING 21503
SWIDTH 1000 0
DWIDTH 16 0
BBX 16 16 0 -2
BITMAP 
0000
0000
01F8
3C40
2840
2840
2840
2840
2840
2840
3040
0040
0044
07FE
0000
0000
ENDCHAR
STARTCHAR U+5400
ENCODING 21504
SWIDTH 1000 0
DWIDTH 16 0
BBX 16 16 0 -2
BITMAP 
0000
001C
03E0
7C40
4840
4840
4844
4BF8
4840
4840
7040
0040
0040
0040
0000
0000
ENDCHAR
STARTCHAR U+5405
ENCODING 21509
SWIDTH 1000 0
DWIDTH 16 0
BBX 16 16 0 -2
BITMAP 
0000
4204
7EFC
4284
4284
4284
4284
4284
4284
4284
4284
4284
4284
3CF8
0000
0000
ENDCHAR
STARTCHAR U+5414
ENCODING 21524
SWIDTH 1000 0
DWIDTH 16 0
BBX 16 16 0 -2
BITMAP 
0040
0040
0240
0240
7A7C
4BC4
4A48
4A48
4A48
4A48
3A48
0240
0204
01FC
0000
0000
ENDCHAR
STARTCHAR U+5422
ENCODING 21538
SWIDTH 1000 0
DWIDTH 16 0
BBX 16 16 0 -2
BITMAP 
0000
0100
0080
0408
2404
4404
4422
03C0
0000
1FF8
1010
1010
1010
1FE0
0000
0000
ENDCHAR
STARTCHAR U+543A
ENCODING 21562
SWIDTH 1000 0
DWIDTH 16 0
BBX 16 16 0 -2
BITMAP 
0000
01F0
4110
7910
4910
4A12
4A0C
4808
4BF8
4910
3120
00C0
00A0
031E
0400
0000
ENDCHAR
STARTCHAR U+543F
ENCODING 21567
SWIDTH 1000 0
DWIDTH 16 0
BBX 16 16 0 -2
BITMAP 
0000
0900
0900
0FF8
1100
2100
7FFE
0100
0100
1EF0
1010
1010
1010
1FE0
0000
0000
ENDCHAR
STARTCHAR U+544C
ENCODING 21580
SWIDTH 1000 0
DWIDTH 16 0
BBX 16 16 0 -2
BITMAP 
0010
0010
0090
3C50
4850
4810
4990
4890
4810
481E
3FF0
0010
0010
0010
0000
0000
ENDCHAR
STARTCHAR U+545A
ENCODING 21594
SWIDTH 1000 0
DWIDTH 16 0
BBX 16 16 0 -2
BITMAP 
0000
0080
0080
3D04
29F8
2A10
2A10
2910
28A0
28A0
3C40
00A0
0130
020E
0400
0000
ENDCHAR
STARTCHAR U+545D
ENCODING 21597
SWIDTH 1000 0
DWIDTH 16 0
BBX 16 16 0 -2
BITMAP 
0000
007C
0380
7A04
4BFC
4A04
4BFC
4A00
4AF8
4C10
7C20
44C0
0904
08FC
0000
0000
ENDCHAR
STARTCHAR U+5479
ENCODING 21625
SWIDTH 1000 0
DWIDTH 16 0
BBX 16 16 0 -2
BITMAP 
0000
0040
0140
7948
49FC
4A40
4840
4844
4BF8
48A0
30A0
0110
0208
0406
0000
0000
ENDCHAR
STARTCHAR U+548A
ENCODING 21642
SWIDTH 1000 0
DWIDTH 16 0
BBX 16 16 0 -2
BITMAP 
0000
0018
03E0
7840
4840
4BFE
4840
48E0
4960
4950
3E48
044C
0044
0040
0000
0000
ENDCHAR
STARTCHAR U+5493
ENCODING 21651
SWIDTH 1000 0
DWIDTH 16 0
BBX 16 16 0 -2
BITMAP 
0000
0004
03F8
3D00
4900
49F8
4910
4990
4950
4A50
3E10
0210
03D4
061E
0000
0000
ENDCHAR
STARTCHAR U+5497
ENCODING 21655
SWIDTH 1000 0
DWIDTH 16 0
BBX 16 16 0 -2
BITMAP 
0000
0080
0080
7C84
49F8
4880
4880
4904
49F8
4A20
7A20
4420
0820
03FE
0000
0000
ENDCHAR
STARTCHAR U+549E
ENCODING 21662
SWIDTH 1000 0
DWIDTH 16 0
BBX 16 16 0 -2
BITMAP 
0000
0084
0318
3910
4910
4910
4914
4FBE
4A10
4A10
3210
0410
0410
0010
0000
0000
ENDCHAR
STARTCHAR U+54B5
ENCODING 21685
SWIDTH 1000 0
DWIDTH 16 0
BBX 16 16 0 -2
BITMAP 
0000
0040
03FC
78A0
4910
4A1C
4CE0
4808
49F0
4908
38F8
0008
0008
0030
0000
0000
ENDCHAR
STARTCHAR U+54CB
ENCODING 21707
SWIDTH 1000 0
DWIDTH 16 0
BBX 16 16 0 -2
BITMAP 
0000
0210
0250
7A50
4A5C
4B74
4AD4
4A54
4A58
4A58
3AD0
0742
0042
003E
0000
0000
ENDCHAR
STARTCHAR U+54DB
ENCODING 21723
SWIDTH 1000 0
DWIDTH 16 0
BBX 16 16 0 -2
BITMAP 
0000
0500
3D18
24E0
2500
3D00
00FC
0440
0820
103E
27E0
0220
0440
08C0
3000
0000
ENDCHAR
STARTCHAR U+54E3
ENCODING 21731
SWIDTH 1000 0
DWIDTH 16 0
BBX 16 16 0 -2
BITMAP 
0000
07FC
0800
7800
4BF8
4A08
4A08
4A08
4BF8
7808
4908
4090
00A4
0FFE
0000
0000
ENDCHAR
STARTCHAR U+54F0
ENCODING 21744
SWIDTH 1000 0
DWIDTH 16 0
BBX 16 16 0 -2
BITMAP 
0000
0040
0244
7BBC
4C40
4940
49FC
4A40
4C40
4FFE
3840
0040
0040
0000
0000
0000
ENDCHAR
STARTCHAR U+54F4
ENCODING 21748
SWIDTH 1000 0
DWIDTH 16 0
BBX 16 16 0 -2
BITMAP 
0000
0080
0040
7BB8
4A08
4BF8
4A08
4BF8
4A04
4A48
7A30
4220
0218
038C
0200
0000
ENDCHAR
STARTCHAR U+54F5
ENCODING 21749
SWIDTH 1000 0
DWIDTH 16 0
BBX 16 16 0 -2
BITMAP 
0000
0784
0494
7494
5494
5794
5214
5214
53D4
5294
7494
0494
0884
110C
0000
0000
ENDCHAR
STARTCHAR U+54F9
ENCODING 21753
SWIDTH 1000 0
DWIDTH 16 0
BBX 16 16 0 -2
BITMAP 
0008
0030
01C4
7848
4940
4808
49F8
4830
4840
4FFE
3840
0040
0040
00C0
0000
0000
ENDCHAR
STARTCHAR U+5502
ENCODING 21762
SWIDTH 1000 0
DWIDTH 16 0
BBX 16 16 0 -2
BITMAP 
0000
0080
010C
7A64
4860
48A0
4910
4A0C
4C00
4BF8
3A08
0208
0208
01F0
0000
0000
ENDCHAR
STARTCHAR U+5513
ENCODING 21779
SWIDTH 1000 0
DWIDTH 16 0
BBX 16 16 0 -2
BITMAP 
0020
0044
03FE
4840
79FC
4A48
4A48
4BF8
4A48
49F0
3844
03F8
0040
0000
0000
0000
ENDCHAR
STARTCHAR U+5518
ENCODING 21784
SWIDTH 1000 0
DWIDTH 16 0
BBX 16 16 0 -2
BITMAP 
0000
7FFC
1088
1048
3E50
5230
1230
1F4C
0180
0010
1FF0
1010
1010
0FF0
0000
0000
ENDCHAR
STARTCHAR U+5519
ENCODING 21785
SWIDTH 1000 0
DWIDTH 16 0
BBX 16 16 0 -2
BITMAP 
0000
0510
0510
7210
5610
5194
5158
5368
5330
5530
7928
0148
0144
0286
0000
0000
ENDCHAR
STARTCHAR U+551D
ENCODING 21789
SWIDTH 1000 0
DWIDTH 16 0
BBX 16 16 0 -2
BITMAP 
0000
03FC
0040
7844
4BB8
4800
49FC
4A48
4A48
7A48
4A48
0048
0098
0104
0600
0000
ENDCHAR
STARTCHAR U+551E
ENCODING 21790
SWIDTH 1000 0
DWIDTH 16 0
BBX 16 16 0 -2
BITMAP 
0000
0108
0128
7918
4F88
4908
4928
4998
4B08
7D0C
4178
0108
0108
0300
0000
0000
ENDCHAR
STARTCHAR U+551F
ENCODING 21791
SWIDTH 1000 0
DWIDTH 16 0
BBX 16 16 0 -2
BITMAP 
0100
0108
1FF0
0104
7FFC
0620
1838
0FC4
0080
3E88
24B0
24C0
3C80
20FE
0000
0000
ENDCHAR
STARTCHAR U+5521
ENCODING 21793
SWIDTH 1000 0
DWIDTH 16 0
BBX 16 16 0 -2
BITMAP 
0000
07FE
0090
7890
4BFE
4A94
4A94
4A94
4AEC
3B6C
0324
0204
0204
0204
0000
0000
ENDCHAR
STARTCHAR U+5525
ENCODING 21797
SWIDTH 1000 0
DWIDTH 16 0
BBX 16 16 0 -2
BITMAP 
0000
0010
0230
7230
5048
5184
5290
5200
527E
7608
9408
0230
0210
0008
0000
0000
ENDCHAR
STARTCHAR U+5528
ENCODING 21800
SWIDTH 1000 0
DWIDTH 16 0
BBX 16 16 0 -2
BITMAP 
0000
0740
0978
7A48
5A48
5A78
5A48
5948
5948
5978
7B48
0848
0848
01FE
0000
0000
ENDCHAR
STARTCHAR U+5529
ENCODING 21801
SWIDTH 1000 0
DWIDTH 16 0
BBX 16 16 0 -2
BITMAP 
0000
0030
01C0
7BFC
48E0
4958
4A44
4840
4894
4B78
3920
0320
00D0
018C
0600
0000
ENDCHAR
STARTCHAR U+553A
ENCODING 21818
SWIDTH 1000 0
DWIDTH 16 0
BBX 16 16 0 -2
BITMAP 
0000
00A0
08A0
7BFC
4AA8
4AA8
4AA8
4BF8
4AA8
3AA8
0154
0100
020C
0404
0800
0000
ENDCHAR
STARTCHAR U+5542
ENCODING 21826
SWIDTH 1000 0
DWIDTH 16 0
BBX 16 16 0 -2
BITMAP 
0000
00F0
0710
7D50
5430
5010
53D0
5090
5110
50D0
6710
4510
0114
031E
0000
0000
ENDCHAR
STARTCHAR U+5554
ENCODING 21844
SWIDTH 1000 0
DWIDTH 16 0
BBX 16 16 0 -2
BITMAP 
0000
0E48
3044
3E78
22C0
2228
3E30
2072
418A
4FF6
0820
0820
0820
0FF0
0000
0000
ENDCHAR
STARTCHAR U+5559
ENCODING 21849
SWIDTH 1000 0
DWIDTH 16 0
BBX 16 16 0 -2
BITMAP 
0000
0440
2440
277C
2440
2440
2640
787E
0000
3EF8
2288
2288
2288
3CF0
0000
0000
ENDCHAR
STARTCHAR U+5568
ENCODING 21864
SWIDTH 1000 0
DWIDTH 16 0
BBX 16 16 0 -2
BITMAP 
0000
0040
03FC
7848
48F0
4BFE
4800
4BFC
4A08
49F8
3A08
03F8
0208
0018
0000
0000
ENDCHAR
STARTCHAR U+5569
ENCODING 21865
SWIDTH 1000 0
DWIDTH 16 0
BBX 16 16 0 -2
BITMAP 
0000
0000
0150
7990
4910
4928
4AD4
4812
4952
7B90
4110
0150
0790
0410
0000
0000
ENDCHAR
STARTCHAR U+556B
ENCODING 21867
SWIDTH 1000 0
DWIDTH 16 0
BBX 16 16 0 -2
BITMAP 
0000
0044
0054
79E8
4850
4864
49D8
4880
4B7C
4908
3908
01F8
0108
01F8
0000
0000
ENDCHAR
STARTCHAR U+556F
ENCODING 21871
SWIDTH 1000 0
DWIDTH 16 0
BBX 16 16 0 -2
BITMAP 
0000
03FC
0404
7C14
4CE4
4C44
4C54
4CE4
4C54
7C44
4C44
44B4
0404
03F8
0000
0000
ENDCHAR
STARTCHAR U+5570
ENCODING 21872
SWIDTH 1000 0
DWIDTH 16 0
BBX 16 16 0 -2
BITMAP 
0000
03FC
0294
7A94
4A94
4B6C
4880
497C
4908
7A90
4850
4020
0040
0180
0200
0000
ENDCHAR
STARTCHAR U+5571
ENCODING 21873
SWIDTH 1000 0
DWIDTH 16 0
BBX 16 16 0 -2
BITMAP 
0000
0248
0248
7A48
4BF8
4800
4FFE
4880
4900
49FC
3B08
0508
0108
01FC
0000
0000
ENDCHAR
STARTCHAR U+5572
ENCODING 21874
SWIDTH 1000 0
DWIDTH 16 0
BBX 16 16 0 -2
BITMAP 
0000
0120
0220
72A4
55DC
54C4
5484
54A4
5794
5494
7484
0484
0788
0418
0000
0000
ENDCHAR
STARTCHAR U+5573
ENCODING 21875
SWIDTH 1000 0
DWIDTH 16 0
BBX 16 16 0 -2
BITMAP 
0000
0224
0148
7844
48F8
4840
49BC
4888
49FC
4890
7090
0090
0080
007C
0000
0000
ENDCHAR
STARTCHAR U+5574
ENCODING 21876
SWIDTH 1000 0
DWIDTH 16 0
BBX 16 16 0 -2
BITMAP 
0000
0010
4910
7BF8
4A48
4A48
4BF8
4A48
4BF8
7840
47FE
0040
0040
0040
0000
0000
ENDCHAR
STARTCHAR U+5579
ENCODING 21881
SWIDTH 1000 0
DWIDTH 16 0
BBX 16 16 0 -2
BITMAP 
0000
0204
03FC
7A04
4BFC
4A20
4A20
4BFC
4A20
7A20
4DDC
0504
0904
00FC
0000
0000
ENDCHAR
STARTCHAR U+557A
ENCODING 21882
SWIDTH 1000 0
DWIDTH 16 0
BBX 16 16 0 -2
BITMAP 
0000
01F8
4108
79F8
4908
49F8
4804
4BF8
4904
4AFC
34A4
0324
00C4
0118
0000
0000
ENDCHAR
STARTCHAR U+5585
ENCODING 21893
SWIDTH 1000 0
DWIDTH 16 0
BBX 16 16 0 -2
BITMAP 
0000
03F8
7A08
4A08
4BF8
4A08
4BF8
4844
4BFE
7A08
4110
0090
00A0
0FFE
0000
0000
ENDCHAR
STARTCHAR U+5590
ENCODING 21904
SWIDTH 1000 0
DWIDTH 16 0
BBX 16 16 0 -2
BITMAP 
0000
011C
0964
3BA4
2A28
2BE8
2E68
2A64
2BE4
2A62
3BE2
226C
0260
02C0
0000
0000
ENDCHAR
STARTCHAR U+5596
ENCODING 21910
SWIDTH 1000 0
DWIDTH 16 0
BBX 16 16 0 -2
BITMAP 
0000
0210
7A10
5210
57FE
5210
5210
5310
56FC
7A44
4A44
0244
0244
027C
0000
0000
ENDCHAR
STARTCHAR U+559B
ENCODING 21915
SWIDTH 1000 0
DWIDTH 16 0
BBX 16 16 0 -2
BITMAP 
0000
0038
79C4
4948
4950
4BFC
4880
4BFE
4900
39FC
0288
0450
0820
10DE
0300
0000
ENDCHAR
STARTCHAR U+55A0
ENCODING 21920
SWIDTH 1000 0
DWIDTH 16 0
BBX 16 16 0 -2
BITMAP 
0000
0038
79C0
4FFC
4840
4BFC
4A48
4BF8
4A48
7BF8
4040
03FC
0040
0FFE
0000
0000
ENDCHAR
STARTCHAR U+55AF
ENCODING 21935
SWIDTH 1000 0
DWIDTH 16 0
BBX 16 16 0 -2
BITMAP 
0000
0040
4BFE
78A0
4950
4A4C
4DF8
4850
4950
4914
36F8
0210
0210
0410
0800
0000
ENDCHAR
STARTCHAR U+55B4
ENCODING 21940
SWIDTH 1000 0
DWIDTH 16 0
BBX 16 16 0 -2
BITMAP 
0000
0014
3810
4FFC
4C10
4DF2
4C92
4D34
4BF4
3E4C
0648
05C8
09B4
0202
0000
0000
ENDCHAR
STARTCHAR U+55B8
ENCODING 21944
SWIDTH 1000 0
DWIDTH 16 0
BBX 16 16 0 -2
BITMAP 
0110
0104
3FF8
1FF8
1108
1FF8
1FF8
1108
1100
0404
3D18
25E0
2500
3CFC
0000
0000
ENDCHAR
STARTCHAR U+55BA
ENCODING 21946
SWIDTH 1000 0
DWIDTH 16 0
BBX 16 16 0 -2
BITMAP 
0000
0120
7950
4AA4
4A44
4A78
4E34
4A4E
4A32
7A50
4254
0294
0292
0230
0200
0000
ENDCHAR
STARTCHAR U+55BC
ENCODING 21948
SWIDTH 1000 0
DWIDTH 16 0
BBX 16 16 0 -2
BITMAP 
0080
0080
0170
7A20
4BFC
4804
49FC
4804
4BFC
7800
4920
0504
0D02
01F0
0000
0000
ENDCHAR
STARTCHAR U+55E0
ENCODING 21984
SWIDTH 1000 0
DWIDTH 16 0
BBX 16 16 0 -2
BITMAP 
0000
0720
3844
427C
49C8
0230
3C10
0868
0884
0C7C
3888
4888
0888
1878
0000
0000
ENDCHAR
STARTCHAR U+55ED
ENCODING 21997
SWIDTH 1000 0
DWIDTH 16 0
BBX 16 16 0 -2
BITMAP 
0080
0084
3F78
27F0
27F0
2810
2FF0
27F0
3FFC
0100
7D08
4570
4580
388E
0070
0000
ENDCHAR
STARTCHAR U+55EE
ENCODING 21998
SWIDTH 1000 0
DWIDTH 16 0
BBX 16 16 0 -2
BITMAP 
0000
0004
7678
5630
5630
56EC
56AC
56AC
56AC
56CC
56C4
6684
0484
00FC
0000
0000
ENDCHAR
STARTCHAR U+55F0
ENCODING 22000
SWIDTH 1000 0
DWIDTH 16 0
BBX 16 16 0 -2
BITMAP 
0000
0104
7AFC
4A84
4AA4
4AB4
4EA4
4AB4
4AD4
4AD4
32D4
02A4
0284
02FC
0000
0000
ENDCHAR
STARTCHAR U+55F1
ENCODING 22001
SWIDTH 1000 0
DWIDTH 16 0
BBX 16 16 0 -2
BITMAP 
0040
0040
78A0
4938
4E44
49F8
4910
49E0
48F8
4948
79F0
47FE
0040
00C0
0000
0000
ENDCHAR
STARTCHAR U+55F4
ENCODING 22004
SWIDTH 1000 0
DWIDTH 16 0
BBX 16 16 0 -2
BITMAP 
0000
0110
7820
4BFC
4840
4BF8
4840
4844
4BF8
7950
4150
027C
0440
007E
0800
0000
ENDCHAR
STARTCHAR U+55F8
ENCODING 22008
SWIDTH 1000 0
DWIDTH 16 0
BBX 16 16 0 -2
BITMAP 
0000
0820
3F44
3F78
0988
3E48
0F30
1230
264C
0080
1FF0
1010
1010
1FF8
0000
0000
ENDCHAR
STARTCHAR U+55FB
ENCODING 22011
SWIDTH 1000 0
DWIDTH 16 0
BBX 16 16 0 -2
BITMAP 
0000
0060
7A24
4BD8
4A08
4A88
4BFE
4A88
4A88
7A88
4470
0400
0A54
0242
0000
0000
ENDCHAR
STARTCHAR U+5603
ENCODING 22019
SWIDTH 1000 0
DWIDTH 16 0
BBX 16 16 0 -2
BITMAP 
0000
0020
7BFE
4A40
4AF8
4BFC
4A68
4AD0
4BFC
3B28
03F8
0728
0AD8
0858
0000
0000
ENDCHAR
STARTCHAR U+5607
ENCODING 22023
SWIDTH 1000 0
DWIDTH 16 0
BBX 16 16 0 -2
BITMAP 
0000
0090
7908
4BF4
4910
4AA4
4F7A
48A0
493E
7A40
4190
0064
0398
0060
0380
0000
ENDCHAR
STARTCHAR U+560B
ENCODING 22027
SWIDTH 1000 0
DWIDTH 16 0
BBX 16 16 0 -2
BITMAP 
0000
0250
7250
5390
529E
5FE4
5248
5788
5128
7268
4190
0E10
0228
0244
0000
0000
ENDCHAR
STARTCHAR U+561A
ENCODING 22042
SWIDTH 1000 0
DWIDTH 16 0
BBX 16 16 0 -2
BITMAP 
0000
017C
7A48
4878
4948
4A78
4A00
4AFE
4E0C
4AFE
7A08
0208
0208
0218
0000
0000
ENDCHAR
STARTCHAR U+5620
ENCODING 22048
SWIDTH 1000 0
DWIDTH 16 0
BBX 16 16 0 -2
BITMAP 
0000
0004
7BF8
49FC
4A08
4BF8
49F8
4A08
49F4
7886
47FC
0050
0020
01DC
0200
0000
ENDCHAR
STARTCHAR U+5621
ENCODING 22049
SWIDTH 1000 0
DWIDTH 16 0
BBX 16 16 0 -2
BITMAP 
0000
0048
7948
4840
4FBC
4C00
49F8
4910
49F0
4940
7848
41F0
0040
0044
03B8
0000
ENDCHAR
STARTCHAR U+5622
ENCODING 22050
SWIDTH 1000 0
DWIDTH 16 0
BBX 16 16 0 -2
BITMAP 
0000
0044
77DC
5548
57D8
5540
557E
57D4
5110
77D0
0110
0130
0FD0
0410
0000
0000
ENDCHAR
STARTCHAR U+5625
ENCODING 22053
SWIDTH 1000 0
DWIDTH 16 0
BBX 16 16 0 -2
BITMAP 
0000
0110
7A50
4C5E
4950
4A50
4AFE
4A10
4A50
4A9C
7A90
4290
0350
023C
0000
0000
ENDCHAR
STARTCHAR U+5626
ENCODING 22054
SWIDTH 1000 0
DWIDTH 16 0
BBX 16 16 0 -2
BITMAP 
0000
1FF8
1010
1FF8
0618
7808
1FF0
3FF8
2448
3FF8
0224
3DD8
0380
0278
3C00
0000
ENDCHAR
STARTCHAR U+5628
ENCODING 22056
SWIDTH 1000 0
DWIDTH 16 0
BBX 16 16 0 -2
BITMAP 
0040
0040
79F8
4FFE
4848
4BFC
4A44
4B54
4A44
7BFC
4244
0554
064C
0844
0000
0000
ENDCHAR
STARTCHAR U+562B
ENCODING 22059
SWIDTH 1000 0
DWIDTH 16 0
BBX 16 16 0 -2
BITMAP 
0000
0110
7A54
4BD0
4D94
4CE8
48B0
4F28
4D44
7A82
4402
0220
04A4
0492
0000
0000
ENDCHAR
STARTCHAR U+5647
ENCODING 22087
SWIDTH 1000 0
DWIDTH 16 0
BBX 16 16 0 -2
BITMAP 
0000
0040
7BFC
4910
48A4
4B58
4BFC
4A48
4BF8
7A48
43F8
0044
01F8
0044
03B8
0000
ENDCHAR
STARTCHAR U+5651
ENCODING 22097
SWIDTH 1000 0
DWIDTH 16 0
BBX 16 16 0 -2
BITMAP 
0000
0040
7BFC
4A08
4BF8
4A08
4BF8
4800
4B9C
7840
414C
0044
03F8
0040
0000
0000
ENDCHAR
STARTCHAR U+5652
ENCODING 22098
SWIDTH 1000 0
DWIDTH 16 0
BBX 16 16 0 -2
BITMAP 
0000
0048
7950
4BFE
4840
494C
4E40
4A08
4BFE
7CA8
4328
013E
0208
0408
0000
0000
ENDCHAR
STARTCHAR U+5655
ENCODING 22101
SWIDTH 1000 0
DWIDTH 16 0
BBX 16 16 0 -2
BITMAP 
0010
03E0
1D10
1020
1FE0
1FF8
1010
1FEC
2894
2044
0008
1FF0
1010
1FF0
0000
0000
ENDCHAR
STARTCHAR U+5656
ENCODING 22102
SWIDTH 1000 0
DWIDTH 16 0
BBX 16 16 0 -2
BITMAP 
0000
07FE
7908
4FFE
4908
498E
4E50
48B0
490C
7A60
4008
00F0
0010
0000
0000
0000
ENDCHAR
STARTCHAR U+565D
ENCODING 22109
SWIDTH 1000 0
DWIDTH 16 0
BBX 16 16 0 -2
BITMAP 
0000
0210
7A10
54A4
5578
5710
5224
5266
5498
5390
6234
0AD2
0AD2
0830
0000
0000
ENDCHAR
STARTCHAR U+565F
ENCODING 22111
SWIDTH 1000 0
DWIDTH 16 0
BBX 16 16 0 -2
BITMAP 
0000
0084
3FFE
24A0
2524
29F8
39F8
2928
29F0
21FC
2008
47F8
4408
47F8
0000
0000
ENDCHAR
STARTCHAR U+5667
ENCODING 22119
SWIDTH 1000 0
DWIDTH 16 0
BBX 16 16 0 -2
BITMAP 
0110
0110
7FFE
5110
52E8
5248
53F8
51F8
5040
7FFC
4454
05EC
0404
040C
0000
0000
ENDCHAR
STARTCHAR U+567D
ENCODING 22141
SWIDTH 1000 0
DWIDTH 16 0
BBX 16 16 0 -2
BITMAP 
0000
0804
7F7C
0810
1620
3E20
2230
3E68
1464
7FA2
0020
3E20
2220
3EFE
0000
0000
ENDCHAR
STARTCHAR U+5689
ENCODING 22153
SWIDTH 1000 0
DWIDTH 16 0
BBX 16 16 0 -2
BITMAP 
0000
0288
7A88
56C8
5288
57DC
5288
5328
5198
7918
47C8
0108
01C8
0E18
0000
0000
ENDCHAR
STARTCHAR U+5691
ENCODING 22161
SWIDTH 1000 0
DWIDTH 16 0
BBX 16 16 0 -2
BITMAP 
0000
00F8
7944
4BF8
4BFC
4B44
4AD4
4BFC
4840
39F8
0044
03B8
0494
0882
0000
0000
ENDCHAR
STARTCHAR U+5692
ENCODING 22162
SWIDTH 1000 0
DWIDTH 16 0
BBX 16 16 0 -2
BITMAP 
0000
0040
3BFC
4A90
4BFC
4D54
4F54
4F76
4C10
3C48
05B0
04E8
08C4
03FA
0000
0000
ENDCHAR
STARTCHAR U+5696
ENCODING 22166
SWIDTH 1000 0
DWIDTH 16 0
BBX 16 16 0 -2
BITMAP 
0000
0110
7FFC
4994
4B18
4FBE
4808
49F8
4FFE
7808
41F0
0124
0530
09F8
0000
0000
ENDCHAR
STARTCHAR U+569B
ENCODING 22171
SWIDTH 1000 0
DWIDTH 16 0
BBX 16 16 0 -2
BITMAP 
0000
0240
7CE8
55B4
56AC
52E8
55B0
57FE
5040
7FFE
4040
0148
0244
0C42
0000
0000
ENDCHAR
STARTCHAR U+56A1
ENCODING 22177
SWIDTH 1000 0
DWIDTH 16 0
BBX 16 16 0 -2
BITMAP 
0010
0290
52D4
7398
5390
5214
57A8
5690
5690
5794
7218
47D0
0210
007E
0000
0000
ENDCHAR
STARTCHAR U+56A4
ENCODING 22180
SWIDTH 1000 0
DWIDTH 16 0
BBX 16 16 0 -2
BITMAP 
0080
0040
17FC
74C4
5538
55B8
5746
5408
5470
58A0
78F8
0BFE
1020
1060
0000
0000
ENDCHAR
STARTCHAR U+56B0
ENCODING 22192
SWIDTH 1000 0
DWIDTH 16 0
BBX 16 16 0 -2
BITMAP 
0000
0044
77FE
5510
57FC
5754
5754
5776
5404
5BFE
6884
097C
1704
10FC
0000
0000
ENDCHAR
STARTCHAR U+56B8
ENCODING 22200
SWIDTH 1000 0
DWIDTH 16 0
BBX 16 16 0 -2
BITMAP 
0000
0040
77D0
57D0
554E
5550
5790
5150
53BE
5164
62A4
0164
0AA4
0A3E
0000
0000
ENDCHAR
STARTCHAR U+56B9
ENCODING 22201
SWIDTH 1000 0
DWIDTH 16 0
BBX 16 16 0 -2
BITMAP 
0000
0414
7418
5E7E
5C54
5478
565E
5444
5D58
5D74
6DF8
0D94
0290
0030
0000
0000
ENDCHAR
STARTCHAR U+56BA
ENCODING 22202
SWIDTH 1000 0
DWIDTH 16 0
BBX 16 16 0 -2
BITMAP 
0000
04FE
72AC
50AC
5258
5430
546C
5264
5238
52D8
6236
0452
0C10
1BCE
0030
0000
ENDCHAR
STARTCHAR U+56BB
ENCODING 22203
SWIDTH 1000 0
DWIDTH 16 0
BBX 16 16 0 -2
BITMAP 
0000
0884
793C
4A24
4DA4
4CA4
33B8
0480
3BA4
4CBC
4CA4
4B24
4AA4
3078
0000
0000
ENDCHAR
STARTCHAR U+56BF
ENCODING 22207
SWIDTH 1000 0
DWIDTH 16 0
BBX 16 16 0 -2
BITMAP 
0000
0114
0BF8
7900
4BFC
4BFC
4E48
4BF0
4BFC
48C4
3B1C
03DC
0204
03FC
0000
0000
ENDCHAR
STARTCHAR U+56C4
ENCODING 22212
SWIDTH 1000 0
DWIDTH 16 0
BBX 16 16 0 -2
BITMAP 
0000
0030
7FE8
55A4
55B8
55E8
54AC
53B8
52A8
5FAC
66B8
07A8
04AC
04B0
0000
0000
ENDCHAR
STARTCHAR U+56C7
ENCODING 22215
SWIDTH 1000 0
DWIDTH 16 0
BBX 16 16 0 -2
BITMAP 
0000
07FE
3800
4BBC
4BAC
4AE8
4D9C
4CA0
4FFC
4FFC
3620
0664
0BBC
01BC
0000
0000
ENDCHAR
STARTCHAR U+56D2
ENCODING 22226
SWIDTH 1000 0
DWIDTH 16 0
BBX 16 16 0 -2
BITMAP 
0110
0110
339C
5084
57BC
57BC
57BC
5444
55F4
57F4
66F4
0554
04F4
054C
0000
0000
ENDCHAR
STARTCHAR U+56D5
ENCODING 22229
SWIDTH 1000 0
DWIDTH 16 0
BBX 16 16 0 -2
BITMAP 
0000
07A4
5658
7580
57FE
566A
57B6
51F8
5208
53F8
73F8
01F8
00A0
0324
0C18
0000
ENDCHAR
STARTCHAR U+56D6
ENCODING 22230
SWIDTH 1000 0
DWIDTH 16 0
BBX 16 16 0 -2
BITMAP 
0020
02A4
0D58
3808
2BF4
2AA4
2B78
2A24
2F78
2AAC
3FB8
202C
0AB8
083E
0000
0000
ENDCHAR
STARTCHAR U+56E9
ENCODING 22249
SWIDTH 1000 0
DWIDTH 16 0
BBX 16 16 0 -2
BITMAP 
0000
3FFC
2004
2024
27C4
2004
2FF4
2204
2204
2424
28D4
2F14
2004
3FFC
0000
0000
ENDCHAR
STARTCHAR U+56EC
ENCODING 22252
SWIDTH 1000 0
DWIDTH 16 0
BBX 16 16 0 -2
BITMAP 
0000
0000
3FFC
2448
2448
2448
27C8
2448
2448
27C8
2448
2448
2448
3BB0
0000
0000
ENDCHAR
STARTCHAR U+56EF
ENCODING 22255
SWIDTH 1000 0
DWIDTH 16 0
BBX 16 16 0 -2
BITMAP 
0000
3FFC
4004
4024
47C4
4104
4124
47C4
4104
4104
4114
4EE4
4004
3FFC
0000
0000
ENDCHAR
STARTCHAR U+56F8
ENCODING 22264
SWIDTH 1000 0
DWIDTH 16 0
BBX 16 16 0 -2
BITMAP 
0000
3FFC
2004
2FF4
2104
2104
2504
24F4
2504
2504
2514
2AE4
2004
3FFC
0000
0000
ENDCHAR
STARTCHAR U+56FB
ENCODING 22267
SWIDTH 1000 0
DWIDTH 16 0
BBX 16 16 0 -2
BITMAP 
0000
3FFC
2004
2FE4
2824
27E4
2884
28B4
2FC4
2884
2944
2634
2004
3FFC
0000
0000
ENDCHAR
STARTCHAR U+56FC
ENCODING 22268
SWIDTH 1000 0
DWIDTH 16 0
BBX 16 16 0 -2
BITMAP 
0000
3FFC
2104
2204
2424
2834
2FD4
2024
27E4
2424
2424
27E4
2004
3FFC
0000
0000
ENDCHAR
STARTCHAR U+5705
ENCODING 22277
SWIDTH 1000 0
DWIDTH 16 0
BBX 16 16 0 -2
BITMAP 
0000
1FF0
0020
01C0
3FFC
2068
2448
3FF8
2108
2128
27C8
2108
2108
3EF0
0000
0000
ENDCHAR
STARTCHAR U+570E
ENCODING 22286
SWIDTH 1000 0
DWIDTH 16 0
BBX 16 16 0 -2
BITMAP 
0000
0004
7FFC
4204
4FF4
4004
4FE4
4FE4
4824
4FE4
4FE4
4264
4C14
3FFC
0000
0000
ENDCHAR
STARTCHAR U+5710
ENCODING 22288
SWIDTH 1000 0
DWIDTH 16 0
BBX 16 16 0 -2
BITMAP 
0000
7FFC
2014
3FF4
3294
2FF4
2104
3FFC
2204
25E4
2424
28E4
2004
1FFC
0000
0000
ENDCHAR
STARTCHAR U+5717
ENCODING 22295
SWIDTH 1000 0
DWIDTH 16 0
BBX 16 16 0 -2
BITMAP 
0000
3FFC
2104
2224
2FD4
2104
2EF4
2FFC
2A94
2B94
2B94
2A94
2D74
3FFC
0000
0000
ENDCHAR
STARTCHAR U+5719
ENCODING 22297
SWIDTH 1000 0
DWIDTH 16 0
BBX 16 16 0 -2
BITMAP 
0000
7FFC
2244
2434
2804
27F4
2FF4
3294
3394
3294
3394
2FF4
2004
1FFC
0000
0000
ENDCHAR
STARTCHAR U+5721
ENCODING 22305
SWIDTH 1000 0
DWIDTH 16 0
BBX 16 16 0 -2
BITMAP 
0000
0100
0100
0100
0100
0100
010C
1FF0
0100
0110
0108
0100
0104
7FFE
0000
0000
ENDCHAR
STARTCHAR U+572B
ENCODING 22315
SWIDTH 1000 0
DWIDTH 16 0
BBX 16 16 0 -2
BITMAP 
1000
1018
10E0
1180
1480
3880
108E
17F0
1080
1080
3C80
4080
0084
007E
0000
0000
ENDCHAR
STARTCHAR U+5731
ENCODING 22321
SWIDTH 1000 0
DWIDTH 16 0
BBX 16 16 0 -2
BITMAP 
0000
0620
1820
3020
1020
1024
12F8
3C20
1020
1020
1020
2020
2020
03FE
0000
0000
ENDCHAR
STARTCHAR U+5732
ENCODING 22322
SWIDTH 1000 0
DWIDTH 16 0
BBX 16 16 0 -2
BITMAP 
0000
1018
10E0
1140
1440
3840
1044
13F8
1040
1040
7C40
4040
0040
0000
0000
0000
ENDCHAR
STARTCHAR U+5735
ENCODING 22325
SWIDTH 1000 0
DWIDTH 16 0
BBX 16 16 0 -2
BITMAP 
0000
0800
0880
0880
0A80
3C84
08F8
0880
0880
0880
0E80
7080
0084
0FFE
0000
0000
ENDCHAR
STARTCHAR U+5736
ENCODING 22326
SWIDTH 1000 0
DWIDTH 16 0
BBX 16 16 0 -2
BITMAP 
0100
0100
0204
3FF8
0440
0920
1118
2104
0110
0FE0
0100
0100
0104
7FFE
0000
0000
ENDCHAR
STARTCHAR U+573C
ENCODING 22332
SWIDTH 1000 0
DWIDTH 16 0
BBX 16 16 0 -2
BITMAP 
0000
1FF8
1008
1008
1FF8
1008
1008
1FF8
0100
0108
1FF0
0100
0100
7FFE
0000
0000
ENDCHAR
STARTCHAR U+5743
ENCODING 22339
SWIDTH 1000 0
DWIDTH 16 0
BBX 16 16 0 -2
BITMAP 
0000
100C
11F0
1000
1400
3804
13F8
1090
1110
1110
7D10
4110
0214
041E
0000
0000
ENDCHAR
STARTCHAR U+5744
ENCODING 22340
SWIDTH 1000 0
DWIDTH 16 0
BBX 16 16 0 -2
BITMAP 
0000
10F0
1110
1110
1510
391E
1200
13F8
1108
1110
38A0
4040
00B0
030E
0000
0000
ENDCHAR
STARTCHAR U+5748
ENCODING 22344
SWIDTH 1000 0
DWIDTH 16 0
BBX 16 16 0 -2
BITMAP 
0000
1004
13FE
1208
1000
7D90
1110
1110
1110
1110
1910
6110
0214
041E
0000
0000
ENDCHAR
STARTCHAR U+5753
ENCODING 22355
SWIDTH 1000 0
DWIDTH 16 0
BBX 16 16 0 -2
BITMAP 
0000
0820
0824
3FF8
0820
0824
3FF8
1020
2120
0108
1FF0
0100
0100
7FFE
0000
0000
ENDCHAR
STARTCHAR U+5754
ENCODING 22356
SWIDTH 1000 0
DWIDTH 16 0
BBX 16 16 0 -2
BITMAP 
0100
0100
3F90
0560
0520
0910
310E
0100
0100
0100
1FF8
0100
0100
7FFE
0000
0000
ENDCHAR
STARTCHAR U+5755
ENCODING 22357
SWIDTH 1000 0
DWIDTH 16 0
BBX 16 16 0 -2
BITMAP 
0000
10F0
1F00
1110
1110
1110
1108
2104
0100
0108
1FF0
0100
0104
7FFE
0000
0000
ENDCHAR
STARTCHAR U+5756
ENCODING 22358
SWIDTH 1000 0
DWIDTH 16 0
BBX 16 16 0 -2
BITMAP 
0000
1FF8
0000
0004
3FF8
0440
0440
0944
1138
2100
1FF0
0100
0100
7FFE
0000
0000
ENDCHAR
STARTCHAR U+5758
ENCODING 22360
SWIDTH 1000 0
DWIDTH 16 0
BBX 16 16 0 -2
BITMAP 
0000
1004
13F8
1100
1508
39F8
1108
1108
1108
1208
39F0
4010
0010
0FFE
0000
0000
ENDCHAR
STARTCHAR U+5759
ENCODING 22361
SWIDTH 1000 0
DWIDTH 16 0
BBX 16 16 0 -2
BITMAP 
0000
7FFC
0800
1110
2220
2220
1110
0888
0100
0108
1FF0
0100
0100
7FFE
0000
0000
ENDCHAR
STARTCHAR U+5763
ENCODING 22371
SWIDTH 1000 0
DWIDTH 16 0
BBX 16 16 0 -2
BITMAP 
0000
0100
0910
0520
0104
7EFC
4100
0100
0110
1FF8
0100
0100
0104
3EF8
0000
0000
ENDCHAR
STARTCHAR U+576C
ENCODING 22380
SWIDTH 1000 0
DWIDTH 16 0
BBX 16 16 0 -2
BITMAP 
0000
1038
13D0
1250
1650
3A50
1250
1248
1248
1648
6C48
0454
086C
0806
0000
0000
ENDCHAR
STARTCHAR U+5778
ENCODING 22392
SWIDTH 1000 0
DWIDTH 16 0
BBX 16 16 0 -2
BITMAP 
0080
1080
1080
11FE
1604
3A04
11E4
1124
1124
1524
79C4
4004
0008
0018
0000
0000
ENDCHAR
STARTCHAR U+5787
ENCODING 22407
SWIDTH 1000 0
DWIDTH 16 0
BBX 16 16 0 -2
BITMAP 
0000
1000
13DC
1294
1E94
3294
1294
12F4
1204
1204
7A04
4204
0204
03F8
0000
0000
ENDCHAR
STARTCHAR U+578A
ENCODING 22410
SWIDTH 1000 0
DWIDTH 16 0
BBX 16 16 0 -2
BITMAP 
0000
11FC
1204
1204
1604
3BF8
1220
1224
13F8
1210
3A10
4210
024A
0186
0000
0000
ENDCHAR
STARTCHAR U+578D
ENCODING 22413
SWIDTH 1000 0
DWIDTH 16 0
BBX 16 16 0 -2
BITMAP 
0000
1040
1080
11FC
1604
3A04
11FC
1204
1204
11FC
3A04
4204
0204
01FC
0000
0000
ENDCHAR
STARTCHAR U+578E
ENCODING 22414
SWIDTH 1000 0
DWIDTH 16 0
BBX 16 16 0 -2
BITMAP 
0080
1080
10F8
1108
1710
38A0
1040
10B8
1304
11FC
7908
4108
0108
01FC
0000
0000
ENDCHAR
STARTCHAR U+5790
ENCODING 22416
SWIDTH 1000 0
DWIDTH 16 0
BBX 16 16 0 -2
BITMAP 
0000
0080
7DFC
0248
0440
00A0
7D10
020C
0100
0108
1FF0
0100
0100
7FFE
0000
0000
ENDCHAR
STARTCHAR U+5791
ENCODING 22417
SWIDTH 1000 0
DWIDTH 16 0
BBX 16 16 0 -2
BITMAP 
0000
1040
10FC
1088
1590
3860
1050
11A0
165E
10CC
7928
4230
0040
0180
0600
0000
ENDCHAR
STARTCHAR U+5796
ENCODING 22422
SWIDTH 1000 0
DWIDTH 16 0
BBX 16 16 0 -2
BITMAP 
0000
1040
1284
137C
1604
3A04
13FC
1200
1200
13FC
7A04
4204
0204
03F8
0000
0000
ENDCHAR
STARTCHAR U+57AF
ENCODING 22447
SWIDTH 1000 0
DWIDTH 16 0
BBX 16 16 0 -2
BITMAP 
0000
2410
2210
2110
2810
337C
2210
2210
2228
1A24
6244
0300
0CCE
0030
0000
0000
ENDCHAR
STARTCHAR U+57B1
ENCODING 22449
SWIDTH 1000 0
DWIDTH 16 0
BBX 16 16 0 -2
BITMAP 
0040
1040
1244
1144
1548
3854
11AC
1004
1004
19FC
6004
0004
0004
03FC
0000
0000
ENDCHAR
STARTCHAR U+57B7
ENCODING 22455
SWIDTH 1000 0
DWIDTH 16 0
BBX 16 16 0 -2
BITMAP 
0000
11FC
1204
1204
13FC
3A04
11FC
1204
1204
11FC
6850
0092
0112
021E
0400
0000
ENDCHAR
STARTCHAR U+57BB
ENCODING 22459
SWIDTH 1000 0
DWIDTH 16 0
BBX 16 16 0 -2
BITMAP 
0000
1204
13FC
1204
17FC
3A04
1204
13FC
1204
1204
7BFC
40D0
010C
0602
0000
0000
ENDCHAR
STARTCHAR U+57BE
ENCODING 22462
SWIDTH 1000 0
DWIDTH 16 0
BBX 16 16 0 -2
BITMAP 
1000
11FC
1208
11F8
1608
39F8
1000
13FC
1040
1C40
67FE
0040
0040
0040
0000
0000
ENDCHAR
STARTCHAR U+57C4
ENCODING 22468
SWIDTH 1000 0
DWIDTH 16 0
BBX 16 16 0 -2
BITMAP 
0000
1100
11F8
1290
1C60
3058
11A4
1224
11F8
15FC
7820
47FE
0020
0020
0000
0000
ENDCHAR
STARTCHAR U+57C5
ENCODING 22469
SWIDTH 1000 0
DWIDTH 16 0
BBX 16 16 0 -2
BITMAP 
0000
7C20
47FE
4880
4884
44FC
4504
5D08
4218
4100
0118
0FE0
0100
7FFE
0000
0000
ENDCHAR
STARTCHAR U+57C9
ENCODING 22473
SWIDTH 1000 0
DWIDTH 16 0
BBX 16 16 0 -2
BITMAP 
0000
1040
1044
13F8
1148
3948
1148
12D4
1260
18A0
6090
0110
0208
0404
0000
0000
ENDCHAR
STARTCHAR U+57CA
ENCODING 22474
SWIDTH 1000 0
DWIDTH 16 0
BBX 16 16 0 -2
BITMAP 
0100
2100
2108
3FF8
0100
3F10
05A0
0960
331E
0000
0110
1FE0
0100
7FFE
0000
0000
ENDCHAR
STARTCHAR U+57CD
ENCODING 22477
SWIDTH 1000 0
DWIDTH 16 0
BBX 16 16 0 -2
BITMAP 
0000
11FC
1104
1104
15FC
3A00
13FC
1384
1264
1604
7A3C
03C4
0404
000C
0000
0000
ENDCHAR
STARTCHAR U+57D1
ENCODING 22481
SWIDTH 1000 0
DWIDTH 16 0
BBX 16 16 0 -2
BITMAP 
0000
080C
0AF0
3C80
0AFE
1D10
6910
0910
1B10
0100
3FF8
0100
0100
7FFE
0000
0000
ENDCHAR
STARTCHAR U+57D7
ENCODING 22487
SWIDTH 1000 0
DWIDTH 16 0
BBX 16 16 0 -2
BITMAP 
0040
1040
1140
117C
7D40
1144
12B8
1040
1144
1648
6850
0020
00C0
0300
0C00
0000
ENDCHAR
STARTCHAR U+57DB
ENCODING 22491
SWIDTH 1000 0
DWIDTH 16 0
BBX 16 16 0 -2
BITMAP 
0000
13FC
1264
12A4
1EA4
321C
1204
12F4
1294
1294
7A94
42E4
0204
020C
0000
0000
ENDCHAR
STARTCHAR U+57E8
ENCODING 22504
SWIDTH 1000 0
DWIDTH 16 0
BBX 16 16 0 -2
BITMAP 
0040
1040
10A0
1090
110C
3BF4
1000
13FE
12A4
16A4
7BFC
44A4
04A4
00AC
0000
0000
ENDCHAR
STARTCHAR U+57EA
ENCODING 22506
SWIDTH 1000 0
DWIDTH 16 0
BBX 16 16 0 -2
BITMAP 
0000
1040
1244
13BC
14A0
7D20
1120
121C
1000
11F8
3840
4040
0040
07BC
0000
0000
ENDCHAR
STARTCHAR U+57EB
ENCODING 22507
SWIDTH 1000 0
DWIDTH 16 0
BBX 16 16 0 -2
BITMAP 
0000
2024
2024
2128
2030
3BFE
2204
22F4
2294
2294
3AF4
4284
0204
020C
0000
0000
ENDCHAR
STARTCHAR U+580F
ENCODING 22543
SWIDTH 1000 0
DWIDTH 16 0
BBX 16 16 0 -2
BITMAP 
1000
1020
15FE
3880
18FC
3488
5088
1108
1210
0100
3FFC
0100
0100
7FFE
0000
0000
ENDCHAR
STARTCHAR U+5812
ENCODING 22546
SWIDTH 1000 0
DWIDTH 16 0
BBX 16 16 0 -2
BITMAP 
0000
13FC
1204
13FC
1204
3A04
13FC
1220
1220
13FE
3A20
4220
0222
039E
0000
0000
ENDCHAR
STARTCHAR U+5813
ENCODING 22547
SWIDTH 1000 0
DWIDTH 16 0
BBX 16 16 0 -2
BITMAP 
0040
2244
2244
2244
29BC
3206
23F8
2204
22F8
2A20
73FE
0420
0420
0020
0000
0000
ENDCHAR
STARTCHAR U+5816
ENCODING 22550
SWIDTH 1000 0
DWIDTH 16 0
BBX 16 16 0 -2
BITMAP 
0000
1124
1248
1490
1248
3924
1080
13FE
120C
16D4
7A24
025C
038C
03FC
0000
0000
ENDCHAR
STARTCHAR U+5817
ENCODING 22551
SWIDTH 1000 0
DWIDTH 16 0
BBX 16 16 0 -2
BITMAP 
0000
0020
23FE
2294
2090
3912
224C
2050
2044
23F8
7860
4090
0118
020E
0400
0000
ENDCHAR
STARTCHAR U+5818
ENCODING 22552
SWIDTH 1000 0
DWIDTH 16 0
BBX 16 16 0 -2
BITMAP 
0000
2240
2148
2044
29F8
3080
27FE
2110
2248
1C46
63FC
0040
0040
07FE
0000
0000
ENDCHAR
STARTCHAR U+581A
ENCODING 22554
SWIDTH 1000 0
DWIDTH 16 0
BBX 16 16 0 -2
BITMAP 
0000
13FE
1440
1044
1DF8
33FC
1248
13F8
1248
13F8
7840
47FE
0040
0040
0000
0000
ENDCHAR
STARTCHAR U+5822
ENCODING 22562
SWIDTH 1000 0
DWIDTH 16 0
BBX 16 16 0 -2
BITMAP 
0000
1188
12F8
1288
1A88
36F8
1220
1224
12F8
1260
32A8
42A4
0220
0220
0000
0000
ENDCHAR
STARTCHAR U+582B
ENCODING 22571
SWIDTH 1000 0
DWIDTH 16 0
BBX 16 16 0 -2
BITMAP 
0000
1124
1264
1264
1294
3DFC
10A0
111E
1680
1178
1B10
60A0
0060
039E
0C00
0000
ENDCHAR
STARTCHAR U+583C
ENCODING 22588
SWIDTH 1000 0
DWIDTH 16 0
BBX 16 16 0 -2
BITMAP 
0010
0810
3E10
0814
7F78
0850
3E50
0810
0C30
3100
0110
0FE0
0100
7FFC
0000
0000
ENDCHAR
STARTCHAR U+583E
ENCODING 22590
SWIDTH 1000 0
DWIDTH 16 0
BBX 16 16 0 -2
BITMAP 
0040
1040
23FC
2040
21F8
7884
2178
2208
23FC
2110
2910
71F0
0110
01F0
0000
0000
ENDCHAR
STARTCHAR U+5842
ENCODING 22594
SWIDTH 1000 0
DWIDTH 16 0
BBX 16 16 0 -2
BITMAP 
0000
1010
1114
11F8
1110
7D16
13F8
1208
15F6
1110
19F0
6100
0104
01FC
0000
0000
ENDCHAR
STARTCHAR U+5843
ENCODING 22595
SWIDTH 1000 0
DWIDTH 16 0
BBX 16 16 0 -2
BITMAP 
0000
1110
27FE
2110
2020
7FFC
2100
2104
20F8
2150
3950
4250
0250
045E
0800
0000
ENDCHAR
STARTCHAR U+5845
ENCODING 22597
SWIDTH 1000 0
DWIDTH 16 0
BBX 16 16 0 -2
BITMAP 
0000
10A8
1338
1228
13A8
7E4A
1244
13FC
1248
1A28
7330
4610
0228
0244
0000
0000
ENDCHAR
STARTCHAR U+5846
ENCODING 22598
SWIDTH 1000 0
DWIDTH 16 0
BBX 16 16 0 -2
BITMAP 
0000
1060
11FE
1050
115C
7E50
1000
10F8
1008
13F8
1A04
61FC
0004
0018
0000
0000
ENDCHAR
STARTCHAR U+5847
ENCODING 22599
SWIDTH 1000 0
DWIDTH 16 0
BBX 16 16 0 -2
BITMAP 
0000
1040
1204
13FC
1400
7DF0
1000
11F8
1108
11F8
1908
61F8
0000
07FE
0000
0000
ENDCHAR
STARTCHAR U+5856
ENCODING 22614
SWIDTH 1000 0
DWIDTH 16 0
BBX 16 16 0 -2
BITMAP 
0000
1030
13C0
1044
13F8
3950
1754
1158
11D0
16EC
3160
4158
0646
0840
0000
0000
ENDCHAR
STARTCHAR U+585C
ENCODING 22620
SWIDTH 1000 0
DWIDTH 16 0
BBX 16 16 0 -2
BITMAP 
0000
1200
13FC
1010
1060
3804
11F8
1188
10D0
1120
3A70
40AC
0320
0460
0000
0000
ENDCHAR
STARTCHAR U+5860
ENCODING 22624
SWIDTH 1000 0
DWIDTH 16 0
BBX 16 16 0 -2
BITMAP 
0000
2010
2220
205C
2344
2A44
3478
2744
217C
2144
3244
4478
0600
09FE
0000
0000
ENDCHAR
STARTCHAR U+5866
ENCODING 22630
SWIDTH 1000 0
DWIDTH 16 0
BBX 16 16 0 -2
BITMAP 
0000
7C40
49F8
4A48
4BF8
4BF8
4BF8
5840
43F8
4140
0108
1FF0
0100
3FFC
0000
0000
ENDCHAR
STARTCHAR U+586A
ENCODING 22634
SWIDTH 1000 0
DWIDTH 16 0
BBX 16 16 0 -2
BITMAP 
0000
103C
21C0
2044
2148
7D20
20C4
231C
2204
2204
1B9C
6204
0204
03FC
0000
0000
ENDCHAR
STARTCHAR U+586E
ENCODING 22638
SWIDTH 1000 0
DWIDTH 16 0
BBX 16 16 0 -2
BITMAP 
0000
1108
23C8
2488
2488
7FBE
2488
2788
2488
2398
1188
6288
0488
0098
0000
0000
ENDCHAR
STARTCHAR U+5873
ENCODING 22643
SWIDTH 1000 0
DWIDTH 16 0
BBX 16 16 0 -2
BITMAP 
0000
0040
227C
2030
2728
7A46
2410
277C
227C
2210
32FE
4410
0A00
09FC
0000
0000
ENDCHAR
STARTCHAR U+5877
ENCODING 22647
SWIDTH 1000 0
DWIDTH 16 0
BBX 16 16 0 -2
BITMAP 
0000
1000
107C
1080
1284
1B7C
3354
12A4
136C
126C
1A94
6254
0204
03FC
0000
0000
ENDCHAR
STARTCHAR U+5884
ENCODING 22660
SWIDTH 1000 0
DWIDTH 16 0
BBX 16 16 0 -2
BITMAP 
0000
1014
1010
17FC
1490
1CD4
3494
1498
17D8
1598
16B0
669A
08AC
0046
0000
0000
ENDCHAR
STARTCHAR U+5895
ENCODING 22677
SWIDTH 1000 0
DWIDTH 16 0
BBX 16 16 0 -2
BITMAP 
0000
1004
21F8
214C
2170
7D44
21B8
21FC
2200
23FE
3804
4154
0504
0818
0000
0000
ENDCHAR
STARTCHAR U+589B
ENCODING 22683
SWIDTH 1000 0
DWIDTH 16 0
BBX 16 16 0 -2
BITMAP 
0000
0444
27C8
2448
27C6
7C18
25C8
2408
27F8
2508
3748
4B28
0D08
1008
0000
0000
ENDCHAR
STARTCHAR U+58A4
ENCODING 22692
SWIDTH 1000 0
DWIDTH 16 0
BBX 16 16 0 -2
BITMAP 
0040
1248
23F8
2248
29F0
33BC
2208
23F8
23F8
2608
3BF8
43F8
0190
020C
0400
0000
ENDCHAR
STARTCHAR U+58A7
ENCODING 22695
SWIDTH 1000 0
DWIDTH 16 0
BBX 16 16 0 -2
BITMAP 
0000
1030
11C0
1086
1378
7F18
11F6
10F0
13FC
1204
1AF4
6294
02F4
020C
0000
0000
ENDCHAR
STARTCHAR U+58AA
ENCODING 22698
SWIDTH 1000 0
DWIDTH 16 0
BBX 16 16 0 -2
BITMAP 
0800
0920
3644
3E78
3F88
0050
1E50
0620
38DC
0900
0118
0FE0
0100
7FFE
0000
0000
ENDCHAR
STARTCHAR U+58AD
ENCODING 22701
SWIDTH 1000 0
DWIDTH 16 0
BBX 16 16 0 -2
BITMAP 
0000
1028
2024
23F8
3A24
23E8
2298
1C9A
64A4
0800
17F8
1248
1248
124C
2DB0
0000
ENDCHAR
STARTCHAR U+58B0
ENCODING 22704
SWIDTH 1000 0
DWIDTH 16 0
BBX 16 16 0 -2
BITMAP 
0000
13FE
10E0
13FC
12E4
7FFC
1008
13F8
11F8
1208
39F8
4046
03F8
0040
0000
0000
ENDCHAR
STARTCHAR U+58B4
ENCODING 22708
SWIDTH 1000 0
DWIDTH 16 0
BBX 16 16 0 -2
BITMAP 
0000
1010
13FC
1110
18F0
33FE
1000
13FC
1248
13F8
7A48
43B0
0098
0304
0400
0000
ENDCHAR
STARTCHAR U+58B5
ENCODING 22709
SWIDTH 1000 0
DWIDTH 16 0
BBX 16 16 0 -2
BITMAP 
0000
11FC
2040
23FE
2044
78D0
20D0
2100
21FC
2000
1BFE
6080
0108
03F4
0000
0000
ENDCHAR
STARTCHAR U+58B6
ENCODING 22710
SWIDTH 1000 0
DWIDTH 16 0
BBX 16 16 0 -2
BITMAP 
0000
1020
24FC
2220
20FE
7848
22FC
2620
22FC
2220
32FC
4220
0620
09FC
0000
0000
ENDCHAR
STARTCHAR U+58B7
ENCODING 22711
SWIDTH 1000 0
DWIDTH 16 0
BBX 16 16 0 -2
BITMAP 
0000
1110
13FC
1110
1004
7DF8
11D4
1358
1140
13FC
1840
63FC
0040
0040
0000
0000
ENDCHAR
STARTCHAR U+58C0
ENCODING 22720
SWIDTH 1000 0
DWIDTH 16 0
BBX 16 16 0 -2
BITMAP 
0000
0090
2794
24EC
2CA4
34A8
2728
2414
2790
2694
36B8
4A90
0B90
1210
0000
0000
ENDCHAR
STARTCHAR U+58C3
ENCODING 22723
SWIDTH 1000 0
DWIDTH 16 0
BBX 16 16 0 -2
BITMAP 
0000
13FC
1208
13F8
11F8
7E48
11B8
17FE
1208
17F8
3BF8
4248
03B8
07FE
0000
0000
ENDCHAR
STARTCHAR U+58CB
ENCODING 22731
SWIDTH 1000 0
DWIDTH 16 0
BBX 16 16 0 -2
BITMAP 
0040
1040
1148
1240
11BC
19F8
3110
11F0
1000
13FC
1A48
63F8
0248
03F8
0000
0000
ENDCHAR
STARTCHAR U+58E0
ENCODING 22752
SWIDTH 1000 0
DWIDTH 16 0
BBX 16 16 0 -2
BITMAP 
0000
2220
27BE
24A0
3D20
229C
2024
27B8
26BC
25A4
35B8
46A4
08B8
09BE
0000
0000
ENDCHAR
STARTCHAR U+58E6
ENCODING 22758
SWIDTH 1000 0
DWIDTH 16 0
BBX 16 16 0 -2
BITMAP 
0000
1080
139C
1080
13BC
7EA8
1330
1120
12F8
1E2C
63F0
01FC
0220
01FC
0000
0000
ENDCHAR
STARTCHAR U+58EA
ENCODING 22762
SWIDTH 1000 0
DWIDTH 16 0
BBX 16 16 0 -2
BITMAP 
0000
2248
252A
26F4
22E8
7DA8
26E4
27F2
2008
29F8
73F8
4400
03FC
0038
0000
0000
ENDCHAR
STARTCHAR U+58ED
ENCODING 22765
SWIDTH 1000 0
DWIDTH 16 0
BBX 16 16 0 -2
BITMAP 
0000
0100
0104
3FF8
0100
0108
0EF0
0000
1FF8
0108
0108
0108
0118
0100
0000
0000
ENDCHAR
STARTCHAR U+58F5
ENCODING 22773
SWIDTH 1000 0
DWIDTH 16 0
BBX 16 16 0 -2
BITMAP 
0000
0100
0104
3FF8
0100
0108
0EF0
0830
1020
1224
3C78
1020
1020
7EFC
0000
0000
ENDCHAR
STARTCHAR U+58F8
ENCODING 22776
SWIDTH 1000 0
DWIDTH 16 0
BBX 16 16 0 -2
BITMAP 
0000
0104
7FFC
0100
1FF8
0000
3FFC
4004
1FF8
0280
1290
0AA0
0A40
7FFE
0000
0000
ENDCHAR
STARTCHAR U+5900
ENCODING 22784
SWIDTH 1000 0
DWIDTH 16 0
BBX 16 16 0 -2
BITMAP 
0000
0108
1FF0
1FF8
0104
3FFC
3FF0
1FF0
0104
3EF8
3DFC
2490
2450
3870
0000
0000
ENDCHAR
STARTCHAR U+5901
ENCODING 22785
SWIDTH 1000 0
DWIDTH 16 0
BBX 16 16 0 -2
BITMAP 
0000
0104
3FF8
1FF8
0000
3FF8
2448
1BB0
3FF8
2128
27C8
26C8
27E8
1FF8
0000
0000
ENDCHAR
STARTCHAR U+5908
ENCODING 22792
SWIDTH 1000 0
DWIDTH 16 0
BBX 16 16 0 -2
BITMAP 
0000
0200
07E0
0C60
1380
0140
0F3C
3930
0504
1BF8
0100
0520
0910
1108
0000
0000
ENDCHAR
STARTCHAR U+5911
ENCODING 22801
SWIDTH 1000 0
DWIDTH 16 0
BBX 16 16 0 -2
BITMAP 
0000
1108
13C8
548C
3928
1190
13D8
2A54
21A0
0220
05E0
0A40
01C0
063C
3800
0000
ENDCHAR
STARTCHAR U+591E
ENCODING 22814
SWIDTH 1000 0
DWIDTH 16 0
BBX 16 16 0 -2
BITMAP 
0000
0820
0F20
1130
2A2C
0420
0820
3280
3E8C
2298
22A0
22C0
3E84
00FC
0000
0000
ENDCHAR
STARTCHAR U+5926
ENCODING 22822
SWIDTH 1000 0
DWIDTH 16 0
BBX 16 16 0 -2
BITMAP 
0000
2220
233C
3E48
22A8
3E10
3E30
2250
23AE
5C44
5438
6318
4010
3E60
0000
0000
ENDCHAR
STARTCHAR U+593B
ENCODING 22843
SWIDTH 1000 0
DWIDTH 16 0
BBX 16 16 0 -2
BITMAP 
0100
0100
0200
7FFE
0480
0440
0830
300C
4010
0FF0
0810
0810
0810
0FF0
0000
0000
ENDCHAR
STARTCHAR U+593D
ENCODING 22845
SWIDTH 1000 0
DWIDTH 16 0
BBX 16 16 0 -2
BITMAP 
0000
0100
0204
3FF8
0440
0830
102C
23C4
0000
3FFC
0200
0420
0810
1FE8
0000
0000
ENDCHAR
STARTCHAR U+594C
ENCODING 22860
SWIDTH 1000 0
DWIDTH 16 0
BBX 16 16 0 -2
BITMAP 
0000
0100
01FC
0100
1FF8
1010
1010
1FF8
0180
0104
3FF8
0240
0430
180C
2000
0000
ENDCHAR
STARTCHAR U+594D
ENCODING 22861
SWIDTH 1000 0
DWIDTH 16 0
BBX 16 16 0 -2
BITMAP 
0000
0108
0910
0168
3FFC
0400
7FFE
0820
1438
644C
0440
0840
0840
1000
2000
0000
ENDCHAR
STARTCHAR U+5964
ENCODING 22884
SWIDTH 1000 0
DWIDTH 16 0
BBX 16 16 0 -2
BITMAP 
0100
0100
7FFE
0440
0830
100C
6FE0
0200
1FF8
1448
17C8
1448
17C8
1FF8
0000
0000
ENDCHAR
STARTCHAR U+5966
ENCODING 22886
SWIDTH 1000 0
DWIDTH 16 0
BBX 16 16 0 -2
BITMAP 
0040
3F44
14B8
0810
3F38
1CE4
28FC
0848
1888
0180
7FFE
0100
0260
0C1C
3000
0000
ENDCHAR
STARTCHAR U+597A
ENCODING 22906
SWIDTH 1000 0
DWIDTH 16 0
BBX 16 16 0 -2
BITMAP 
0000
0840
1040
1088
12F8
1D08
6510
2410
2820
2830
1850
1448
218C
0206
0000
0000
ENDCHAR
STARTCHAR U+5989
ENCODING 22921
SWIDTH 1000 0
DWIDTH 16 0
BBX 16 16 0 -2
BITMAP 
0000
1040
1040
1440
29FE
7E40
2A40
4860
4860
30A0
18A0
1520
2124
423E
0000
0000
ENDCHAR
STARTCHAR U+5991
ENCODING 22929
SWIDTH 1000 0
DWIDTH 16 0
BBX 16 16 0 -2
BITMAP 
0000
0804
11FC
1124
3F24
2524
2524
25FC
4500
2900
1900
1900
2504
04FE
0000
0000
ENDCHAR
STARTCHAR U+5994
ENCODING 22932
SWIDTH 1000 0
DWIDTH 16 0
BBX 16 16 0 -2
BITMAP 
0000
1840
1024
13FE
2600
7C00
28F0
2890
4890
2890
1110
1910
2610
000E
0000
0000
ENDCHAR
STARTCHAR U+599A
ENCODING 22938
SWIDTH 1000 0
DWIDTH 16 0
BBX 16 16 0 -2
BITMAP 
0000
1804
11FC
1020
2440
7C40
68F0
2948
4A44
4842
3040
1840
2440
0400
0000
0000
ENDCHAR
STARTCHAR U+599C
ENCODING 22940
SWIDTH 1000 0
DWIDTH 16 0
BBX 16 16 0 -2
BITMAP 
0000
1840
1040
1040
26F8
7C48
2848
2848
4BFE
4880
3090
1888
2504
0204
0000
0000
ENDCHAR
STARTCHAR U+59B8
ENCODING 22968
SWIDTH 1000 0
DWIDTH 16 0
BBX 16 16 0 -2
BITMAP 
0000
1804
13FE
1008
2408
7DE8
6928
2928
4928
49E8
3008
1808
2408
0418
0000
0000
ENDCHAR
STARTCHAR U+59BF
ENCODING 22975
SWIDTH 1000 0
DWIDTH 16 0
BBX 16 16 0 -2
BITMAP 
0000
0800
097C
3F84
1184
1184
267C
4000
0230
7FFE
0840
1880
07C0
0638
3800
0000
ENDCHAR
STARTCHAR U+59C2
ENCODING 22978
SWIDTH 1000 0
DWIDTH 16 0
BBX 16 16 0 -2
BITMAP 
0004
180E
10F0
1420
2620
7DFC
2804
4808
4810
2820
1040
1880
2500
02FE
0000
0000
ENDCHAR
STARTCHAR U+59D5
ENCODING 22997
SWIDTH 1000 0
DWIDTH 16 0
BBX 16 16 0 -2
BITMAP 
0000
0040
2840
277C
2840
2844
2E44
7238
0210
7FFE
0840
1C80
03E0
0618
3800
0000
ENDCHAR
STARTCHAR U+59E2
ENCODING 23010
SWIDTH 1000 0
DWIDTH 16 0
BBX 16 16 0 -2
BITMAP 
0000
1820
1040
1488
17F4
7C00
65FC
2904
49E4
2914
113C
19C4
2604
020C
0000
0000
ENDCHAR
STARTCHAR U+59F0
ENCODING 23024
SWIDTH 1000 0
DWIDTH 16 0
BBX 16 16 0 -2
BITMAP 
0000
1880
1080
14FE
2704
7F14
29F4
2914
48F4
4914
3114
19F4
2404
0418
0000
0000
ENDCHAR
STARTCHAR U+5A02
ENCODING 23042
SWIDTH 1000 0
DWIDTH 16 0
BBX 16 16 0 -2
BITMAP 
0000
1890
1090
1090
25FC
7890
6890
2890
4890
4BFE
3080
1888
2504
0202
0000
0000
ENDCHAR
STARTCHAR U+5A0B
ENCODING 23051
SWIDTH 1000 0
DWIDTH 16 0
BBX 16 16 0 -2
BITMAP 
0000
1820
1124
10A8
2420
7DFC
6904
29E4
4904
290C
11F4
1904
2604
020C
0000
0000
ENDCHAR
STARTCHAR U+5A10
ENCODING 23056
SWIDTH 1000 0
DWIDTH 16 0
BBX 16 16 0 -2
BITMAP 
0000
1838
11C4
1104
2528
7C08
68FC
2810
4820
4826
31F8
1820
2420
0440
0000
0000
ENDCHAR
STARTCHAR U+5A14
ENCODING 23060
SWIDTH 1000 0
DWIDTH 16 0
BBX 16 16 0 -2
BITMAP 
0000
1820
1020
10FC
2420
79FC
6904
2904
49FC
4950
3050
1890
2512
421E
0400
0000
ENDCHAR
STARTCHAR U+5A1D
ENCODING 23069
SWIDTH 1000 0
DWIDTH 16 0
BBX 16 16 0 -2
BITMAP 
0000
1804
11F8
1020
2470
7CA8
6924
2A22
4800
49FC
3104
1904
2504
05FC
0000
0000
ENDCHAR
STARTCHAR U+5A21
ENCODING 23073
SWIDTH 1000 0
DWIDTH 16 0
BBX 16 16 0 -2
BITMAP 
0000
1020
1020
1024
16F8
7C20
2824
29FC
4800
28A0
1084
1A82
2280
00F8
0000
0000
ENDCHAR
STARTCHAR U+5A22
ENCODING 23074
SWIDTH 1000 0
DWIDTH 16 0
BBX 16 16 0 -2
BITMAP 
0000
1840
1060
1090
2508
7AF4
6808
29F8
4810
4820
33D8
1A08
2608
45FC
0000
0000
ENDCHAR
STARTCHAR U+5A26
ENCODING 23078
SWIDTH 1000 0
DWIDTH 16 0
BBX 16 16 0 -2
BITMAP 
0000
180C
11F0
1100
2704
7DF8
2910
2910
4910
4914
32E8
18C0
250C
0204
0000
0000
ENDCHAR
STARTCHAR U+5A2B
ENCODING 23083
SWIDTH 1000 0
DWIDTH 16 0
BBX 16 16 0 -2
BITMAP 
0000
2004
27B8
2D10
3A50
6A54
4BD8
50D0
5150
3550
1354
2928
4A80
447C
0000
0000
ENDCHAR
STARTCHAR U+5A2C
ENCODING 23084
SWIDTH 1000 0
DWIDTH 16 0
BBX 16 16 0 -2
BITMAP 
0000
1010
11F4
2810
2C14
79F8
2890
4A90
4AF0
5290
3288
2AAA
2ACA
4704
0000
0000
ENDCHAR
STARTCHAR U+5A3A
ENCODING 23098
SWIDTH 1000 0
DWIDTH 16 0
BBX 16 16 0 -2
BITMAP 
0000
1040
13FC
1194
1688
6994
2A24
2800
4BFE
2AA4
11A4
1898
2598
0266
0400
0000
ENDCHAR
STARTCHAR U+5A3B
ENCODING 23099
SWIDTH 1000 0
DWIDTH 16 0
BBX 16 16 0 -2
BITMAP 
0000
1820
1026
11F8
2424
79FC
2924
49FC
4924
29F8
10B0
1928
2226
4C20
0000
0000
ENDCHAR
STARTCHAR U+5A3D
ENCODING 23101
SWIDTH 1000 0
DWIDTH 16 0
BBX 16 16 0 -2
BITMAP 
0000
1040
10FC
1488
2910
78F0
2BFE
4820
48A8
30A0
18A0
172C
2224
4060
0000
0000
ENDCHAR
STARTCHAR U+5A3F
ENCODING 23103
SWIDTH 1000 0
DWIDTH 16 0
BBX 16 16 0 -2
BITMAP 
0000
3E04
24F8
28E8
2528
2528
24C8
2018
2210
7FFE
0840
1C80
03C0
0638
3800
0000
ENDCHAR
STARTCHAR U+5A4B
ENCODING 23115
SWIDTH 1000 0
DWIDTH 16 0
BBX 16 16 0 -2
BITMAP 
0000
1000
103C
1040
2BBE
7A48
2AF0
4A44
4A38
3250
1250
1A90
2490
451E
0000
0000
ENDCHAR
STARTCHAR U+5A4E
ENCODING 23118
SWIDTH 1000 0
DWIDTH 16 0
BBX 16 16 0 -2
BITMAP 
0000
1880
1090
1116
25E8
7920
6B24
29F8
4920
4924
31F8
1920
2520
45FE
0000
0000
ENDCHAR
STARTCHAR U+5A4F
ENCODING 23119
SWIDTH 1000 0
DWIDTH 16 0
BBX 16 16 0 -2
BITMAP 
0000
1840
10F0
1110
2920
7DDC
6944
2944
49FC
4860
3068
18A0
2524
423E
0000
0000
ENDCHAR
STARTCHAR U+5A54
ENCODING 23124
SWIDTH 1000 0
DWIDTH 16 0
BBX 16 16 0 -2
BITMAP 
0000
1850
1050
1056
24D8
7850
6854
48D8
4850
48D0
339C
1890
2510
4010
0000
0000
ENDCHAR
STARTCHAR U+5A59
ENCODING 23129
SWIDTH 1000 0
DWIDTH 16 0
BBX 16 16 0 -2
BITMAP 
0000
1038
11C4
1148
2520
7BFC
6848
4BFE
4848
4848
31F0
1840
2440
40C0
0000
0000
ENDCHAR
STARTCHAR U+5A61
ENCODING 23137
SWIDTH 1000 0
DWIDTH 16 0
BBX 16 16 0 -2
BITMAP 
0040
1840
1044
11F8
2548
7950
6958
2AC4
4860
48E0
30D0
1948
2644
4400
0000
0000
ENDCHAR
STARTCHAR U+5A68
ENCODING 23144
SWIDTH 1000 0
DWIDTH 16 0
BBX 16 16 0 -2
BITMAP 
0000
1840
1060
1490
270C
7AF8
6800
29FE
4A54
4A54
31EC
1964
2564
054C
0000
0000
ENDCHAR
STARTCHAR U+5A6B
ENCODING 23147
SWIDTH 1000 0
DWIDTH 16 0
BBX 16 16 0 -2
BITMAP 
0000
19FC
1108
1108
25F8
7D08
69F0
2910
4920
49DE
3120
1920
2520
059E
0000
0000
ENDCHAR
STARTCHAR U+5A6E
ENCODING 23150
SWIDTH 1000 0
DWIDTH 16 0
BBX 16 16 0 -2
BITMAP 
0000
1904
11FC
1104
25FC
7D30
6920
49FC
4A20
2A24
12DC
1A84
2484
04FC
0000
0000
ENDCHAR
STARTCHAR U+5A6F
ENCODING 23151
SWIDTH 1000 0
DWIDTH 16 0
BBX 16 16 0 -2
BITMAP 
0000
7FFE
0000
3EFC
22A4
2A94
2294
2200
0234
3DE8
0840
0E80
01E0
0E18
3000
0000
ENDCHAR
STARTCHAR U+5A71
ENCODING 23153
SWIDTH 1000 0
DWIDTH 16 0
BBX 16 16 0 -2
BITMAP 
0040
3C24
04D8
7848
41F0
3CA0
04C0
25FC
1A10
7FFE
0840
1C80
03E0
0618
3800
0000
ENDCHAR
STARTCHAR U+5A72
ENCODING 23154
SWIDTH 1000 0
DWIDTH 16 0
BBX 16 16 0 -2
BITMAP 
0000
1090
13FE
1090
3C00
2490
24A0
2526
2924
6B18
1920
1520
2520
011E
0000
0000
ENDCHAR
STARTCHAR U+5A73
ENCODING 23155
SWIDTH 1000 0
DWIDTH 16 0
BBX 16 16 0 -2
BITMAP 
0000
1004
11F8
1008
24F8
7AAA
6AAA
4AFA
4AAA
2AAA
12FA
1A02
2602
41FE
0000
0000
ENDCHAR
STARTCHAR U+5A79
ENCODING 23161
SWIDTH 1000 0
DWIDTH 16 0
BBX 16 16 0 -2
BITMAP 
0000
1BFE
1050
13FC
2554
7B54
69FC
2840
4888
4BFE
3110
1920
24F0
008C
0300
0000
ENDCHAR
STARTCHAR U+5A80
ENCODING 23168
SWIDTH 1000 0
DWIDTH 16 0
BBX 16 16 0 -2
BITMAP 
0000
11FC
1128
1528
25F8
7928
29F0
4820
4BFE
3A24
0A3C
16CC
2204
420C
0000
0000
ENDCHAR
STARTCHAR U+5A81
ENCODING 23169
SWIDTH 1000 0
DWIDTH 16 0
BBX 16 16 0 -2
BITMAP 
0000
1040
11B8
1488
27FE
79FC
2908
49FC
4820
2BFE
1120
1924
24F8
0020
0000
0000
ENDCHAR
STARTCHAR U+5A82
ENCODING 23170
SWIDTH 1000 0
DWIDTH 16 0
BBX 16 16 0 -2
BITMAP 
0000
1020
1024
15D8
2890
7C10
2BEC
4A40
4BF8
2A48
1248
1A48
2448
0040
0000
0000
ENDCHAR
STARTCHAR U+5A85
ENCODING 23173
SWIDTH 1000 0
DWIDTH 16 0
BBX 16 16 0 -2
BITMAP 
1000
1080
1094
15F8
2490
78F0
28F0
4890
4BFE
2950
1190
199C
2500
05FC
0000
0000
ENDCHAR
STARTCHAR U+5A86
ENCODING 23174
SWIDTH 1000 0
DWIDTH 16 0
BBX 16 16 0 -2
BITMAP 
0000
19FE
1040
1584
277C
7964
6964
4944
4960
2844
11F8
1880
2498
0104
0200
0000
ENDCHAR
STARTCHAR U+5A87
ENCODING 23175
SWIDTH 1000 0
DWIDTH 16 0
BBX 16 16 0 -2
BITMAP 
1000
1020
11F4
1508
2C88
7890
2BFE
2820
4824
39F8
08A0
1524
2222
0020
0000
0000
ENDCHAR
STARTCHAR U+5A88
ENCODING 23176
SWIDTH 1000 0
DWIDTH 16 0
BBX 16 16 0 -2
BITMAP 
0000
19FC
1224
1024
27F8
7920
69F8
29F8
4928
29F8
1020
1BFE
2420
0020
0000
0000
ENDCHAR
STARTCHAR U+5A89
ENCODING 23177
SWIDTH 1000 0
DWIDTH 16 0
BBX 16 16 0 -2
BITMAP 
0000
11FC
1204
15FC
2600
79FC
2A40
4A84
4AFC
3220
1224
1AF8
2C20
03FE
0000
0000
ENDCHAR
STARTCHAR U+5A8D
ENCODING 23181
SWIDTH 1000 0
DWIDTH 16 0
BBX 16 16 0 -2
BITMAP 
0000
18C0
10F8
1510
25FC
7904
69FC
4904
49FC
2904
1104
19FC
24C8
0104
0200
0000
ENDCHAR
STARTCHAR U+5A91
ENCODING 23185
SWIDTH 1000 0
DWIDTH 16 0
BBX 16 16 0 -2
BITMAP 
0000
1818
11E0
17FE
2A20
7DFC
6924
29FC
4924
29FC
1020
1BFC
2420
0026
03D8
0000
ENDCHAR
STARTCHAR U+5A98
ENCODING 23192
SWIDTH 1000 0
DWIDTH 16 0
BBX 16 16 0 -2
BITMAP 
0000
1120
1164
15B8
2520
7964
299C
2840
49BC
2908
11F8
1908
2508
01F0
0000
0000
ENDCHAR
STARTCHAR U+5AA1
ENCODING 23201
SWIDTH 1000 0
DWIDTH 16 0
BBX 16 16 0 -2
BITMAP 
0040
1040
13FE
1440
2644
7BFC
2AD4
4AC4
49FC
28E0
10D0
1948
264C
0400
0000
0000
ENDCHAR
STARTCHAR U+5AA3
ENCODING 23203
SWIDTH 1000 0
DWIDTH 16 0
BBX 16 16 0 -2
BITMAP 
0000
1120
1028
1278
2828
7948
2A8A
4824
4844
29F8
1050
1948
2644
0400
0000
0000
ENDCHAR
STARTCHAR U+5AA8
ENCODING 23208
SWIDTH 1000 0
DWIDTH 16 0
BBX 16 16 0 -2
BITMAP 
0000
1088
1050
17FE
2460
7864
2BBC
4AA4
4A9C
2B04
1204
1A74
2604
05FC
0000
0000
ENDCHAR
STARTCHAR U+5AAB
ENCODING 23211
SWIDTH 1000 0
DWIDTH 16 0
BBX 16 16 0 -2
BITMAP 
0040
1040
107C
1440
2DFC
7808
2BFE
4808
49F8
3140
117C
1B40
22C0
047C
0000
0000
ENDCHAR
STARTCHAR U+5AAD
ENCODING 23213
SWIDTH 1000 0
DWIDTH 16 0
BBX 16 16 0 -2
BITMAP 
0004
09F8
31F8
0508
1928
6148
0D60
319C
0300
7FFE
0420
0C40
03E0
0718
3800
0000
ENDCHAR
STARTCHAR U+5AC3
ENCODING 23235
SWIDTH 1000 0
DWIDTH 16 0
BBX 16 16 0 -2
BITMAP 
0000
1840
13FE
1440
2DB8
7908
29F8
49F8
4908
29F8
110C
1AF0
2488
0304
0000
0000
ENDCHAR
STARTCHAR U+5AC5
ENCODING 23237
SWIDTH 1000 0
DWIDTH 16 0
BBX 16 16 0 -2
BITMAP 
0008
1088
1004
15F8
2C20
78F8
2820
4BFE
4900
310C
11F0
1A20
2620
07FE
0000
0000
ENDCHAR
STARTCHAR U+5ACE
ENCODING 23246
SWIDTH 1000 0
DWIDTH 16 0
BBX 16 16 0 -2
BITMAP 
0000
1820
11FE
1488
2490
79FE
2A44
2820
49DC
2880
10F8
1888
2510
0230
0000
0000
ENDCHAR
STARTCHAR U+5AD1
ENCODING 23249
SWIDTH 1000 0
DWIDTH 16 0
BBX 16 16 0 -2
BITMAP 
0000
3FFC
03C0
0D38
3104
0004
3FF8
1FF8
1288
1FF8
0236
3DE8
1E80
0370
3C00
0000
ENDCHAR
STARTCHAR U+5AD3
ENCODING 23251
SWIDTH 1000 0
DWIDTH 16 0
BBX 16 16 0 -2
BITMAP 
0000
1880
1178
1620
27DC
7A14
2A64
48DC
4800
2A20
11DE
1A20
2620
019E
0000
0000
ENDCHAR
STARTCHAR U+5AE4
ENCODING 23268
SWIDTH 1000 0
DWIDTH 16 0
BBX 16 16 0 -2
BITMAP 
0000
1088
13FE
1498
24E0
7924
2ADC
4A44
49B8
2824
11F8
19FC
2420
03FE
0000
0000
ENDCHAR
STARTCHAR U+5AE7
ENCODING 23271
SWIDTH 1000 0
DWIDTH 16 0
BBX 16 16 0 -2
BITMAP 
0000
1824
11F8
15FC
2420
79DC
29FC
2908
49F8
2908
11F8
19F8
2498
0104
0200
0000
ENDCHAR
STARTCHAR U+5AEF
ENCODING 23279
SWIDTH 1000 0
DWIDTH 16 0
BBX 16 16 0 -2
BITMAP 
0000
3F20
0844
1678
0588
1A10
1710
222E
4440
0224
3DF8
1840
07E0
0618
3800
0000
ENDCHAR
STARTCHAR U+5AF0
ENCODING 23280
SWIDTH 1000 0
DWIDTH 16 0
BBX 16 16 0 -2
BITMAP 
0100
1110
2150
2BA2
2D7C
7FF8
2D50
4D50
5390
3190
1358
2D28
2D24
4146
0000
0000
ENDCHAR
STARTCHAR U+5AF2
ENCODING 23282
SWIDTH 1000 0
DWIDTH 16 0
BBX 16 16 0 -2
BITMAP 
0000
1020
23FE
2288
7E88
2ACC
2A98
4A88
4AD8
5398
35AC
16CE
2CC8
0088
0000
0000
ENDCHAR
STARTCHAR U+5AFC
ENCODING 23292
SWIDTH 1000 0
DWIDTH 16 0
BBX 16 16 0 -2
BITMAP 
0000
19FC
112C
11B4
2724
7D24
28F8
29FC
4820
2824
11D8
1800
2654
0252
0000
0000
ENDCHAR
STARTCHAR U+5AFE
ENCODING 23294
SWIDTH 1000 0
DWIDTH 16 0
BBX 16 16 0 -2
BITMAP 
0000
114C
10C0
17FE
24C0
794C
2908
2908
4AFC
32A8
1DA8
18BE
2508
4208
0000
0000
ENDCHAR
STARTCHAR U+5B04
ENCODING 23300
SWIDTH 1000 0
DWIDTH 16 0
BBX 16 16 0 -2
BITMAP 
0000
1040
13FC
1440
24B8
7BFE
2A04
28F8
49F8
2908
1108
18F8
2490
4026
03D8
0000
ENDCHAR
STARTCHAR U+5B06
ENCODING 23302
SWIDTH 1000 0
DWIDTH 16 0
BBX 16 16 0 -2
BITMAP 
0000
1060
1090
150C
2A60
79F8
2908
29F0
4BFC
30A4
1994
1584
26B4
418C
0000
0000
ENDCHAR
STARTCHAR U+5B0A
ENCODING 23306
SWIDTH 1000 0
DWIDTH 16 0
BBX 16 16 0 -2
BITMAP 
0440
0444
3FF8
03E0
0BD0
7A5E
0A50
1BD2
220C
0236
3DE8
0840
07C0
0638
3800
0000
ENDCHAR
STARTCHAR U+5B0D
ENCODING 23309
SWIDTH 1000 0
DWIDTH 16 0
BBX 16 16 0 -2
BITMAP 
0000
1110
2550
2D54
2FEC
7824
5384
5068
5398
3118
1390
2918
21A8
4606
0000
0000
ENDCHAR
STARTCHAR U+5B0E
ENCODING 23310
SWIDTH 1000 0
DWIDTH 16 0
BBX 16 16 0 -2
BITMAP 
0000
1108
12A8
25A8
2D3E
3FC8
6DC8
4D8C
5398
3188
1188
328E
2C90
48FE
0000
0000
ENDCHAR
STARTCHAR U+5B11
ENCODING 23313
SWIDTH 1000 0
DWIDTH 16 0
BBX 16 16 0 -2
BITMAP 
0000
1820
11FC
1490
1694
7D68
29FC
2908
49F8
29F8
1000
1894
268A
04F8
0000
0000
ENDCHAR
STARTCHAR U+5B12
ENCODING 23314
SWIDTH 1000 0
DWIDTH 16 0
BBX 16 16 0 -2
BITMAP 
0000
1060
1090
1508
2664
7BFC
2A4C
2AC4
4BFC
4908
31F8
19F8
2508
41F8
0000
0000
ENDCHAR
STARTCHAR U+5B15
ENCODING 23317
SWIDTH 1000 0
DWIDTH 16 0
BBX 16 16 0 -2
BITMAP 
0000
13FE
1254
1254
27A8
79FC
2820
29DC
4890
29FC
1020
1BFE
2420
4020
0000
0000
ENDCHAR
STARTCHAR U+5B18
ENCODING 23320
SWIDTH 1000 0
DWIDTH 16 0
BBX 16 16 0 -2
BITMAP 
0000
1048
1220
28FC
2F20
7A64
2A18
4D70
5318
5134
3152
2A50
2A20
45FE
0000
0000
ENDCHAR
STARTCHAR U+5B1C
ENCODING 23324
SWIDTH 1000 0
DWIDTH 16 0
BBX 16 16 0 -2
BITMAP 
1000
7F40
047C
29B8
3E20
2230
3E48
3E04
0100
0224
3DF8
0840
07C0
0638
3800
0000
ENDCHAR
STARTCHAR U+5B1F
ENCODING 23327
SWIDTH 1000 0
DWIDTH 16 0
BBX 16 16 0 -2
BITMAP 
0000
1090
13FC
1440
25F8
7844
29B8
49A4
4924
33D8
1094
1B18
211A
4126
0000
0000
ENDCHAR
STARTCHAR U+5B29
ENCODING 23337
SWIDTH 1000 0
DWIDTH 16 0
BBX 16 16 0 -2
BITMAP 
0000
10C4
134C
2A64
3B44
2A7C
2A24
4BE4
52A8
3268
1208
29F4
2188
4204
0400
0000
ENDCHAR
STARTCHAR U+5B2B
ENCODING 23339
SWIDTH 1000 0
DWIDTH 16 0
BBX 16 16 0 -2
BITMAP 
0000
1148
138C
2910
39DC
2A20
2BFE
4A20
4824
31F8
1030
292C
2222
4020
0000
0000
ENDCHAR
STARTCHAR U+5B31
ENCODING 23345
SWIDTH 1000 0
DWIDTH 16 0
BBX 16 16 0 -2
BITMAP 
0200
1288
0730
2FA4
1FB8
2BA8
2F48
46C8
0320
0224
7DD8
0880
07C0
0638
3800
0000
ENDCHAR
STARTCHAR U+5B33
ENCODING 23347
SWIDTH 1000 0
DWIDTH 16 0
BBX 16 16 0 -2
BITMAP 
1040
1050
11DC
2120
39FC
6928
2BF0
49F8
2924
11D8
1BF8
1490
2060
01DE
0200
0000
ENDCHAR
STARTCHAR U+5B35
ENCODING 23349
SWIDTH 1000 0
DWIDTH 16 0
BBX 16 16 0 -2
BITMAP 
0000
1110
227C
2AC4
2D7C
7B44
497C
4A10
52FE
31DA
145A
2EDA
255E
4018
0000
0000
ENDCHAR
STARTCHAR U+5B39
ENCODING 23353
SWIDTH 1000 0
DWIDTH 16 0
BBX 16 16 0 -2
BITMAP 
0000
11F4
1314
2F74
2B1C
7B54
2B54
4B5C
4B54
3318
1316
28E8
2108
4204
0000
0000
ENDCHAR
STARTCHAR U+5B3A
ENCODING 23354
SWIDTH 1000 0
DWIDTH 16 0
BBX 16 16 0 -2
BITMAP 
0000
13FE
1200
16CC
2A24
7AD8
2AFC
4A48
4A70
31FC
18A0
1494
228A
42FA
0000
0000
ENDCHAR
STARTCHAR U+5B3B
ENCODING 23355
SWIDTH 1000 0
DWIDTH 16 0
BBX 16 16 0 -2
BITMAP 
0000
1024
11F8
15FC
27FC
7A94
2BFC
4900
49F8
31F8
11F8
1908
25F0
418C
0200
0000
ENDCHAR
STARTCHAR U+5B42
ENCODING 23362
SWIDTH 1000 0
DWIDTH 16 0
BBX 16 16 0 -2
BITMAP 
0000
1254
13A8
2C88
2DF8
79F8
2A08
4BFC
4A78
3184
11F8
29A8
21A8
41AE
0250
0000
ENDCHAR
STARTCHAR U+5B44
ENCODING 23364
SWIDTH 1000 0
DWIDTH 16 0
BBX 16 16 0 -2
BITMAP 
0000
17FC
1664
2FFC
3FDC
2C44
2DFC
4C54
55F4
3554
15F4
2CE4
2554
444C
0000
0000
ENDCHAR
STARTCHAR U+5B46
ENCODING 23366
SWIDTH 1000 0
DWIDTH 16 0
BBX 16 16 0 -2
BITMAP 
0000
13BC
12A8
2FB8
2BB8
7AA8
29B0
4A50
4880
37FE
1110
2B20
24F0
408C
0300
0000
ENDCHAR
STARTCHAR U+5B49
ENCODING 23369
SWIDTH 1000 0
DWIDTH 16 0
BBX 16 16 0 -2
BITMAP 
0040
1052
11DC
1440
2BFC
7A64
2998
4924
4AF8
3224
1BF8
15FC
2220
41FE
0000
0000
ENDCHAR
STARTCHAR U+5B4A
ENCODING 23370
SWIDTH 1000 0
DWIDTH 16 0
BBX 16 16 0 -2
BITMAP 
0000
1024
23D8
2B14
2BF8
7B54
4B74
5510
5454
34D8
15DC
2CD0
2B9C
4090
0000
0000
ENDCHAR
STARTCHAR U+5B4F
ENCODING 23375
SWIDTH 1000 0
DWIDTH 16 0
BBX 16 16 0 -2
BITMAP 
0100
1110
238C
2FDC
2E64
7FFC
2FDC
4C54
55E4
35F4
1D54
2DF4
24F4
454C
0000
0000
ENDCHAR
STARTCHAR U+5B60
ENCODING 23392
SWIDTH 1000 0
DWIDTH 16 0
BBX 16 16 0 -2
BITMAP 
0000
1FFC
1FE8
0008
1FC8
1088
1FC8
0008
0FE0
0180
7FFE
0100
0100
0300
0000
0000
ENDCHAR
STARTCHAR U+5B61
ENCODING 23393
SWIDTH 1000 0
DWIDTH 16 0
BBX 16 16 0 -2
BITMAP 
0000
7E20
0240
0440
0888
090C
09F2
0C00
79FC
4908
0908
0908
0908
19F0
0000
0000
ENDCHAR
STARTCHAR U+5B67
ENCODING 23399
SWIDTH 1000 0
DWIDTH 16 0
BBX 16 16 0 -2
BITMAP 
0000
1020
26FC
3C44
0844
3288
3C18
0FF0
0060
0184
7FFE
0100
0100
0300
0000
0000
ENDCHAR
STARTCHAR U+5B6D
ENCODING 23405
SWIDTH 1000 0
DWIDTH 16 0
BBX 16 16 0 -2
BITMAP 
0000
7FFC
0504
0904
09FC
1104
1104
0DFC
7104
1104
11FC
1040
108C
3106
0200
0000
ENDCHAR
STARTCHAR U+5B74
ENCODING 23412
SWIDTH 1000 0
DWIDTH 16 0
BBX 16 16 0 -2
BITMAP 
0000
07E0
01C4
3FF8
0108
1C70
0A24
3CF8
2820
1000
1FF0
1010
1FF0
1FF0
0000
0000
ENDCHAR
STARTCHAR U+5B76
ENCODING 23414
SWIDTH 1000 0
DWIDTH 16 0
BBX 16 16 0 -2
BITMAP 
0800
7EFC
0840
1040
2490
1868
32C4
1C78
07F0
01C0
0104
3FF8
0100
0300
0000
0000
ENDCHAR
STARTCHAR U+5B79
ENCODING 23417
SWIDTH 1000 0
DWIDTH 16 0
BBX 16 16 0 -2
BITMAP 
0040
3E24
2258
3E50
202C
7E24
6278
1C00
07F0
01C4
7FFE
0100
0100
0300
0000
0000
ENDCHAR
STARTCHAR U+5B82
ENCODING 23426
SWIDTH 1000 0
DWIDTH 16 0
BBX 16 16 0 -2
BITMAP 
0000
0100
0100
3FFE
4008
0000
0440
0440
0440
0440
0840
0840
1044
207C
0000
0000
ENDCHAR
STARTCHAR U+5BBB
ENCODING 23483
SWIDTH 1000 0
DWIDTH 16 0
BBX 16 16 0 -2
BITMAP 
0000
0100
3FFC
4004
4020
0FE0
1248
0980
0670
390C
1108
1108
1108
1FF8
0000
0000
ENDCHAR
STARTCHAR U+5BC8
ENCODING 23496
SWIDTH 1000 0
DWIDTH 16 0
BBX 16 16 0 -2
BITMAP 
0200
0100
3FFE
4100
1FF0
1FF8
0100
3EF8
1FF0
1010
1FF0
1FF0
1010
0070
0000
0000
ENDCHAR
STARTCHAR U+5BD5
ENCODING 23509
SWIDTH 1000 0
DWIDTH 16 0
BBX 16 16 0 -2
BITMAP 
0200
0180
3FFC
4000
1FF8
0200
1DF8
1490
1FF0
0004
3FF8
0100
0100
0300
0000
0000
ENDCHAR
STARTCHAR U+5BDC
ENCODING 23516
SWIDTH 1000 0
DWIDTH 16 0
BBX 16 16 0 -2
BITMAP 
0000
0100
3FFC
4104
4480
2448
0380
1FF8
1490
1494
2B68
0100
0100
0300
0000
0000
ENDCHAR
STARTCHAR U+5BED
ENCODING 23533
SWIDTH 1000 0
DWIDTH 16 0
BBX 16 16 0 -2
BITMAP 
0100
0104
7EFC
4108
1FF0
1FF0
1110
1FF0
1FF0
0130
1EC8
0088
2804
47F0
0000
0000
ENDCHAR
STARTCHAR U+5BF7
ENCODING 23543
SWIDTH 1000 0
DWIDTH 16 0
BBX 16 16 0 -2
BITMAP 
0000
0100
7EFE
4730
2D78
2528
2D68
3FF8
0008
1FF0
1FF0
1010
0FE0
7FFC
0000
0000
ENDCHAR
STARTCHAR U+5C00
ENCODING 23552
SWIDTH 1000 0
DWIDTH 16 0
BBX 16 16 0 -2
BITMAP 
0000
2008
3F10
2010
2F14
32F8
3210
3290
3290
3250
2C10
2010
2010
1F30
0000
0000
ENDCHAR
STARTCHAR U+5C1B
ENCODING 23579
SWIDTH 1000 0
DWIDTH 16 0
BBX 16 16 0 -2
BITMAP 
0100
0100
0900
0910
110C
2104
0100
0810
0810
2A50
4994
4992
0910
1830
0000
0000
ENDCHAR
STARTCHAR U+5C21
ENCODING 23585
SWIDTH 1000 0
DWIDTH 16 0
BBX 16 16 0 -2
BITMAP 
0000
11FC
1508
5508
11F8
1108
7FF0
2820
2920
29E4
2938
2920
4D64
499C
0000
0000
ENDCHAR
STARTCHAR U+5C2F
ENCODING 23599
SWIDTH 1000 0
DWIDTH 16 0
BBX 16 16 0 -2
BITMAP 
0000
1090
1170
7E24
11FC
1100
1978
1948
2A48
2A48
2A40
283E
4802
47FC
0000
0000
ENDCHAR
STARTCHAR U+5C43
ENCODING 23619
SWIDTH 1000 0
DWIDTH 16 0
BBX 16 16 0 -2
BITMAP 
0000
2008
3FF8
2008
3FF0
2010
27F0
2410
2490
2490
2490
4510
4220
0418
0800
0000
ENDCHAR
STARTCHAR U+5C52
ENCODING 23634
SWIDTH 1000 0
DWIDTH 16 0
BBX 16 16 0 -2
BITMAP 
0000
1FFC
2008
1FFC
2000
2FFC
2800
2FF0
280C
2FF4
2A58
5220
521C
0300
0000
0000
ENDCHAR
STARTCHAR U+5C57
ENCODING 23639
SWIDTH 1000 0
DWIDTH 16 0
BBX 16 16 0 -2
BITMAP 
0000
3F88
2108
2108
3E7E
2308
2C08
2548
3E28
2408
4F08
4418
4404
03FC
0000
0000
ENDCHAR
STARTCHAR U+5C5F
ENCODING 23647
SWIDTH 1000 0
DWIDTH 16 0
BBX 16 16 0 -2
BITMAP 
0000
3FFC
2008
3FFC
20B0
2524
2FF8
24F0
2408
23F0
3FFE
4280
4698
0886
1000
0000
ENDCHAR
STARTCHAR U+5C6B
ENCODING 23659
SWIDTH 1000 0
DWIDTH 16 0
BBX 16 16 0 -2
BITMAP 
0000
3FFC
2008
3FFC
2470
3444
34F8
34FC
2C50
3DAC
3504
5574
655C
2420
0000
0000
ENDCHAR
STARTCHAR U+5C72
ENCODING 23666
SWIDTH 1000 0
DWIDTH 16 0
BBX 16 16 0 -2
BITMAP 
0000
0018
00E0
3F00
0100
0100
0100
210C
2108
2108
2108
2108
2108
3FF8
0000
0000
ENDCHAR
STARTCHAR U+5C77
ENCODING 23671
SWIDTH 1000 0
DWIDTH 16 0
BBX 16 16 0 -2
BITMAP 
0000
1808
19F0
5A90
5A90
5A90
5A8E
5A84
5A84
5B04
5B04
2604
0408
0018
0000
0000
ENDCHAR
STARTCHAR U+5C78
ENCODING 23672
SWIDTH 1000 0
DWIDTH 16 0
BBX 16 16 0 -2
BITMAP 
0000
1800
19FC
5A20
5A20
5A20
5A20
5A20
5A20
5A20
5A20
2620
0026
01D8
0000
0000
ENDCHAR
STARTCHAR U+5C80
ENCODING 23680
SWIDTH 1000 0
DWIDTH 16 0
BBX 16 16 0 -2
BITMAP 
0000
0100
0100
2100
2108
2108
2108
1EF0
0100
2104
2108
2108
2108
3FF8
0000
0000
ENDCHAR
STARTCHAR U+5C83
ENCODING 23683
SWIDTH 1000 0
DWIDTH 16 0
BBX 16 16 0 -2
BITMAP 
0000
0100
2108
2108
2108
1EF8
0000
3FFC
0208
1208
2208
2408
0808
1030
2000
0000
ENDCHAR
STARTCHAR U+5C84
ENCODING 23684
SWIDTH 1000 0
DWIDTH 16 0
BBX 16 16 0 -2
BITMAP 
0000
1804
18FC
5A84
5A84
5AFC
5A84
5B04
5B04
5BFC
5B04
2704
0204
000C
0000
0000
ENDCHAR
STARTCHAR U+5C85
ENCODING 23685
SWIDTH 1000 0
DWIDTH 16 0
BBX 16 16 0 -2
BITMAP 
0000
1904
19F8
5B00
5B00
5BFC
5B84
5B48
5B48
5B48
5B30
2630
0258
008E
0000
0000
ENDCHAR
STARTCHAR U+5C8E
ENCODING 23694
SWIDTH 1000 0
DWIDTH 16 0
BBX 16 16 0 -2
BITMAP 
0000
1830
18A0
5A90
5B08
5B08
5A06
5AF8
5A88
5A88
5A88
2710
0210
0030
0000
0000
ENDCHAR
STARTCHAR U+5C9E
ENCODING 23710
SWIDTH 1000 0
DWIDTH 16 0
BBX 16 16 0 -2
BITMAP 
0000
1080
1080
54FE
5540
5540
544C
5470
5440
5444
5478
2C40
0040
0040
0000
0000
ENDCHAR
STARTCHAR U+5CB9
ENCODING 23737
SWIDTH 1000 0
DWIDTH 16 0
BBX 16 16 0 -2
BITMAP 
0000
1804
18FC
5A44
5A44
5A44
5A88
5B00
5AFE
5B04
5B04
2704
0104
00FE
0000
0000
ENDCHAR
STARTCHAR U+5CC2
ENCODING 23746
SWIDTH 1000 0
DWIDTH 16 0
BBX 16 16 0 -2
BITMAP 
0000
1040
5088
54F8
5590
5450
5420
5458
5586
5420
5410
6C00
0060
0018
0000
0000
ENDCHAR
STARTCHAR U+5CC3
ENCODING 23747
SWIDTH 1000 0
DWIDTH 16 0
BBX 16 16 0 -2
BITMAP 
0000
0208
1108
0910
0000
3FFE
4008
4108
0100
2108
2108
2108
2108
3FF8
0000
0000
ENDCHAR
STARTCHAR U+5CCD
ENCODING 23757
SWIDTH 1000 0
DWIDTH 16 0
BBX 16 16 0 -2
BITMAP 
0040
1040
11F8
5448
5448
55FC
5448
55F8
5440
55FC
5440
2FFE
0040
0000
0000
0000
ENDCHAR
STARTCHAR U+5CD1
ENCODING 23761
SWIDTH 1000 0
DWIDTH 16 0
BBX 16 16 0 -2
BITMAP 
0000
2108
2108
2108
1EF0
0300
02C0
0C38
7FE4
0100
0110
0FE0
0100
3FFC
0000
0000
ENDCHAR
STARTCHAR U+5CD5
ENCODING 23765
SWIDTH 1000 0
DWIDTH 16 0
BBX 16 16 0 -2
BITMAP 
0100
1108
2108
2108
1FF8
0100
0104
3EF8
0000
1FF8
1010
1FF0
1010
1FF0
0000
0000
ENDCHAR
STARTCHAR U+5CDC
ENCODING 23772
SWIDTH 1000 0
DWIDTH 16 0
BBX 16 16 0 -2
BITMAP 
0000
3108
2108
2108
1EF0
0100
0280
0560
191E
6910
11E0
1100
1100
7FFE
0000
0000
ENDCHAR
STARTCHAR U+5CE2
ENCODING 23778
SWIDTH 1000 0
DWIDTH 16 0
BBX 16 16 0 -2
BITMAP 
0000
1004
11C4
5514
5514
55F4
5654
5654
5454
5494
5494
2D14
0204
000C
0000
0000
ENDCHAR
STARTCHAR U+5CE3
ENCODING 23779
SWIDTH 1000 0
DWIDTH 16 0
BBX 16 16 0 -2
BITMAP 
0080
1080
109C
57F0
5450
5420
54D4
570C
5404
55F8
54A0
7D20
0124
021E
0400
0000
ENDCHAR
STARTCHAR U+5CE7
ENCODING 23783
SWIDTH 1000 0
DWIDTH 16 0
BBX 16 16 0 -2
BITMAP 
0000
1020
1024
54D8
5488
5504
550A
5508
5490
5490
5460
6820
00D8
010C
0200
0000
ENDCHAR
STARTCHAR U+5CEB
ENCODING 23787
SWIDTH 1000 0
DWIDTH 16 0
BBX 16 16 0 -2
BITMAP 
0000
0060
23BC
6AA4
6AA4
6CA8
6CE4
6BA4
69A2
6AA2
6AA4
1CA0
00A0
01A0
0020
0000
ENDCHAR
STARTCHAR U+5CF3
ENCODING 23795
SWIDTH 1000 0
DWIDTH 16 0
BBX 16 16 0 -2
BITMAP 
0100
1108
1108
1108
0EF0
0840
1484
14F8
3590
5490
1450
1420
1450
108E
0100
0000
ENDCHAR
STARTCHAR U+5CF5
ENCODING 23797
SWIDTH 1000 0
DWIDTH 16 0
BBX 16 16 0 -2
BITMAP 
0000
1040
1020
57DE
5640
5444
57FC
5480
54A0
5520
5548
2E44
048C
00F2
0000
0000
ENDCHAR
STARTCHAR U+5CFC
ENCODING 23804
SWIDTH 1000 0
DWIDTH 16 0
BBX 16 16 0 -2
BITMAP 
0000
10A0
1120
5524
55F8
5420
5424
55D8
5400
55FC
5504
2D04
0104
01F8
0000
0000
ENDCHAR
STARTCHAR U+5CFE
ENCODING 23806
SWIDTH 1000 0
DWIDTH 16 0
BBX 16 16 0 -2
BITMAP 
0000
081C
09E0
2100
01FE
0910
1210
2210
0410
0100
0108
2108
2108
1FF8
0000
0000
ENDCHAR
STARTCHAR U+5D04
ENCODING 23812
SWIDTH 1000 0
DWIDTH 16 0
BBX 16 16 0 -2
BITMAP 
0000
1040
5060
5490
5508
5416
54E0
5408
5488
5450
5510
7D20
0020
07FE
0000
0000
ENDCHAR
STARTCHAR U+5D05
ENCODING 23813
SWIDTH 1000 0
DWIDTH 16 0
BBX 16 16 0 -2
BITMAP 
0000
1080
10F8
5510
5620
55FC
5524
55FC
5524
5524
55FC
7A24
0224
0024
0000
0000
ENDCHAR
STARTCHAR U+5D08
ENCODING 23816
SWIDTH 1000 0
DWIDTH 16 0
BBX 16 16 0 -2
BITMAP 
0200
0100
1FFC
2008
0FF0
0004
3FF8
0D20
111C
6104
0100
2108
2108
3FF8
0000
0000
ENDCHAR
STARTCHAR U+5D09
ENCODING 23817
SWIDTH 1000 0
DWIDTH 16 0
BBX 16 16 0 -2
BITMAP 
0000
1020
1024
54A8
54B0
5530
5528
5464
5408
55F8
5508
2DF8
0108
01F8
0000
0000
ENDCHAR
STARTCHAR U+5D0A
ENCODING 23818
SWIDTH 1000 0
DWIDTH 16 0
BBX 16 16 0 -2
BITMAP 
0000
0110
2110
6914
6BF8
6910
6BB0
6BB8
6D58
6D54
6996
7910
0110
0110
0000
0000
ENDCHAR
STARTCHAR U+5D10
ENCODING 23824
SWIDTH 1000 0
DWIDTH 16 0
BBX 16 16 0 -2
BITMAP 
0000
11F8
1108
5508
55F8
5508
55F0
5520
5520
5564
55B8
2D20
0164
019E
0000
0000
ENDCHAR
STARTCHAR U+5D13
ENCODING 23827
SWIDTH 1000 0
DWIDTH 16 0
BBX 16 16 0 -2
BITMAP 
0000
1004
13FC
5224
5A24
5AFC
5A24
5AFC
5A8C
5A8C
5A8C
2AFC
0204
03FC
0000
0000
ENDCHAR
STARTCHAR U+5D1C
ENCODING 23836
SWIDTH 1000 0
DWIDTH 16 0
BBX 16 16 0 -2
BITMAP 
0000
1038
11C0
5440
57FC
5548
5548
57DE
5548
5548
5444
2DF8
0040
07FE
0000
0000
ENDCHAR
STARTCHAR U+5D21
ENCODING 23841
SWIDTH 1000 0
DWIDTH 16 0
BBX 16 16 0 -2
BITMAP 
0000
11F8
1008
5010
5828
5AAC
5A64
5A24
5A74
5AAC
5A24
2AE4
0204
01FC
0000
0000
ENDCHAR
STARTCHAR U+5D2A
ENCODING 23850
SWIDTH 1000 0
DWIDTH 16 0
BBX 16 16 0 -2
BITMAP 
0000
1000
1024
55D8
5488
5490
556C
5600
5420
5424
55F8
2C20
0020
0020
0000
0000
ENDCHAR
STARTCHAR U+5D2C
ENCODING 23852
SWIDTH 1000 0
DWIDTH 16 0
BBX 16 16 0 -2
BITMAP 
0100
1108
2108
1FF8
0100
3FFE
1100
1FF8
1FF8
1108
1FF0
0540
0938
3104
0000
0000
ENDCHAR
STARTCHAR U+5D2F
ENCODING 23855
SWIDTH 1000 0
DWIDTH 16 0
BBX 16 16 0 -2
BITMAP 
0000
1040
10A0
5490
550C
5614
54E0
5440
57FC
5440
5548
2D50
0040
07FE
0000
0000
ENDCHAR
STARTCHAR U+5D3B
ENCODING 23867
SWIDTH 1000 0
DWIDTH 16 0
BBX 16 16 0 -2
BITMAP 
0000
0090
2114
6A78
6810
6914
6928
6A08
6AFE
6A08
6A28
7A28
0208
0018
0000
0000
ENDCHAR
STARTCHAR U+5D44
ENCODING 23876
SWIDTH 1000 0
DWIDTH 16 0
BBX 16 16 0 -2
BITMAP 
0100
1090
1004
54F8
5448
54F0
5440
55FE
5420
5444
55F8
7C50
008C
0106
0200
0000
ENDCHAR
STARTCHAR U+5D4D
ENCODING 23885
SWIDTH 1000 0
DWIDTH 16 0
BBX 16 16 0 -2
BITMAP 
0000
3F20
1446
0C78
3FC8
1630
2420
4458
0D84
0100
2100
2108
2108
3FF8
0000
0000
ENDCHAR
STARTCHAR U+5D4F
ENCODING 23887
SWIDTH 1000 0
DWIDTH 16 0
BBX 16 16 0 -2
BITMAP 
0100
2104
2104
1EF8
1248
11C8
1638
0FE8
0440
0A3C
37F0
0C30
13C0
067E
3800
0000
ENDCHAR
STARTCHAR U+5D53
ENCODING 23891
SWIDTH 1000 0
DWIDTH 16 0
BBX 16 16 0 -2
BITMAP 
0100
1108
2108
2108
1EF8
0FF0
0810
0810
0FF0
0000
7EFC
4284
4284
3F7E
0000
0000
ENDCHAR
STARTCHAR U+5D54
ENCODING 23892
SWIDTH 1000 0
DWIDTH 16 0
BBX 16 16 0 -2
BITMAP 
0100
2108
2108
3EF0
1FF0
1110
0FF0
1110
0EF0
7FFE
1108
1090
1160
3E1E
0000
0000
ENDCHAR
STARTCHAR U+5D56
ENCODING 23894
SWIDTH 1000 0
DWIDTH 16 0
BBX 16 16 0 -2
BITMAP 
0000
1040
504C
55F0
54D0
554C
5640
55F8
5508
55F8
5508
7DF8
4100
07FE
0000
0000
ENDCHAR
STARTCHAR U+5D57
ENCODING 23895
SWIDTH 1000 0
DWIDTH 16 0
BBX 16 16 0 -2
BITMAP 
0100
3108
2108
1FF8
0050
2054
3FE8
2FC8
2248
22D0
2B20
3262
4494
490C
0200
0000
ENDCHAR
STARTCHAR U+5D5A
ENCODING 23898
SWIDTH 1000 0
DWIDTH 16 0
BBX 16 16 0 -2
BITMAP 
0100
1108
2108
1FF8
0040
1340
2C7E
0288
1C28
1220
3C60
1050
1488
1906
0200
0000
ENDCHAR
STARTCHAR U+5D66
ENCODING 23910
SWIDTH 1000 0
DWIDTH 16 0
BBX 16 16 0 -2
BITMAP 
0000
1020
1124
5524
55FC
5404
55F8
5400
55FC
5508
55FC
2C08
0050
03FE
0000
0000
ENDCHAR
STARTCHAR U+5D6E
ENCODING 23918
SWIDTH 1000 0
DWIDTH 16 0
BBX 16 16 0 -2
BITMAP 
0000
1020
13FC
5040
58B8
5A88
5AF8
5AF8
5A88
5AF8
5A04
29F8
0088
0306
0000
0000
ENDCHAR
STARTCHAR U+5D75
ENCODING 23925
SWIDTH 1000 0
DWIDTH 16 0
BBX 16 16 0 -2
BITMAP 
0100
3108
2108
1FF8
0020
4044
79F8
4840
48B8
7814
49F8
4890
7090
0030
0000
0000
ENDCHAR
STARTCHAR U+5D78
ENCODING 23928
SWIDTH 1000 0
DWIDTH 16 0
BBX 16 16 0 -2
BITMAP 
0100
3108
2108
1FF8
0810
0910
31A8
0A44
1040
3140
127C
1240
13C0
147C
0000
0000
ENDCHAR
STARTCHAR U+5D7B
ENCODING 23931
SWIDTH 1000 0
DWIDTH 16 0
BBX 16 16 0 -2
BITMAP 
0000
1020
11FE
5520
55F8
5628
567C
5628
5670
56A8
5620
2EE8
0524
0060
0000
0000
ENDCHAR
STARTCHAR U+5D85
ENCODING 23941
SWIDTH 1000 0
DWIDTH 16 0
BBX 16 16 0 -2
BITMAP 
0800
0920
3E40
3F7E
09C8
36C8
1E30
1210
2268
4584
0100
2104
2104
2104
1EF8
0000
ENDCHAR
STARTCHAR U+5D8E
ENCODING 23950
SWIDTH 1000 0
DWIDTH 16 0
BBX 16 16 0 -2
BITMAP 
0100
3104
2108
1FF8
0100
3F08
2108
3E7C
3F08
2008
2F28
4408
5488
2418
0000
0000
ENDCHAR
STARTCHAR U+5D8F
ENCODING 23951
SWIDTH 1000 0
DWIDTH 16 0
BBX 16 16 0 -2
BITMAP 
0100
3108
2108
1FF8
0004
3FF8
3F7C
2C08
3708
3B7C
3140
5F40
5140
4F7C
0000
0000
ENDCHAR
STARTCHAR U+5D91
ENCODING 23953
SWIDTH 1000 0
DWIDTH 16 0
BBX 16 16 0 -2
BITMAP 
0000
1080
1178
5620
57FE
5624
55F8
5444
57A8
54F0
5730
7C58
0196
0060
0000
0000
ENDCHAR
STARTCHAR U+5D96
ENCODING 23958
SWIDTH 1000 0
DWIDTH 16 0
BBX 16 16 0 -2
BITMAP 
0000
1060
1090
551E
5468
55F8
5508
54F0
55DE
5554
5444
2DCC
0254
00CC
0000
0000
ENDCHAR
STARTCHAR U+5D98
ENCODING 23960
SWIDTH 1000 0
DWIDTH 16 0
BBX 16 16 0 -2
BITMAP 
0080
2104
2108
1EF0
1080
10B8
7D48
1030
1BDC
34A8
50F0
1348
1030
01DC
0200
0000
ENDCHAR
STARTCHAR U+5DA3
ENCODING 23971
SWIDTH 1000 0
DWIDTH 16 0
BBX 16 16 0 -2
BITMAP 
0000
2104
2108
1EF0
0980
1FFC
1100
3FF8
1110
1FE0
1104
1EF8
2044
4244
0000
0000
ENDCHAR
STARTCHAR U+5DA4
ENCODING 23972
SWIDTH 1000 0
DWIDTH 16 0
BBX 16 16 0 -2
BITMAP 
0000
2104
2108
1FF0
1FF0
0100
1EF8
0A20
1C78
3FFC
0004
3FF8
0480
187E
2000
0000
ENDCHAR
STARTCHAR U+5DA5
ENCODING 23973
SWIDTH 1000 0
DWIDTH 16 0
BBX 16 16 0 -2
BITMAP 
0000
07FC
2450
6D50
6D90
6CEC
6EAC
6EB0
6EB0
6FF8
6C98
7D28
0944
0206
0000
0000
ENDCHAR
STARTCHAR U+5DA6
ENCODING 23974
SWIDTH 1000 0
DWIDTH 16 0
BBX 16 16 0 -2
BITMAP 
0080
1090
1170
5626
55D8
554E
5510
55EC
55FC
5500
5678
7EFC
0484
04FC
0000
0000
ENDCHAR
STARTCHAR U+5DB3
ENCODING 23987
SWIDTH 1000 0
DWIDTH 16 0
BBX 16 16 0 -2
BITMAP 
0100
2104
2108
1EF0
3FFC
0D38
16C0
39E0
0698
39A0
0A24
3C78
0920
77FE
0000
0000
ENDCHAR
STARTCHAR U+5DB6
ENCODING 23990
SWIDTH 1000 0
DWIDTH 16 0
BBX 16 16 0 -2
BITMAP 
0100
2104
2108
1EF0
1110
2550
457E
12A8
27A8
6428
2518
2510
2568
0886
0040
0000
ENDCHAR
STARTCHAR U+5DBB
ENCODING 23995
SWIDTH 1000 0
DWIDTH 16 0
BBX 16 16 0 -2
BITMAP 
0080
2104
2108
1EF0
0400
1F48
0446
3FF8
1FA8
2428
3F10
3F90
24EA
3B84
0000
0000
ENDCHAR
STARTCHAR U+5DBE
ENCODING 23998
SWIDTH 1000 0
DWIDTH 16 0
BBX 16 16 0 -2
BITMAP 
0000
11F8
1108
5420
55D8
5444
55B8
55F8
57FE
5408
54F0
2E20
0502
0498
0060
0000
ENDCHAR
STARTCHAR U+5DBF
ENCODING 23999
SWIDTH 1000 0
DWIDTH 16 0
BBX 16 16 0 -2
BITMAP 
0000
1004
11F8
53FE
5AA0
5830
5920
5804
59F8
5BFC
5AA4
2AA4
02A4
02AC
0000
0000
ENDCHAR
STARTCHAR U+5DC1
ENCODING 24001
SWIDTH 1000 0
DWIDTH 16 0
BBX 16 16 0 -2
BITMAP 
0000
13FC
1288
57DC
5680
56FC
56A4
56FC
56F8
5720
57FC
2D3C
0544
010C
0000
0000
ENDCHAR
STARTCHAR U+5DC4
ENCODING 24004
SWIDTH 1000 0
DWIDTH 16 0
BBX 16 16 0 -2
BITMAP 
0000
0120
27FE
68A0
6ABC
6FC4
683C
6BA0
6BBC
6AA4
6CB8
7FBC
4CA0
05A2
001C
0000
ENDCHAR
STARTCHAR U+5DC8
ENCODING 24008
SWIDTH 1000 0
DWIDTH 16 0
BBX 16 16 0 -2
BITMAP 
0100
2104
2108
1EF0
2480
7FFC
2544
3854
7EC4
4BFC
7E44
0AD4
3D44
0A48
0000
0000
ENDCHAR
STARTCHAR U+5DCA
ENCODING 24010
SWIDTH 1000 0
DWIDTH 16 0
BBX 16 16 0 -2
BITMAP 
0000
03BC
22A4
6BBC
6BBC
6AA4
6BB8
6A60
6C40
6FFE
6910
7920
08E0
0198
0200
0000
ENDCHAR
STARTCHAR U+5DD7
ENCODING 24023
SWIDTH 1000 0
DWIDTH 16 0
BBX 16 16 0 -2
BITMAP 
0000
03DE
2264
6BDE
6A06
6BF8
6AD0
6ABE
6B64
6DD4
6DD8
7D48
0FC8
0056
0000
0000
ENDCHAR
STARTCHAR U+5DDA
ENCODING 24026
SWIDTH 1000 0
DWIDTH 16 0
BBX 16 16 0 -2
BITMAP 
0100
2108
3FF8
0880
0FD4
3910
2FFE
3F90
5F90
5F10
5FA8
6BA8
54A8
1586
0000
0000
ENDCHAR
STARTCHAR U+5DDC
ENCODING 24028
SWIDTH 1000 0
DWIDTH 16 0
BBX 16 16 0 -2
BITMAP 
0000
0608
0410
0820
0820
1040
2080
2080
1040
0820
0810
0410
0408
0008
0000
0000
ENDCHAR
STARTCHAR U+5DEA
ENCODING 24042
SWIDTH 1000 0
DWIDTH 16 0
BBX 16 16 0 -2
BITMAP 
0000
3FFC
2000
2010
3FF0
2010
3FF0
2000
2004
1FF8
3FF8
0008
0008
0008
0000
0000
ENDCHAR
STARTCHAR U+5DEC
ENCODING 24044
SWIDTH 1000 0
DWIDTH 16 0
BBX 16 16 0 -2
BITMAP 
0000
02F0
1C90
0890
0910
0D14
730C
0100
1FF8
0100
7FFE
0180
0660
181C
2000
0000
ENDCHAR
STARTCHAR U+5DED
ENCODING 24045
SWIDTH 1000 0
DWIDTH 16 0
BBX 16 16 0 -2
BITMAP 
0000
0220
3CFC
0844
0844
1E84
6308
0100
1FF8
0100
0104
3FF8
0260
0C1E
3000
0000
ENDCHAR
STARTCHAR U+5DF6
ENCODING 24054
SWIDTH 1000 0
DWIDTH 16 0
BBX 16 16 0 -2
BITMAP 
0000
0200
3EFC
1288
1288
2288
4C88
00F0
3E80
4280
4280
4280
4284
3CFE
0000
0000
ENDCHAR
STARTCHAR U+5DFA
ENCODING 24058
SWIDTH 1000 0
DWIDTH 16 0
BBX 16 16 0 -2
BITMAP 
0000
7EFC
4288
4288
7EFC
4080
4480
7878
0004
7FFE
0400
0420
0818
3004
0000
0000
ENDCHAR
STARTCHAR U+5DFC
ENCODING 24060
SWIDTH 1000 0
DWIDTH 16 0
BBX 16 16 0 -2
BITMAP 
0000
3FF8
2110
2110
3EE0
2004
1FFC
0000
3E80
4298
42E0
4280
3E84
00FE
0000
0000
ENDCHAR
STARTCHAR U+5E09
ENCODING 24073
SWIDTH 1000 0
DWIDTH 16 0
BBX 16 16 0 -2
BITMAP 
0000
1030
1090
5490
7D08
5504
5600
55FC
5448
5488
5888
1088
1108
1230
0000
0000
ENDCHAR
STARTCHAR U+5E13
ENCODING 24083
SWIDTH 1000 0
DWIDTH 16 0
BBX 16 16 0 -2
BITMAP 
0000
1020
1020
5424
7CF8
5420
542C
54F0
5460
54B0
5928
122C
1424
1020
0000
0000
ENDCHAR
STARTCHAR U+5E1E
ENCODING 24094
SWIDTH 1000 0
DWIDTH 16 0
BBX 16 16 0 -2
BITMAP 
1000
1004
11F8
5420
7C44
55BC
5504
5504
55FC
5D04
5104
1104
11FC
1104
0000
0000
ENDCHAR
STARTCHAR U+5E2A
ENCODING 24106
SWIDTH 1000 0
DWIDTH 16 0
BBX 16 16 0 -2
BITMAP 
1000
1004
11F8
5500
7DFC
5500
5506
55F8
5686
56A8
5290
1288
14AC
10C6
0000
0000
ENDCHAR
STARTCHAR U+5E2C
ENCODING 24108
SWIDTH 1000 0
DWIDTH 16 0
BBX 16 16 0 -2
BITMAP 
0000
1FF8
0414
3DF8
0808
17F0
2FF0
0810
0FF0
0100
3FF8
2108
2118
0100
0000
0000
ENDCHAR
STARTCHAR U+5E39
ENCODING 24121
SWIDTH 1000 0
DWIDTH 16 0
BBX 16 16 0 -2
BITMAP 
1000
1040
11FC
5508
7C90
5494
5568
5448
57FE
5510
5110
10E0
1058
118C
0200
0000
ENDCHAR
STARTCHAR U+5E3A
ENCODING 24122
SWIDTH 1000 0
DWIDTH 16 0
BBX 16 16 0 -2
BITMAP 
0000
1100
1110
57FC
7D10
5510
55F0
5510
55F0
5D10
53FE
1010
1108
1204
0000
0000
ENDCHAR
STARTCHAR U+5E46
ENCODING 24134
SWIDTH 1000 0
DWIDTH 16 0
BBX 16 16 0 -2
BITMAP 
1000
11F8
1108
55F8
7D08
55F8
5480
55FC
5624
5564
5904
1104
11F4
1018
0000
0000
ENDCHAR
STARTCHAR U+5E48
ENCODING 24136
SWIDTH 1000 0
DWIDTH 16 0
BBX 16 16 0 -2
BITMAP 
0000
11FC
1104
7D04
56F8
5648
5604
5678
5648
5E4E
52F8
1488
1488
1108
0000
0000
ENDCHAR
STARTCHAR U+5E52
ENCODING 24146
SWIDTH 1000 0
DWIDTH 16 0
BBX 16 16 0 -2
BITMAP 
1000
1040
11FE
7E24
564C
5634
5654
5614
55FC
5C20
5094
1282
1480
10F8
0000
0000
ENDCHAR
STARTCHAR U+5E5A
ENCODING 24154
SWIDTH 1000 0
DWIDTH 16 0
BBX 16 16 0 -2
BITMAP 
0800
0A7C
1C50
3F48
0948
3F48
0210
0DF0
0FF0
0FF0
2100
3FF8
2108
2108
0000
0000
ENDCHAR
STARTCHAR U+5E65
ENCODING 24165
SWIDTH 1000 0
DWIDTH 16 0
BBX 16 16 0 -2
BITMAP 
0000
1124
10A8
7DFE
5700
55F0
5508
54F8
57E0
5844
51F8
17FE
1040
10C0
0000
0000
ENDCHAR
STARTCHAR U+5E71
ENCODING 24177
SWIDTH 1000 0
DWIDTH 16 0
BBX 16 16 0 -2
BITMAP 
0000
13DE
1252
7BDE
5A5E
5BA2
5AFA
5A2A
5BFA
5B6A
52BA
1272
12A2
1226
0000
0000
ENDCHAR
STARTCHAR U+5E85
ENCODING 24197
SWIDTH 1000 0
DWIDTH 16 0
BBX 16 16 0 -2
BITMAP 
0000
0080
2084
3F78
2080
2100
2120
2240
2480
2100
2208
2404
4FFC
4804
0000
0000
ENDCHAR
STARTCHAR U+5E92
ENCODING 24210
SWIDTH 1000 0
DWIDTH 16 0
BBX 16 16 0 -2
BITMAP 
0000
0100
0084
3F78
2000
2080
2080
2090
27E0
2080
2090
2088
4084
4F78
0000
0000
ENDCHAR
STARTCHAR U+5E98
ENCODING 24216
SWIDTH 1000 0
DWIDTH 16 0
BBX 16 16 0 -2
BITMAP 
0000
0080
0042
1FBC
1000
1FFC
1888
17F8
1888
1888
17F8
2080
2080
0000
0000
0000
ENDCHAR
STARTCHAR U+5E9D
ENCODING 24221
SWIDTH 1000 0
DWIDTH 16 0
BBX 16 16 0 -2
BITMAP 
0000
0080
3FFC
2000
2110
22F0
2620
21C0
21B8
2E04
20E0
4000
43C0
4020
0000
0000
ENDCHAR
STARTCHAR U+5EA1
ENCODING 24225
SWIDTH 1000 0
DWIDTH 16 0
BBX 16 16 0 -2
BITMAP 
0000
0084
3FFE
2000
2080
208C
2770
2104
2248
2E30
2220
4210
428C
0304
0000
0000
ENDCHAR
STARTCHAR U+5EA9
ENCODING 24233
SWIDTH 1000 0
DWIDTH 16 0
BBX 16 16 0 -2
BITMAP 
0100
0084
3FFE
2080
2140
2220
243E
39C0
2088
27F0
20A0
4498
4884
1180
0000
0000
ENDCHAR
STARTCHAR U+5EAF
ENCODING 24239
SWIDTH 1000 0
DWIDTH 16 0
BBX 16 16 0 -2
BITMAP 
0100
0080
3FFE
20A0
2090
2FE8
2088
2FF8
2888
2FF8
2888
4FF8
4888
4898
0000
0000
ENDCHAR
STARTCHAR U+5EBA
ENCODING 24250
SWIDTH 1000 0
DWIDTH 16 0
BBX 16 16 0 -2
BITMAP 
0000
0080
3FFE
2010
2230
2488
2104
2218
27E8
2080
2FF8
22A0
4498
5884
0000
0000
ENDCHAR
STARTCHAR U+5EBB
ENCODING 24251
SWIDTH 1000 0
DWIDTH 16 0
BBX 16 16 0 -2
BITMAP 
0000
0080
3FFC
2000
2220
3FFC
2220
2220
23E0
2000
2420
2A50
5148
4088
0000
0000
ENDCHAR
STARTCHAR U+5EBC
ENCODING 24252
SWIDTH 1000 0
DWIDTH 16 0
BBX 16 16 0 -2
BITMAP 
0100
0084
3FFE
2004
28F8
2844
28BC
2EA4
28A4
28A4
2AA4
4CA0
4048
4186
0200
0000
ENDCHAR
STARTCHAR U+5EC0
ENCODING 24256
SWIDTH 1000 0
DWIDTH 16 0
BBX 16 16 0 -2
BITMAP 
0100
0080
3FFC
2080
2FFC
3880
2490
23A0
2270
2C1C
47E0
4340
43E0
3C1C
0000
0000
ENDCHAR
STARTCHAR U+5ECD
ENCODING 24269
SWIDTH 1000 0
DWIDTH 16 0
BBX 16 16 0 -2
BITMAP 
0000
0084
3FFE
2400
22BC
2DA4
2928
2528
2AA4
28A2
4FA2
48A2
48A4
0F20
0000
0000
ENDCHAR
STARTCHAR U+5EE4
ENCODING 24292
SWIDTH 1000 0
DWIDTH 16 0
BBX 16 16 0 -2
BITMAP 
0000
0084
3F78
2084
2FF8
2FFC
2FF8
2FF8
2084
2FF8
2F44
5158
5160
0F3E
0000
0000
ENDCHAR
STARTCHAR U+5EED
ENCODING 24301
SWIDTH 1000 0
DWIDTH 16 0
BBX 16 16 0 -2
BITMAP 
0100
0084
3F78
2620
2CF8
26FC
3E24
24D8
2FFC
2DF8
54F8
2508
44F0
048C
0100
0000
ENDCHAR
STARTCHAR U+5EF5
ENCODING 24309
SWIDTH 1000 0
DWIDTH 16 0
BBX 16 16 0 -2
BITMAP 
0000
0804
38A4
1124
1148
2250
1E90
0A48
0928
2924
3094
1000
2C00
43FC
0000
0000
ENDCHAR
STARTCHAR U+5EF9
ENCODING 24313
SWIDTH 1000 0
DWIDTH 16 0
BBX 16 16 0 -2
BITMAP 
0000
0820
3840
11BC
1104
2104
3F04
05FC
0504
2904
19FC
1104
2C00
03FC
0000
0000
ENDCHAR
STARTCHAR U+5EFD
ENCODING 24317
SWIDTH 1000 0
DWIDTH 16 0
BBX 16 16 0 -2
BITMAP 
0000
0800
33FC
1294
1294
22F4
3E94
0AF4
0A94
2A94
336C
1200
2C00
03FC
0000
0000
ENDCHAR
STARTCHAR U+5F1E
ENCODING 24350
SWIDTH 1000 0
DWIDTH 16 0
BBX 16 16 0 -2
BITMAP 
0000
0480
3C80
0504
05FC
3A28
2240
4440
3C60
0460
0450
0490
0908
180E
0000
0000
ENDCHAR
STARTCHAR U+5F32
ENCODING 24370
SWIDTH 1000 0
DWIDTH 16 0
BBX 16 16 0 -2
BITMAP 
0000
05FC
3908
0908
09F0
3004
41FC
41C4
3934
0904
09FC
0904
0A04
1A0C
0000
0000
ENDCHAR
STARTCHAR U+5F42
ENCODING 24386
SWIDTH 1000 0
DWIDTH 16 0
BBX 16 16 0 -2
BITMAP 
0000
0208
1290
0284
3D78
3C00
04FC
3D20
2020
45FE
3C20
0448
0444
1882
0100
0000
ENDCHAR
STARTCHAR U+5F5A
ENCODING 24410
SWIDTH 1000 0
DWIDTH 16 0
BBX 16 16 0 -2
BITMAP 
0000
0FF0
1FE0
0024
3FFC
4004
4FF0
1110
1FF0
0FF0
0104
3FF8
0D60
311C
0000
0000
ENDCHAR
STARTCHAR U+5F5E
ENCODING 24414
SWIDTH 1000 0
DWIDTH 16 0
BBX 16 16 0 -2
BITMAP 
0000
0FF0
0FF0
0014
3FE8
0A48
1CB0
2ACC
2A78
48A4
0020
7FFE
0420
0820
1000
0000
ENDCHAR
STARTCHAR U+5F5F
ENCODING 24415
SWIDTH 1000 0
DWIDTH 16 0
BBX 16 16 0 -2
BITMAP 
0000
3E4C
02F8
0290
1EFE
0314
3FF8
00FE
0912
3CEC
09FC
2848
0830
185E
0180
0000
ENDCHAR
STARTCHAR U+5F68
ENCODING 24424
SWIDTH 1000 0
DWIDTH 16 0
BBX 16 16 0 -2
BITMAP 
0000
018C
3E08
0030
7780
5484
5488
7690
75A0
5580
5484
5488
5490
54E0
0000
0000
ENDCHAR
STARTCHAR U+5F6E
ENCODING 24430
SWIDTH 1000 0
DWIDTH 16 0
BBX 16 16 0 -2
BITMAP 
0000
0804
0888
7730
5200
2104
4C08
1330
2180
3F04
210C
2108
2110
3E60
0000
0000
ENDCHAR
STARTCHAR U+5F8E
ENCODING 24462
SWIDTH 1000 0
DWIDTH 16 0
BBX 16 16 0 -2
BITMAP 
0000
0A00
13F8
2208
4208
0BFC
1200
3038
11C0
1040
13FC
1040
1044
17FE
0000
0000
ENDCHAR
STARTCHAR U+5F94
ENCODING 24468
SWIDTH 1000 0
DWIDTH 16 0
BBX 16 16 0 -2
BITMAP 
0100
0910
17BE
2110
4800
0840
1048
31B8
5010
1020
1040
1180
1300
14FC
0000
0000
ENDCHAR
STARTCHAR U+5F9A
ENCODING 24474
SWIDTH 1000 0
DWIDTH 16 0
BBX 16 16 0 -2
BITMAP 
0000
1840
1044
23F8
0844
0FFC
1454
34C4
53FC
10E0
1160
1158
124E
1440
0000
0000
ENDCHAR
STARTCHAR U+5FA3
ENCODING 24483
SWIDTH 1000 0
DWIDTH 16 0
BBX 16 16 0 -2
BITMAP 
0000
0900
1120
27FC
4920
0920
17FE
3000
53F8
1208
1208
13F8
1208
13F8
0000
0000
ENDCHAR
STARTCHAR U+5FBA
ENCODING 24506
SWIDTH 1000 0
DWIDTH 16 0
BBX 16 16 0 -2
BITMAP 
0000
1040
13F8
2044
43B8
1110
17BC
3110
662C
2004
27F8
2120
2120
223E
0000
0000
ENDCHAR
STARTCHAR U+5FC2
ENCODING 24514
SWIDTH 1000 0
DWIDTH 16 0
BBX 16 16 0 -2
BITMAP 
0000
17BC
14A4
27BC
0FBC
14A4
1778
2244
63F8
27FC
2240
23FC
2240
23FE
0000
0000
ENDCHAR
STARTCHAR U+5FCA
ENCODING 24522
SWIDTH 1000 0
DWIDTH 16 0
BBX 16 16 0 -2
BITMAP 
0000
1004
13FE
1020
1C20
5420
5020
5020
1020
1020
1020
1020
1020
0060
0000
0000
ENDCHAR
STARTCHAR U+5FCE
ENCODING 24526
SWIDTH 1000 0
DWIDTH 16 0
BBX 16 16 0 -2
BITMAP 
0000
00F0
1F00
0100
010C
3FF0
0100
0100
0000
0480
244C
4404
4410
07F0
0000
0000
ENDCHAR
STARTCHAR U+5FDA
ENCODING 24538
SWIDTH 1000 0
DWIDTH 16 0
BBX 16 16 0 -2
BITMAP 
0000
1040
1240
1240
1A4C
5678
53C8
5248
1248
1248
1200
1200
1204
11FC
0000
0000
ENDCHAR
STARTCHAR U+5FDB
ENCODING 24539
SWIDTH 1000 0
DWIDTH 16 0
BBX 16 16 0 -2
BITMAP 
0000
1000
11F0
1210
1A10
5710
5290
1250
1250
1210
1210
1210
1410
101E
0000
0000
ENDCHAR
STARTCHAR U+5FDF
ENCODING 24543
SWIDTH 1000 0
DWIDTH 16 0
BBX 16 16 0 -2
BITMAP 
0000
1000
1040
1044
19B8
5408
5110
1110
1110
10A0
1060
1060
1090
130E
0000
0000
ENDCHAR
STARTCHAR U+5FE6
ENCODING 24550
SWIDTH 1000 0
DWIDTH 16 0
BBX 16 16 0 -2
BITMAP 
0000
1040
1040
10A0
1890
550C
5210
1490
1090
1090
1090
1110
1110
1210
0000
0000
ENDCHAR
STARTCHAR U+5FF9
ENCODING 24569
SWIDTH 1000 0
DWIDTH 16 0
BBX 16 16 0 -2
BITMAP 
0000
1000
13FC
1040
1840
5440
5040
57FE
1040
1040
1040
1040
1044
13B8
0000
0000
ENDCHAR
STARTCHAR U+6008
ENCODING 24584
SWIDTH 1000 0
DWIDTH 16 0
BBX 16 16 0 -2
BITMAP 
0000
2048
2248
3248
2A4C
63F8
6248
2248
2248
2248
2230
2200
2204
01F8
0000
0000
ENDCHAR
STARTCHAR U+6023
ENCODING 24611
SWIDTH 1000 0
DWIDTH 16 0
BBX 16 16 0 -2
BITMAP 
0000
0900
0918
17E0
0100
7FFC
0280
0270
0C0C
7000
0488
2404
2424
07E0
0000
0000
ENDCHAR
STARTCHAR U+6030
ENCODING 24624
SWIDTH 1000 0
DWIDTH 16 0
BBX 16 16 0 -2
BITMAP 
0000
1040
1020
13FE
1880
5088
5110
1210
13E0
1040
1080
1108
121C
13E4
0000
0000
ENDCHAR
STARTCHAR U+6036
ENCODING 24630
SWIDTH 1000 0
DWIDTH 16 0
BBX 16 16 0 -2
BITMAP 
0040
1040
1040
13FC
1A48
5240
5240
13BC
1308
1290
1250
1420
1450
118E
0000
0000
ENDCHAR
STARTCHAR U+6038
ENCODING 24632
SWIDTH 1000 0
DWIDTH 16 0
BBX 16 16 0 -2
BITMAP 
0100
0130
0104
3FF8
0340
0520
0910
310E
0100
0000
0480
2484
2424
47E0
0000
0000
ENDCHAR
STARTCHAR U+603D
ENCODING 24637
SWIDTH 1000 0
DWIDTH 16 0
BBX 16 16 0 -2
BITMAP 
0040
1040
1040
1048
19F0
5440
5044
17FE
10C0
10E0
1150
1248
144E
1040
0000
0000
ENDCHAR
STARTCHAR U+603E
ENCODING 24638
SWIDTH 1000 0
DWIDTH 16 0
BBX 16 16 0 -2
BITMAP 
0000
1000
13FC
1208
1A08
5608
5208
1208
13F8
1000
1090
1108
1204
1004
0000
0000
ENDCHAR
STARTCHAR U+604E
ENCODING 24654
SWIDTH 1000 0
DWIDTH 16 0
BBX 16 16 0 -2
BITMAP 
0000
1004
11F8
1090
1908
5204
53FC
1040
1040
13FC
1040
1040
1040
17FE
0000
0000
ENDCHAR
STARTCHAR U+604F
ENCODING 24655
SWIDTH 1000 0
DWIDTH 16 0
BBX 16 16 0 -2
BITMAP 
0800
08FC
0A08
7610
1220
25FE
1C20
0E20
1260
6420
0480
2484
2424
47F0
0000
0000
ENDCHAR
STARTCHAR U+605C
ENCODING 24668
SWIDTH 1000 0
DWIDTH 16 0
BBX 16 16 0 -2
BITMAP 
0020
1024
1024
1024
19F8
5020
5020
13A0
1110
1110
1110
17C8
140A
1006
0000
0000
ENDCHAR
STARTCHAR U+6074
ENCODING 24692
SWIDTH 1000 0
DWIDTH 16 0
BBX 16 16 0 -2
BITMAP 
0200
0100
7FFE
0000
1FF8
1010
1FF0
1010
1FF0
1000
0488
2484
2424
47F0
0000
0000
ENDCHAR
STARTCHAR U+608F
ENCODING 24719
SWIDTH 1000 0
DWIDTH 16 0
BBX 16 16 0 -2
BITMAP 
0000
1040
1040
1FFE
1840
5148
5250
135C
1040
10A0
10A0
1110
1108
1206
0400
0000
ENDCHAR
STARTCHAR U+6099
ENCODING 24729
SWIDTH 1000 0
DWIDTH 16 0
BBX 16 16 0 -2
BITMAP 
0000
1040
1046
13B8
19F8
5208
51F8
1000
11F8
1030
1040
1040
1040
10C0
0000
0000
ENDCHAR
STARTCHAR U+60A1
ENCODING 24737
SWIDTH 1000 0
DWIDTH 16 0
BBX 16 16 0 -2
BITMAP 
0000
0E28
1848
0948
3E48
1E48
1908
2808
0018
0000
0488
2404
2424
07E0
0000
0000
ENDCHAR
STARTCHAR U+60AE
ENCODING 24750
SWIDTH 1000 0
DWIDTH 16 0
BBX 16 16 0 -2
BITMAP 
0000
1208
13F8
1208
1A08
51F0
5000
11F8
1040
1044
13F8
1090
110C
1202
0400
0000
ENDCHAR
STARTCHAR U+60D0
ENCODING 24784
SWIDTH 1000 0
DWIDTH 16 0
BBX 16 16 0 -2
BITMAP 
0000
1024
1020
17FE
1820
58A4
57A4
14A4
1498
1318
1010
17E8
144A
1086
0000
0000
ENDCHAR
STARTCHAR U+60D2
ENCODING 24786
SWIDTH 1000 0
DWIDTH 16 0
BBX 16 16 0 -2
BITMAP 
0000
0F00
187C
0988
3E88
1C88
2A88
4888
0870
0100
0480
2404
2422
47F0
0000
0000
ENDCHAR
STARTCHAR U+60D6
ENCODING 24790
SWIDTH 1000 0
DWIDTH 16 0
BBX 16 16 0 -2
BITMAP 
0000
0FF0
0FF0
0810
0FF4
7FFE
0808
17F8
2488
0938
1100
0880
2814
47F0
0000
0000
ENDCHAR
STARTCHAR U+60D7
ENCODING 24791
SWIDTH 1000 0
DWIDTH 16 0
BBX 16 16 0 -2
BITMAP 
0040
1040
10A0
1090
1908
5AF4
5000
11F8
1010
1000
1140
1524
1512
11F8
0000
0000
ENDCHAR
STARTCHAR U+60EA
ENCODING 24810
SWIDTH 1000 0
DWIDTH 16 0
BBX 16 16 0 -2
BITMAP 
0100
0108
1FF0
0FF0
0810
0FF0
0FF0
0810
0FF0
7FFE
0480
0444
2424
47F0
0000
0000
ENDCHAR
STARTCHAR U+6125
ENCODING 24869
SWIDTH 1000 0
DWIDTH 16 0
BBX 16 16 0 -2
BITMAP 
0000
1100
17FE
1110
1950
5648
53F8
1248
124C
15F0
1080
1090
110C
1204
0400
0000
ENDCHAR
STARTCHAR U+612D
ENCODING 24877
SWIDTH 1000 0
DWIDTH 16 0
BBX 16 16 0 -2
BITMAP 
0080
1084
13F8
1090
5FFE
5148
51B0
17C4
10F8
11FC
1108
11F8
1108
11F8
0000
0000
ENDCHAR
STARTCHAR U+6133
ENCODING 24883
SWIDTH 1000 0
DWIDTH 16 0
BBX 16 16 0 -2
BITMAP 
0000
3EF8
2288
2288
3EF8
2288
3EF8
2288
3EF8
0000
0000
2884
2804
47F0
0000
0000
ENDCHAR
STARTCHAR U+6138
ENCODING 24888
SWIDTH 1000 0
DWIDTH 16 0
BBX 16 16 0 -2
BITMAP 
0000
0820
0920
3E7E
3B24
5824
0C44
1B44
2988
0000
0008
2884
2804
47F0
0000
0000
ENDCHAR
STARTCHAR U+613A
ENCODING 24890
SWIDTH 1000 0
DWIDTH 16 0
BBX 16 16 0 -2
BITMAP 
0000
1100
17FE
1110
1800
5BF8
5208
13F8
1208
13F8
1044
13F8
1040
1040
0000
0000
ENDCHAR
STARTCHAR U+6143
ENCODING 24899
SWIDTH 1000 0
DWIDTH 16 0
BBX 16 16 0 -2
BITMAP 
0000
1070
1110
124C
1094
5918
59E8
17FC
1084
1194
1084
13A4
1444
118C
0000
0000
ENDCHAR
STARTCHAR U+6150
ENCODING 24912
SWIDTH 1000 0
DWIDTH 16 0
BBX 16 16 0 -2
BITMAP 
0000
3FF8
0104
3EF8
1FF8
1FF0
1010
1FF0
1FF0
0660
1918
2080
280C
47F4
0000
0000
ENDCHAR
STARTCHAR U+6157
ENCODING 24919
SWIDTH 1000 0
DWIDTH 16 0
BBX 16 16 0 -2
BITMAP 
0000
0820
7FC0
097C
3F08
2928
3E10
1E28
2944
0880
0480
240C
2424
47F0
0000
0000
ENDCHAR
STARTCHAR U+615C
ENCODING 24924
SWIDTH 1000 0
DWIDTH 16 0
BBX 16 16 0 -2
BITMAP 
0000
1020
2F44
1F78
2508
2188
3F10
2618
1B64
0380
0480
2404
2414
47F0
0000
0000
ENDCHAR
STARTCHAR U+6169
ENCODING 24937
SWIDTH 1000 0
DWIDTH 16 0
BBX 16 16 0 -2
BITMAP 
0000
2020
2424
22F8
30A4
62FC
62FC
24A4
23FC
2220
22FE
2420
2420
2BFE
0000
0000
ENDCHAR
STARTCHAR U+616D
ENCODING 24941
SWIDTH 1000 0
DWIDTH 16 0
BBX 16 16 0 -2
BITMAP 
0800
0914
3E10
2926
0A58
7FB0
1C30
2A48
0984
0904
0900
0888
2804
47F0
0000
0000
ENDCHAR
STARTCHAR U+6185
ENCODING 24965
SWIDTH 1000 0
DWIDTH 16 0
BBX 16 16 0 -2
BITMAP 
0000
0E00
1920
3E7C
3F24
3F24
3F24
0924
1E44
7E98
0800
0884
2804
47F0
0000
0000
ENDCHAR
STARTCHAR U+6186
ENCODING 24966
SWIDTH 1000 0
DWIDTH 16 0
BBX 16 16 0 -2
BITMAP 
0000
1040
1148
1850
1BFE
5400
51F8
1110
1110
11E0
1048
11F0
1040
17FE
0000
0000
ENDCHAR
STARTCHAR U+6188
ENCODING 24968
SWIDTH 1000 0
DWIDTH 16 0
BBX 16 16 0 -2
BITMAP 
0000
1040
1078
1044
1FFC
5C70
54C0
147C
1450
1554
1554
1554
18D8
1BFE
0000
0000
ENDCHAR
STARTCHAR U+618F
ENCODING 24975
SWIDTH 1000 0
DWIDTH 16 0
BBX 16 16 0 -2
BITMAP 
0000
1100
11CE
1368
1C90
5B88
5114
12E0
1004
13F8
1150
1148
1244
1000
0000
0000
ENDCHAR
STARTCHAR U+6195
ENCODING 24981
SWIDTH 1000 0
DWIDTH 16 0
BBX 16 16 0 -2
BITMAP 
0000
1048
11B0
12A4
1918
5A3C
5440
11F8
1108
1108
11F0
1110
10A4
17FE
0000
0000
ENDCHAR
STARTCHAR U+619E
ENCODING 24990
SWIDTH 1000 0
DWIDTH 16 0
BBX 16 16 0 -2
BITMAP 
0000
0210
2150
2690
779E
6CA4
6784
20A8
23A8
2118
2290
2F10
2228
0244
0000
0000
ENDCHAR
STARTCHAR U+61A3
ENCODING 24995
SWIDTH 1000 0
DWIDTH 16 0
BBX 16 16 0 -2
BITMAP 
0000
1018
13E0
1148
1854
5BE8
50F0
134C
1648
13F8
1248
13F8
1248
13F8
0000
0000
ENDCHAR
STARTCHAR U+61A6
ENCODING 24998
SWIDTH 1000 0
DWIDTH 16 0
BBX 16 16 0 -2
BITMAP 
0000
0108
218C
2310
3318
6884
6020
2FFC
2840
27F8
2088
2088
2110
0230
0400
0000
ENDCHAR
STARTCHAR U+61BB
ENCODING 25019
SWIDTH 1000 0
DWIDTH 16 0
BBX 16 16 0 -2
BITMAP 
0000
1040
17FC
1000
5BF8
56F8
52F8
13F8
1000
11F8
11F0
1110
11E0
17FE
0000
0000
ENDCHAR
STARTCHAR U+61BD
ENCODING 25021
SWIDTH 1000 0
DWIDTH 16 0
BBX 16 16 0 -2
BITMAP 
0000
1100
17FE
1110
1900
56FC
54A4
1968
1258
1098
1050
1124
150A
15F8
0000
0000
ENDCHAR
STARTCHAR U+61C4
ENCODING 25028
SWIDTH 1000 0
DWIDTH 16 0
BBX 16 16 0 -2
BITMAP 
0000
2480
2FF0
2490
3710
655E
67D4
2554
2794
27D4
2124
27A4
21C4
2E0C
0000
0000
ENDCHAR
STARTCHAR U+61D3
ENCODING 25043
SWIDTH 1000 0
DWIDTH 16 0
BBX 16 16 0 -2
BITMAP 
0000
0078
23C4
2048
2BFC
6504
6324
24F4
2080
21F0
2210
25A0
2060
019C
0600
0000
ENDCHAR
STARTCHAR U+61D7
ENCODING 25047
SWIDTH 1000 0
DWIDTH 16 0
BBX 16 16 0 -2
BITMAP 
0000
0210
2294
2F38
2A10
6FFE
6528
2568
25EC
2D6C
2DAA
294A
2948
0398
0000
0000
ENDCHAR
STARTCHAR U+61D9
ENCODING 25049
SWIDTH 1000 0
DWIDTH 16 0
BBX 16 16 0 -2
BITMAP 
0000
175C
14A4
14C4
1E8C
5C68
5328
12A8
12A8
12C8
1534
1100
1108
1604
0000
0000
ENDCHAR
STARTCHAR U+61DA
ENCODING 25050
SWIDTH 1000 0
DWIDTH 16 0
BBX 16 16 0 -2
BITMAP 
0000
1038
11C4
1148
18F8
5044
53B8
17FE
1008
11F0
1000
1124
1502
14F8
0000
0000
ENDCHAR
STARTCHAR U+61DB
ENCODING 25051
SWIDTH 1000 0
DWIDTH 16 0
BBX 16 16 0 -2
BITMAP 
0000
1040
17FC
1048
1BF8
5208
55F6
1800
13F8
1110
13E8
1048
11F0
17FE
0000
0000
ENDCHAR
STARTCHAR U+61F3
ENCODING 25075
SWIDTH 1000 0
DWIDTH 16 0
BBX 16 16 0 -2
BITMAP 
0000
1110
13FC
1394
1918
5FBC
5008
11F8
17FE
1008
11F0
1120
1504
15F8
0000
0000
ENDCHAR
STARTCHAR U+6202
ENCODING 25090
SWIDTH 1000 0
DWIDTH 16 0
BBX 16 16 0 -2
BITMAP 
0000
1020
27FE
2510
37FC
6F54
6754
2536
2440
25F8
25DC
24A0
2B9E
0800
0000
0000
ENDCHAR
STARTCHAR U+6205
ENCODING 25093
SWIDTH 1000 0
DWIDTH 16 0
BBX 16 16 0 -2
BITMAP 
1000
0878
3624
15FC
2A84
3EFC
3EFC
3E00
7F70
088C
0000
0884
2800
47E0
0000
0000
ENDCHAR
STARTCHAR U+6228
ENCODING 25128
SWIDTH 1000 0
DWIDTH 16 0
BBX 16 16 0 -2
BITMAP 
0000
0120
7E28
3E20
2A24
2A78
1224
FFA4
0228
3A28
2A10
3A30
0248
0604
0000
0000
ENDCHAR
STARTCHAR U+6235
ENCODING 25141
SWIDTH 1000 0
DWIDTH 16 0
BBX 16 16 0 -2
BITMAP 
0000
7720
5528
7720
7726
5578
6324
2524
3E24
6518
3E18
3F10
242C
3F84
0000
0000
ENDCHAR
STARTCHAR U+623C
ENCODING 25148
SWIDTH 1000 0
DWIDTH 16 0
BBX 16 16 0 -2
BITMAP 
0000
0204
3EF8
0280
0280
3EFC
2288
2288
2288
3CF0
0480
0480
0880
3000
0000
0000
ENDCHAR
STARTCHAR U+6245
ENCODING 25157
SWIDTH 1000 0
DWIDTH 16 0
BBX 16 16 0 -2
BITMAP 
0000
0078
3F80
1FFC
2008
1FFC
2100
22F0
2D40
21E4
269C
2398
44A0
41C0
0E00
0000
ENDCHAR
STARTCHAR U+624F
ENCODING 25167
SWIDTH 1000 0
DWIDTH 16 0
BBX 16 16 0 -2
BITMAP 
0000
1080
1080
1480
3890
11F0
1090
1890
3090
5090
1110
1110
1214
300E
0000
0000
ENDCHAR
STARTCHAR U+6257
ENCODING 25175
SWIDTH 1000 0
DWIDTH 16 0
BBX 16 16 0 -2
BITMAP 
0000
0040
1040
1040
7C40
1040
11FC
1440
3840
5040
1040
1040
1040
37FE
0000
0000
ENDCHAR
STARTCHAR U+625D
ENCODING 25181
SWIDTH 1000 0
DWIDTH 16 0
BBX 16 16 0 -2
BITMAP 
0000
0008
11F8
1000
1404
39F8
1080
1480
18FC
7008
1008
1008
1008
1030
1000
0000
ENDCHAR
STARTCHAR U+625F
ENCODING 25183
SWIDTH 1000 0
DWIDTH 16 0
BBX 16 16 0 -2
BITMAP 
0000
1008
11F8
1488
3888
1088
1088
1BE8
7088
1088
1088
1088
1086
3086
0000
0000
ENDCHAR
STARTCHAR U+6275
ENCODING 25205
SWIDTH 1000 0
DWIDTH 16 0
BBX 16 16 0 -2
BITMAP 
0000
0060
1060
1060
7E90
1090
1108
1A46
1020
7000
1000
1000
1060
3010
0000
0000
ENDCHAR
STARTCHAR U+6278
ENCODING 25208
SWIDTH 1000 0
DWIDTH 16 0
BBX 16 16 0 -2
BITMAP 
0000
0884
0888
0888
7E88
08FC
0880
0C80
38FC
4908
0908
0908
0A08
3A08
0000
0000
ENDCHAR
STARTCHAR U+6285
ENCODING 25221
SWIDTH 1000 0
DWIDTH 16 0
BBX 16 16 0 -2
BITMAP 
0000
00C0
1080
1084
7F7C
1204
1084
1504
3924
5224
13D4
1004
1008
3018
0000
0000
ENDCHAR
STARTCHAR U+628B
ENCODING 25227
SWIDTH 1000 0
DWIDTH 16 0
BBX 16 16 0 -2
BITMAP 
0000
1080
1040
1020
7C00
1080
1088
1084
3A82
5282
1080
1080
1088
3078
0000
0000
ENDCHAR
STARTCHAR U+6299
ENCODING 25241
SWIDTH 1000 0
DWIDTH 16 0
BBX 16 16 0 -2
BITMAP 
0000
0018
13E0
1420
7E20
11FC
1020
1020
3BFE
5020
1020
1020
1020
30C0
0000
0000
ENDCHAR
STARTCHAR U+629D
ENCODING 25245
SWIDTH 1000 0
DWIDTH 16 0
BBX 16 16 0 -2
BITMAP 
0000
1100
117C
1104
3A04
1244
1484
1B84
3104
5204
1244
15C4
1608
7018
0000
0000
ENDCHAR
STARTCHAR U+62A3
ENCODING 25251
SWIDTH 1000 0
DWIDTH 16 0
BBX 16 16 0 -2
BITMAP 
0000
1080
1080
1500
39FC
1204
1004
11E4
1804
7014
11E4
1004
1004
3018
0000
0000
ENDCHAR
STARTCHAR U+62A7
ENCODING 25255
SWIDTH 1000 0
DWIDTH 16 0
BBX 16 16 0 -2
BITMAP 
0000
1000
11FC
1108
7D08
1108
1108
1108
19F0
7000
1080
1108
1204
3004
0000
0000
ENDCHAR
STARTCHAR U+62B2
ENCODING 25266
SWIDTH 1000 0
DWIDTH 16 0
BBX 16 16 0 -2
BITMAP 
0000
1004
13FE
1008
7C08
11E8
1148
1148
1948
71E8
1008
1008
1008
3018
0000
0000
ENDCHAR
STARTCHAR U+62C0
ENCODING 25280
SWIDTH 1000 0
DWIDTH 16 0
BBX 16 16 0 -2
BITMAP 
0000
1200
13F8
1208
3A08
1208
11FC
18A0
30A0
50A0
10A0
1120
1224
301E
0400
0000
ENDCHAR
STARTCHAR U+62C1
ENCODING 25281
SWIDTH 1000 0
DWIDTH 16 0
BBX 16 16 0 -2
BITMAP 
0000
1100
1100
111C
7DE4
1164
1264
1AA4
32A4
52A4
12A4
14A4
149C
3184
0000
0000
ENDCHAR
STARTCHAR U+62C3
ENCODING 25283
SWIDTH 1000 0
DWIDTH 16 0
BBX 16 16 0 -2
BITMAP 
0000
1080
1100
1506
3AF8
1280
108C
10F0
1880
7080
10F8
1080
1080
3080
0000
0000
ENDCHAR
STARTCHAR U+62DE
ENCODING 25310
SWIDTH 1000 0
DWIDTH 16 0
BBX 16 16 0 -2
BITMAP 
0000
0018
1160
1180
7D00
1100
110C
11F0
1910
7110
1110
1110
1110
37FE
0000
0000
ENDCHAR
STARTCHAR U+62E4
ENCODING 25316
SWIDTH 1000 0
DWIDTH 16 0
BBX 16 16 0 -2
BITMAP 
0000
1000
1080
107C
7E80
1080
13FE
1480
1840
70B0
1088
1084
1080
3000
0000
0000
ENDCHAR
STARTCHAR U+6305
ENCODING 25349
SWIDTH 1000 0
DWIDTH 16 0
BBX 16 16 0 -2
BITMAP 
0000
1010
11F0
10A0
391C
1104
1604
1848
7044
53F8
11D0
1148
1244
3040
0000
0000
ENDCHAR
STARTCHAR U+6306
ENCODING 25350
SWIDTH 1000 0
DWIDTH 16 0
BBX 16 16 0 -2
BITMAP 
0000
10F0
1110
1110
3910
1116
1448
1844
77FE
5060
10E0
1150
124C
3440
0000
0000
ENDCHAR
STARTCHAR U+6312
ENCODING 25362
SWIDTH 1000 0
DWIDTH 16 0
BBX 16 16 0 -2
BITMAP 
0000
1004
11C4
1114
3A54
13D4
1254
1E94
7594
5094
1114
1104
1204
300C
0000
0000
ENDCHAR
STARTCHAR U+6317
ENCODING 25367
SWIDTH 1000 0
DWIDTH 16 0
BBX 16 16 0 -2
BITMAP 
0000
1040
1044
11F8
7C40
11F8
1048
13F0
1A40
71FC
10C4
10A8
1110
320C
0000
0000
ENDCHAR
STARTCHAR U+631C
ENCODING 25372
SWIDTH 1000 0
DWIDTH 16 0
BBX 16 16 0 -2
BITMAP 
0000
1000
13FC
10A0
38A0
10A0
10A4
1AA8
32A8
51B0
10A0
10A0
10A4
37FE
0000
0000
ENDCHAR
STARTCHAR U+6326
ENCODING 25382
SWIDTH 1000 0
DWIDTH 16 0
BBX 16 16 0 -2
BITMAP 
0000
13FC
1008
11F8
7C08
1008
11F0
1810
3014
53F8
1010
1090
1010
3030
0000
0000
ENDCHAR
STARTCHAR U+632E
ENCODING 25390
SWIDTH 1000 0
DWIDTH 16 0
BBX 16 16 0 -2
BITMAP 
0000
1108
1090
117C
7C48
13C4
1278
1A40
71FC
10C4
1144
1248
1440
3040
0000
0000
ENDCHAR
STARTCHAR U+6330
ENCODING 25392
SWIDTH 1000 0
DWIDTH 16 0
BBX 16 16 0 -2
BITMAP 
0000
11F8
1108
1108
7D08
11F0
1000
1878
31C0
5040
13FC
1040
1040
37FE
0000
0000
ENDCHAR
STARTCHAR U+6331
ENCODING 25393
SWIDTH 1000 0
DWIDTH 16 0
BBX 16 16 0 -2
BITMAP 
0000
1010
1110
1010
7C54
1254
1292
1990
3218
5208
1210
1410
1420
34C0
0000
0000
ENDCHAR
STARTCHAR U+6337
ENCODING 25399
SWIDTH 1000 0
DWIDTH 16 0
BBX 16 16 0 -2
BITMAP 
0000
1100
113E
19A4
3124
1128
13E8
1124
7162
53A2
1122
1224
1220
3020
0000
0000
ENDCHAR
STARTCHAR U+635D
ENCODING 25437
SWIDTH 1000 0
DWIDTH 16 0
BBX 16 16 0 -2
BITMAP 
0000
1008
1090
1080
7FFC
1208
1208
1A08
33F0
50A0
10A0
1120
1122
323E
0400
0000
ENDCHAR
STARTCHAR U+6360
ENCODING 25440
SWIDTH 1000 0
DWIDTH 16 0
BBX 16 16 0 -2
BITMAP 
0000
1018
11E0
1200
7E04
13F8
1210
1610
3A10
5216
11E8
1190
120C
3404
0000
0000
ENDCHAR
STARTCHAR U+6364
ENCODING 25444
SWIDTH 1000 0
DWIDTH 16 0
BBX 16 16 0 -2
BITMAP 
0000
13FC
1204
1204
7FF8
1230
12C0
1A44
73F8
1240
147C
14C0
1842
783E
0000
0000
ENDCHAR
STARTCHAR U+636A
ENCODING 25450
SWIDTH 1000 0
DWIDTH 16 0
BBX 16 16 0 -2
BITMAP 
0000
127C
13C0
1224
3BFC
1220
1252
198E
7200
13F8
1208
13F8
1208
33F0
0000
0000
ENDCHAR
STARTCHAR U+6373
ENCODING 25459
SWIDTH 1000 0
DWIDTH 16 0
BBX 16 16 0 -2
BITMAP 
0000
1230
13C0
1204
3BF8
1210
1210
1A16
71E8
1040
1444
1444
1444
33FC
0000
0000
ENDCHAR
STARTCHAR U+6379
ENCODING 25465
SWIDTH 1000 0
DWIDTH 16 0
BBX 16 16 0 -2
BITMAP 
1040
1040
17FE
10A0
3950
124C
11F0
1840
7110
1116
17F8
1210
1210
7410
0000
0000
ENDCHAR
STARTCHAR U+637E
ENCODING 25470
SWIDTH 1000 0
DWIDTH 16 0
BBX 16 16 0 -2
BITMAP 
0000
1060
1004
1BFC
3608
13F8
1208
1A08
73F0
1200
13FC
1208
1208
21FC
0000
0000
ENDCHAR
STARTCHAR U+6386
ENCODING 25478
SWIDTH 1000 0
DWIDTH 16 0
BBX 16 16 0 -2
BITMAP 
0000
13FE
1202
1292
7E22
12FA
1222
1AAA
72AA
52AA
12AA
125A
1202
3206
0000
0000
ENDCHAR
STARTCHAR U+638B
ENCODING 25483
SWIDTH 1000 0
DWIDTH 16 0
BBX 16 16 0 -2
BITMAP 
0000
1020
13FE
1A00
3218
13E0
1320
1B24
73D8
1510
1512
154A
1886
70F8
0000
0000
ENDCHAR
STARTCHAR U+6393
ENCODING 25491
SWIDTH 1000 0
DWIDTH 16 0
BBX 16 16 0 -2
BITMAP 
1000
1200
127E
1264
3BA4
1224
1FE8
1A28
7628
1690
1A50
1A28
124C
3206
0000
0000
ENDCHAR
STARTCHAR U+63B6
ENCODING 25526
SWIDTH 1000 0
DWIDTH 16 0
BBX 16 16 0 -2
BITMAP 
1000
1020
13FE
1220
3A24
12FC
1224
16FC
7A24
1224
14F8
1450
1488
7106
0000
0000
ENDCHAR
STARTCHAR U+63B9
ENCODING 25529
SWIDTH 1000 0
DWIDTH 16 0
BBX 16 16 0 -2
BITMAP 
13F8
1010
1060
1444
3BF8
1040
1040
18C0
7000
17F8
1528
1528
1528
3FFE
0000
0000
ENDCHAR
STARTCHAR U+63BF
ENCODING 25535
SWIDTH 1000 0
DWIDTH 16 0
BBX 16 16 0 -2
BITMAP 
1000
1108
11CC
1B10
3140
1040
17FE
1480
7900
13FC
1504
1104
1104
71FC
0000
0000
ENDCHAR
STARTCHAR U+63E2
ENCODING 25570
SWIDTH 1000 0
DWIDTH 16 0
BBX 16 16 0 -2
BITMAP 
2000
2040
23FE
2A84
34F0
2110
22A0
2860
709C
6708
23F8
2208
2208
21F8
0000
0000
ENDCHAR
STARTCHAR U+63E6
ENCODING 25574
SWIDTH 1000 0
DWIDTH 16 0
BBX 16 16 0 -2
BITMAP 
0000
2104
2154
2F94
3114
27D4
2554
2D54
7794
2314
25D4
2544
2904
610C
0000
0000
ENDCHAR
STARTCHAR U+63FB
ENCODING 25595
SWIDTH 1000 0
DWIDTH 16 0
BBX 16 16 0 -2
BITMAP 
0008
1014
1014
1BF8
3250
1292
1294
1D54
77D4
5558
1648
15C8
193A
2A26
0000
0000
ENDCHAR
STARTCHAR U+63FC
ENCODING 25596
SWIDTH 1000 0
DWIDTH 16 0
BBX 16 16 0 -2
BITMAP 
0000
17FE
1080
1100
3BFC
1104
1104
19FC
7044
17E8
1170
1150
124C
3CC4
0000
0000
ENDCHAR
STARTCHAR U+63FE
ENCODING 25598
SWIDTH 1000 0
DWIDTH 16 0
BBX 16 16 0 -2
BITMAP 
0000
13F8
1210
1210
3BF0
1210
13F0
1800
77FC
14A8
14A8
14A8
14A8
3FFE
0000
0000
ENDCHAR
STARTCHAR U+6403
ENCODING 25603
SWIDTH 1000 0
DWIDTH 16 0
BBX 16 16 0 -2
BITMAP 
0000
1108
1090
1000
3BFC
1204
1204
1604
39F8
5040
1124
1502
150A
31F8
0000
0000
ENDCHAR
STARTCHAR U+6404
ENCODING 25604
SWIDTH 1000 0
DWIDTH 16 0
BBX 16 16 0 -2
BITMAP 
0000
0206
2278
2B04
377C
2644
2A44
2A7C
7244
2244
2244
2238
2200
62FE
0000
0000
ENDCHAR
STARTCHAR U+6407
ENCODING 25607
SWIDTH 1000 0
DWIDTH 16 0
BBX 16 16 0 -2
BITMAP 
0040
1040
10A0
1110
3A6C
11F8
1010
1880
7FFE
1100
1208
1E30
1210
318C
0000
0000
ENDCHAR
STARTCHAR U+6408
ENCODING 25608
SWIDTH 1000 0
DWIDTH 16 0
BBX 16 16 0 -2
BITMAP 
0000
1020
11FE
1A84
3090
116C
1060
1090
790E
57F8
1108
1108
1108
21F8
0000
0000
ENDCHAR
STARTCHAR U+6411
ENCODING 25617
SWIDTH 1000 0
DWIDTH 16 0
BBX 16 16 0 -2
BITMAP 
1000
1008
17FE
1D00
33FC
1108
1508
19F8
3108
51F8
1108
16FC
1008
2000
0000
0000
ENDCHAR
STARTCHAR U+6419
ENCODING 25625
SWIDTH 1000 0
DWIDTH 16 0
BBX 16 16 0 -2
BITMAP 
0000
13FC
1200
1FF0
3206
13F8
1318
1D28
70D4
5012
17FC
1110
1010
3030
0000
0000
ENDCHAR
STARTCHAR U+641D
ENCODING 25629
SWIDTH 1000 0
DWIDTH 16 0
BBX 16 16 0 -2
BITMAP 
0000
1080
13FC
1A04
33FC
1204
13FC
1A04
73FC
1048
17FE
10A0
1118
3204
0400
0000
ENDCHAR
STARTCHAR U+6431
ENCODING 25649
SWIDTH 1000 0
DWIDTH 16 0
BBX 16 16 0 -2
BITMAP 
0000
13FE
1204
1204
3BF8
1224
12D8
1A50
7254
52A8
1424
15FC
1820
3820
0000
0000
ENDCHAR
STARTCHAR U+6432
ENCODING 25650
SWIDTH 1000 0
DWIDTH 16 0
BBX 16 16 0 -2
BITMAP 
0000
0020
23FE
2A90
3092
230C
227C
2B80
3290
6290
2288
22A8
2494
6872
0000
0000
ENDCHAR
STARTCHAR U+6438
ENCODING 25656
SWIDTH 1000 0
DWIDTH 16 0
BBX 16 16 0 -2
BITMAP 
0040
1040
13F8
1848
31B0
17FE
1110
1A68
74C4
1044
13F8
1148
1244
3444
0000
0000
ENDCHAR
STARTCHAR U+643B
ENCODING 25659
SWIDTH 1000 0
DWIDTH 16 0
BBX 16 16 0 -2
BITMAP 
0100
0380
0C70
37EC
0FF0
1010
0FF0
020C
7C70
0AFC
3C10
7FFE
0810
1870
0000
0000
ENDCHAR
STARTCHAR U+643C
ENCODING 25660
SWIDTH 1000 0
DWIDTH 16 0
BBX 16 16 0 -2
BITMAP 
0040
1040
1140
18B8
3084
1378
1208
1C66
70C8
13F8
1040
13FC
1040
30C0
0000
0000
ENDCHAR
STARTCHAR U+6449
ENCODING 25673
SWIDTH 1000 0
DWIDTH 16 0
BBX 16 16 0 -2
BITMAP 
0040
1220
15DE
1C80
3158
1244
10B0
194C
7688
517C
1210
10E0
1040
3180
0600
0000
ENDCHAR
STARTCHAR U+644C
ENCODING 25676
SWIDTH 1000 0
DWIDTH 16 0
BBX 16 16 0 -2
BITMAP 
0000
1024
13D8
18F0
3058
13FE
1420
14A0
74FC
1520
1624
14F8
1820
3BFE
0000
0000
ENDCHAR
STARTCHAR U+6455
ENCODING 25685
SWIDTH 1000 0
DWIDTH 16 0
BBX 16 16 0 -2
BITMAP 
0000
22A8
22AC
2BF8
32AA
24C4
23FE
1444
6240
23F8
2248
2248
2248
6040
0000
0000
ENDCHAR
STARTCHAR U+6456
ENCODING 25686
SWIDTH 1000 0
DWIDTH 16 0
BBX 16 16 0 -2
BITMAP 
0000
2100
22EC
2B98
3488
2308
2106
2BF8
7000
67FE
2140
2148
2644
2840
0000
0000
ENDCHAR
STARTCHAR U+6457
ENCODING 25687
SWIDTH 1000 0
DWIDTH 16 0
BBX 16 16 0 -2
BITMAP 
0000
2110
2150
2B90
316C
27F4
2550
1550
67D0
2310
25A8
2528
2944
2106
0000
0000
ENDCHAR
STARTCHAR U+6462
ENCODING 25698
SWIDTH 1000 0
DWIDTH 16 0
BBX 16 16 0 -2
BITMAP 
0000
1044
1078
1BFE
3284
13F0
12FC
1A0C
75F0
1528
14B0
156C
1820
2060
0000
0000
ENDCHAR
STARTCHAR U+6464
ENCODING 25700
SWIDTH 1000 0
DWIDTH 16 0
BBX 16 16 0 -2
BITMAP 
0040
1040
17FE
1840
3158
114C
12C4
1174
7268
1374
1090
1090
1108
3604
0000
0000
ENDCHAR
STARTCHAR U+646A
ENCODING 25706
SWIDTH 1000 0
DWIDTH 16 0
BBX 16 16 0 -2
BITMAP 
0020
0020
263C
2678
7E90
2670
2628
2A48
7EFE
2608
2628
2608
2A08
6818
0000
0000
ENDCHAR
STARTCHAR U+6471
ENCODING 25713
SWIDTH 1000 0
DWIDTH 16 0
BBX 16 16 0 -2
BITMAP 
0000
11F8
1108
1168
39F8
1400
17FC
1494
77FC
13F8
1108
1090
1060
319E
0600
0000
ENDCHAR
STARTCHAR U+647C
ENCODING 25724
SWIDTH 1000 0
DWIDTH 16 0
BBX 16 16 0 -2
BITMAP 
0000
27FE
2524
2FE4
3454
27D8
2508
1554
6280
2040
23FC
2040
2040
27FE
0000
0000
ENDCHAR
STARTCHAR U+647E
ENCODING 25726
SWIDTH 1000 0
DWIDTH 16 0
BBX 16 16 0 -2
BITMAP 
0000
2790
2120
2944
357A
2610
247C
2454
7754
6154
2178
2110
2114
266A
0000
0000
ENDCHAR
STARTCHAR U+6480
ENCODING 25728
SWIDTH 1000 0
DWIDTH 16 0
BBX 16 16 0 -2
BITMAP 
0000
0978
3E90
3F8E
2108
3E78
3F30
20CE
41F0
0F00
1FF0
0104
3FF8
0300
0000
0000
ENDCHAR
STARTCHAR U+6481
ENCODING 25729
SWIDTH 1000 0
DWIDTH 16 0
BBX 16 16 0 -2
BITMAP 
0080
1040
13FE
1090
7DE0
13FE
1D14
13E8
7040
1248
11F0
1044
13F8
3040
0000
0000
ENDCHAR
STARTCHAR U+6486
ENCODING 25734
SWIDTH 1000 0
DWIDTH 16 0
BBX 16 16 0 -2
BITMAP 
0000
2920
1A74
7F48
59B0
5B10
292C
0060
03C0
0D08
1FF0
0104
3FF8
0300
0000
0000
ENDCHAR
STARTCHAR U+648D
ENCODING 25741
SWIDTH 1000 0
DWIDTH 16 0
BBX 16 16 0 -2
BITMAP 
0000
0084
2738
2528
7BBC
2118
2358
10AE
6208
63F8
2208
23F8
2208
63F8
0000
0000
ENDCHAR
STARTCHAR U+648E
ENCODING 25742
SWIDTH 1000 0
DWIDTH 16 0
BBX 16 16 0 -2
BITMAP 
0000
1040
13FC
1040
7DF8
1004
17FC
11F0
7208
53F8
1208
13F0
10A0
37FC
0000
0000
ENDCHAR
STARTCHAR U+6494
ENCODING 25748
SWIDTH 1000 0
DWIDTH 16 0
BBX 16 16 0 -2
BITMAP 
0000
13FC
1208
13F8
7E08
13F0
17FE
1800
73F8
5208
11F0
1040
114C
36C4
0000
0000
ENDCHAR
STARTCHAR U+64A7
ENCODING 25767
SWIDTH 1000 0
DWIDTH 16 0
BBX 16 16 0 -2
BITMAP 
0000
017C
2224
22A4
7D08
2744
227C
2454
39D4
6668
2140
22C0
2A44
247E
0000
0000
ENDCHAR
STARTCHAR U+64AA
ENCODING 25770
SWIDTH 1000 0
DWIDTH 16 0
BBX 16 16 0 -2
BITMAP 
0000
1040
1188
1BF0
3084
11F8
134E
11F0
73F8
5248
13F8
13F8
17FE
2040
0000
0000
ENDCHAR
STARTCHAR U+64AF
ENCODING 25775
SWIDTH 1000 0
DWIDTH 16 0
BBX 16 16 0 -2
BITMAP 
0008
1094
1168
1048
7DF0
17FE
1100
19FC
3308
55F8
1108
11F8
1108
71F8
0000
0000
ENDCHAR
STARTCHAR U+64B4
ENCODING 25780
SWIDTH 1000 0
DWIDTH 16 0
BBX 16 16 0 -2
BITMAP 
0000
0110
2150
2A90
33AC
24A4
2384
1004
63A8
6128
2190
2F10
2128
2344
0000
0000
ENDCHAR
STARTCHAR U+64B6
ENCODING 25782
SWIDTH 1000 0
DWIDTH 16 0
BBX 16 16 0 -2
BITMAP 
0000
1108
13FE
1900
3004
11F8
1248
135C
7048
5046
13F8
1044
11F8
3040
0000
0000
ENDCHAR
STARTCHAR U+64C6
ENCODING 25798
SWIDTH 1000 0
DWIDTH 16 0
BBX 16 16 0 -2
BITMAP 
0000
1210
17BC
1090
7C88
11F0
10A4
13FC
3080
5378
1508
11F8
1108
31F8
0000
0000
ENDCHAR
STARTCHAR U+64C8
ENCODING 25800
SWIDTH 1000 0
DWIDTH 16 0
BBX 16 16 0 -2
BITMAP 
0000
10A0
11A8
11A0
7B58
1090
10AC
1B50
73F8
5040
17F8
1150
124C
6044
0000
0000
ENDCHAR
STARTCHAR U+64D3
ENCODING 25811
SWIDTH 1000 0
DWIDTH 16 0
BBX 16 16 0 -2
BITMAP 
0000
1004
17F8
1D20
34A8
143C
1550
147C
7550
557C
1550
1554
1468
3404
03F8
0000
ENDCHAR
STARTCHAR U+64DC
ENCODING 25820
SWIDTH 1000 0
DWIDTH 16 0
BBX 16 16 0 -2
BITMAP 
0000
2100
2150
2390
7910
27FE
2650
2548
35C8
6558
25D8
2558
2564
65E4
0000
0000
ENDCHAR
STARTCHAR U+64DD
ENCODING 25821
SWIDTH 1000 0
DWIDTH 16 0
BBX 16 16 0 -2
BITMAP 
0000
04A4
27BC
24A4
37BC
24A4
24DC
2744
300C
6008
23F8
22A8
22A8
6FFE
0000
0000
ENDCHAR
STARTCHAR U+64DF
ENCODING 25823
SWIDTH 1000 0
DWIDTH 16 0
BBX 16 16 0 -2
BITMAP 
0000
0004
23F8
215C
7FF8
24C8
2558
15D8
6248
64D8
2558
25D8
2268
6058
0000
0000
ENDCHAR
STARTCHAR U+64EE
ENCODING 25838
SWIDTH 1000 0
DWIDTH 16 0
BBX 16 16 0 -2
BITMAP 
0110
0150
2190
2914
32F8
2290
2BF4
3794
6AD8
23C8
2288
23DC
2124
2042
0000
0000
ENDCHAR
STARTCHAR U+64F9
ENCODING 25849
SWIDTH 1000 0
DWIDTH 16 0
BBX 16 16 0 -2
BITMAP 
0000
0490
2FF0
24A4
7F3C
2550
26D0
26D0
7110
67D0
2268
27A8
24C8
6804
0000
0000
ENDCHAR
STARTCHAR U+6502
ENCODING 25858
SWIDTH 1000 0
DWIDTH 16 0
BBX 16 16 0 -2
BITMAP 
0000
1208
13F8
1248
3BF8
1248
13B8
1880
17BC
36B4
17BC
16B4
16B4
35A8
0000
0000
ENDCHAR
STARTCHAR U+650B
ENCODING 25867
SWIDTH 1000 0
DWIDTH 16 0
BBX 16 16 0 -2
BITMAP 
0000
017C
2114
23A4
7908
27BE
26C4
16BC
6544
633C
25C4
2538
2120
2146
0000
0000
ENDCHAR
STARTCHAR U+6511
ENCODING 25873
SWIDTH 1000 0
DWIDTH 16 0
BBX 16 16 0 -2
BITMAP 
0000
0180
26E8
27B8
7C68
23B8
2448
13B4
6250
649E
23E0
2088
23F0
6080
0000
0000
ENDCHAR
STARTCHAR U+651A
ENCODING 25882
SWIDTH 1000 0
DWIDTH 16 0
BBX 16 16 0 -2
BITMAP 
0010
0510
2134
2110
7AAC
2440
27BE
3BF8
6210
61F8
2080
23F8
2208
6208
01F0
0000
ENDCHAR
STARTCHAR U+6527
ENCODING 25895
SWIDTH 1000 0
DWIDTH 16 0
BBX 16 16 0 -2
BITMAP 
0000
0104
27D8
2110
33AC
24A4
27BC
2BA4
74A4
67BC
24E4
233C
2494
2022
0040
0000
ENDCHAR
STARTCHAR U+6528
ENCODING 25896
SWIDTH 1000 0
DWIDTH 16 0
BBX 16 16 0 -2
BITMAP 
0080
0000
27FE
2D20
3218
21E0
2248
1254
6070
25DC
2660
26D8
2654
219A
0000
0000
ENDCHAR
STARTCHAR U+6530
ENCODING 25904
SWIDTH 1000 0
DWIDTH 16 0
BBX 16 16 0 -2
BITMAP 
0000
0810
0820
7F20
08FE
0824
7F24
2224
2244
2444
1484
0908
1618
21FC
0000
0000
ENDCHAR
STARTCHAR U+6540
ENCODING 25920
SWIDTH 1000 0
DWIDTH 16 0
BBX 16 16 0 -2
BITMAP 
0000
0840
1040
2040
5EBC
4488
4508
4490
7C50
4450
4420
4450
7C98
4106
0000
0000
ENDCHAR
STARTCHAR U+6542
ENCODING 25922
SWIDTH 1000 0
DWIDTH 16 0
BBX 16 16 0 -2
BITMAP 
0000
1020
2040
3F40
227E
4288
3A90
2A50
2A50
2A50
3220
0250
0258
068E
0100
0000
ENDCHAR
STARTCHAR U+6544
ENCODING 25924
SWIDTH 1000 0
DWIDTH 16 0
BBX 16 16 0 -2
BITMAP 
0000
0260
1E40
1440
087E
7E88
0A88
0948
1850
2850
4820
0830
08C8
1906
0000
0000
ENDCHAR
STARTCHAR U+654B
ENCODING 25931
SWIDTH 1000 0
DWIDTH 16 0
BBX 16 16 0 -2
BITMAP 
0000
0820
1E20
1240
327E
4C88
0C48
1248
6048
3E50
2230
2230
2248
3C86
0000
0000
ENDCHAR
STARTCHAR U+655A
ENCODING 25946
SWIDTH 1000 0
DWIDTH 16 0
BBX 16 16 0 -2
BITMAP 
0000
2120
1220
1040
3F46
22B8
2288
2208
1C48
1450
1430
2530
2650
408C
0000
0000
ENDCHAR
STARTCHAR U+6561
ENCODING 25953
SWIDTH 1000 0
DWIDTH 16 0
BBX 16 16 0 -2
BITMAP 
0000
3F20
2220
3E3E
2220
3E20
30FC
1184
2F48
1548
2930
5210
2228
06C4
0000
0000
ENDCHAR
STARTCHAR U+6569
ENCODING 25961
SWIDTH 1000 0
DWIDTH 16 0
BBX 16 16 0 -2
BITMAP 
1000
0920
2120
0224
7DBC
4148
5EC8
0448
0828
0A30
3C10
4830
0848
188C
0000
0000
ENDCHAR
STARTCHAR U+656E
ENCODING 25966
SWIDTH 1000 0
DWIDTH 16 0
BBX 16 16 0 -2
BITMAP 
0000
0220
3C20
0924
7FB8
0820
7F24
49DC
4948
7F48
4930
4930
4930
774C
0080
0000
ENDCHAR
STARTCHAR U+6571
ENCODING 25969
SWIDTH 1000 0
DWIDTH 16 0
BBX 16 16 0 -2
BITMAP 
0010
0820
2A20
2A1E
3E20
01A0
3E7C
3F84
2248
2148
3E30
1430
1648
6884
0000
0000
ENDCHAR
STARTCHAR U+6586
ENCODING 25990
SWIDTH 1000 0
DWIDTH 16 0
BBX 16 16 0 -2
BITMAP 
0000
3820
2520
3B24
253E
3748
20C8
5FC8
5E50
0430
0810
1E30
6848
1884
0000
0000
ENDCHAR
STARTCHAR U+658D
ENCODING 25997
SWIDTH 1000 0
DWIDTH 16 0
BBX 16 16 0 -2
BITMAP 
0000
0100
0104
3EF8
0780
06F8
3FF0
1010
1FF0
0FF0
1010
0FE0
0480
087C
3000
0000
ENDCHAR
STARTCHAR U+658F
ENCODING 25999
SWIDTH 1000 0
DWIDTH 16 0
BBX 16 16 0 -2
BITMAP 
0000
1020
1100
7FF8
0508
05F8
2908
19F8
0944
0928
1510
2510
4148
0186
0000
0000
ENDCHAR
STARTCHAR U+659A
ENCODING 26010
SWIDTH 1000 0
DWIDTH 16 0
BBX 16 16 0 -2
BITMAP 
0000
0820
1048
2284
7DFC
0000
3FFE
4440
0240
0840
0444
1FF8
2040
0040
0000
0000
ENDCHAR
STARTCHAR U+65B1
ENCODING 26033
SWIDTH 1000 0
DWIDTH 16 0
BBX 16 16 0 -2
BITMAP 
0000
119C
15E0
3A80
1284
15FE
2E88
1088
2E88
2288
1E88
2288
2308
1F08
0000
0000
ENDCHAR
STARTCHAR U+65B5
ENCODING 26037
SWIDTH 1000 0
DWIDTH 16 0
BBX 16 16 0 -2
BITMAP 
0000
771C
4560
5540
6240
017E
3E48
1548
6388
4188
3688
1488
1708
6908
0000
0000
ENDCHAR
STARTCHAR U+65BA
ENCODING 26042
SWIDTH 1000 0
DWIDTH 16 0
BBX 16 16 0 -2
BITMAP 
0000
1020
0A60
3450
2088
2506
3E88
2490
2490
2490
2490
2510
4910
4A00
0000
0000
ENDCHAR
STARTCHAR U+65BE
ENCODING 26046
SWIDTH 1000 0
DWIDTH 16 0
BBX 16 16 0 -2
BITMAP 
0000
1080
0880
7EFE
1120
1020
1FFE
1524
1524
2524
2524
2524
4424
4C20
0000
0000
ENDCHAR
STARTCHAR U+65C0
ENCODING 26048
SWIDTH 1000 0
DWIDTH 16 0
BBX 16 16 0 -2
BITMAP 
0000
1020
0840
7F48
1084
11FA
1F20
1420
1420
24A0
24A4
2522
4422
4860
0000
0000
ENDCHAR
STARTCHAR U+65C7
ENCODING 26055
SWIDTH 1000 0
DWIDTH 16 0
BBX 16 16 0 -2
BITMAP 
0000
1080
0884
7F78
1120
10FC
1F20
1520
15DC
2548
2548
2530
4630
484E
0000
0000
ENDCHAR
STARTCHAR U+65CA
ENCODING 26058
SWIDTH 1000 0
DWIDTH 16 0
BBX 16 16 0 -2
BITMAP 
0000
1080
0884
7F78
1108
10F0
1E80
14F8
1490
24D0
24B0
2490
4534
49DE
0000
0000
ENDCHAR
STARTCHAR U+65D1
ENCODING 26065
SWIDTH 1000 0
DWIDTH 16 0
BBX 16 16 0 -2
BITMAP 
0000
1020
0824
7ED8
1040
1088
1FFE
1408
14E8
2528
2528
24E8
4408
4818
0000
0000
ENDCHAR
STARTCHAR U+65D5
ENCODING 26069
SWIDTH 1000 0
DWIDTH 16 0
BBX 16 16 0 -2
BITMAP 
0000
0820
3650
1088
1D14
2400
2420
4890
0080
3E8C
22B0
22C0
3E80
207C
0000
0000
ENDCHAR
STARTCHAR U+65DC
ENCODING 26076
SWIDTH 1000 0
DWIDTH 16 0
BBX 16 16 0 -2
BITMAP 
0000
1084
10FC
7F24
12D8
11FC
1D7C
257C
25FC
2408
25F8
25F8
44F8
4806
01F8
0000
ENDCHAR
STARTCHAR U+65E4
ENCODING 26084
SWIDTH 1000 0
DWIDTH 16 0
BBX 16 16 0 -2
BITMAP 
0000
3E04
2278
2E50
2A90
2A90
7F94
4168
5D30
5530
5530
5950
4190
439E
0000
0000
ENDCHAR
STARTCHAR U+65EA
ENCODING 26090
SWIDTH 1000 0
DWIDTH 16 0
BBX 16 16 0 -2
BITMAP 
0000
0020
3C20
2420
2420
2424
3DFE
2420
2420
2420
2420
3C20
0020
0020
0000
0000
ENDCHAR
STARTCHAR U+65EB
ENCODING 26091
SWIDTH 1000 0
DWIDTH 16 0
BBX 16 16 0 -2
BITMAP 
0000
0004
3CFE
2444
2444
2444
3C44
2484
2484
2484
2484
3D04
0108
0218
0000
0000
ENDCHAR
STARTCHAR U+65F8
ENCODING 26104
SWIDTH 1000 0
DWIDTH 16 0
BBX 16 16 0 -2
BITMAP 
0000
01FC
7C10
4420
4440
4584
3CFC
4494
44A4
4524
4644
3C84
0104
0018
0000
0000
ENDCHAR
STARTCHAR U+6601
ENCODING 26113
SWIDTH 1000 0
DWIDTH 16 0
BBX 16 16 0 -2
BITMAP 
0000
0040
3C40
47FC
4440
4440
3DF8
4548
4548
4548
4548
3D48
0148
0040
0000
0000
ENDCHAR
STARTCHAR U+6617
ENCODING 26135
SWIDTH 1000 0
DWIDTH 16 0
BBX 16 16 0 -2
BITMAP 
0000
1FF8
1010
1010
1FF0
1010
1FF0
1000
0184
7FFE
0440
0420
1818
2004
0000
0000
ENDCHAR
STARTCHAR U+6618
ENCODING 26136
SWIDTH 1000 0
DWIDTH 16 0
BBX 16 16 0 -2
BITMAP 
0000
1FF8
1010
1010
1FF0
1010
1FF0
0180
7FFE
0400
07F8
0810
0810
10E0
2000
0000
ENDCHAR
STARTCHAR U+661A
ENCODING 26138
SWIDTH 1000 0
DWIDTH 16 0
BBX 16 16 0 -2
BITMAP 
0000
0100
3FFC
0288
1448
0830
1010
201E
0FF0
0810
0FF0
0810
0810
0FF0
0000
0000
ENDCHAR
STARTCHAR U+661B
ENCODING 26139
SWIDTH 1000 0
DWIDTH 16 0
BBX 16 16 0 -2
BITMAP 
0000
03FC
0500
7D00
4500
45FC
4508
7D08
4508
45F0
4500
3D00
0100
03FE
0000
0000
ENDCHAR
STARTCHAR U+6638
ENCODING 26168
SWIDTH 1000 0
DWIDTH 16 0
BBX 16 16 0 -2
BITMAP 
0080
0080
4888
7978
4990
4A60
4820
7850
498E
4A20
4810
7080
0060
0010
0000
0000
ENDCHAR
STARTCHAR U+663D
ENCODING 26173
SWIDTH 1000 0
DWIDTH 16 0
BBX 16 16 0 -2
BITMAP 
0080
0090
4888
7880
4BFC
48A0
48A0
78A8
48A8
4930
4920
7260
02A4
043E
0000
0000
ENDCHAR
STARTCHAR U+6648
ENCODING 26184
SWIDTH 1000 0
DWIDTH 16 0
BBX 16 16 0 -2
BITMAP 
0080
0040
4024
7DD8
4490
4488
4504
7E08
4510
4490
4460
3C20
00D0
010E
0200
0000
ENDCHAR
STARTCHAR U+664D
ENCODING 26189
SWIDTH 1000 0
DWIDTH 16 0
BBX 16 16 0 -2
BITMAP 
0000
03FC
4B04
7B14
4B64
4B04
4B74
7B94
4B94
4B94
4B64
7B04
0304
030C
0000
0000
ENDCHAR
STARTCHAR U+6650
ENCODING 26192
SWIDTH 1000 0
DWIDTH 16 0
BBX 16 16 0 -2
BITMAP 
0000
0040
4024
79D8
4880
4908
4910
7BE0
4844
4888
4910
3030
004C
0184
0200
0000
ENDCHAR
STARTCHAR U+6663
ENCODING 26211
SWIDTH 1000 0
DWIDTH 16 0
BBX 16 16 0 -2
BITMAP 
0000
010C
4930
79A0
4B20
493E
4928
79A8
4B48
4D48
4948
7948
0188
0388
0000
0000
ENDCHAR
STARTCHAR U+666D
ENCODING 26221
SWIDTH 1000 0
DWIDTH 16 0
BBX 16 16 0 -2
BITMAP 
0000
03FC
4324
7D2C
45F4
4524
452C
7ED4
4694
46F4
4694
3EF4
0404
001C
0000
0000
ENDCHAR
STARTCHAR U+667D
ENCODING 26237
SWIDTH 1000 0
DWIDTH 16 0
BBX 16 16 0 -2
BITMAP 
0110
0110
4910
7954
4BB8
4918
4998
7B58
4B38
4D54
4956
7910
0110
0110
0000
0000
ENDCHAR
STARTCHAR U+6685
ENCODING 26245
SWIDTH 1000 0
DWIDTH 16 0
BBX 16 16 0 -2
BITMAP 
0000
0104
4938
7900
49FC
4DC4
4D44
7944
497C
4944
4944
797C
0100
01FE
0000
0000
ENDCHAR
STARTCHAR U+668F
ENCODING 26255
SWIDTH 1000 0
DWIDTH 16 0
BBX 16 16 0 -2
BITMAP 
0000
0044
4054
78E8
4848
4856
49B8
78C0
4978
4B08
48F8
3108
0108
00F8
0000
0000
ENDCHAR
STARTCHAR U+6693
ENCODING 26259
SWIDTH 1000 0
DWIDTH 16 0
BBX 16 16 0 -2
BITMAP 
0000
3E20
0444
0478
3F88
1648
2410
4C68
0194
1EF0
1010
1FF0
1010
1FF0
0000
0000
ENDCHAR
STARTCHAR U+669E
ENCODING 26270
SWIDTH 1000 0
DWIDTH 16 0
BBX 16 16 0 -2
BITMAP 
0040
0040
49FC
7908
49F8
49F8
4908
79F8
4824
49F8
48B0
3130
022C
0420
0000
0000
ENDCHAR
STARTCHAR U+66A3
ENCODING 26275
SWIDTH 1000 0
DWIDTH 16 0
BBX 16 16 0 -2
BITMAP 
0000
0100
49FC
7A00
4AF0
4808
49F8
7AA8
4988
4BF8
4888
31E4
0286
0086
0000
0000
ENDCHAR
STARTCHAR U+66A5
ENCODING 26277
SWIDTH 1000 0
DWIDTH 16 0
BBX 16 16 0 -2
BITMAP 
0000
01FC
4908
79F8
4908
49F8
4BFE
7A44
4890
4BFE
4910
3920
00F0
0188
0200
0000
ENDCHAR
STARTCHAR U+66AC
ENCODING 26284
SWIDTH 1000 0
DWIDTH 16 0
BBX 16 16 0 -2
BITMAP 
0000
0A20
1C28
7F78
1428
2A4A
3E7C
0A84
3500
0FF0
0810
0FF0
0810
0FF0
0000
0000
ENDCHAR
STARTCHAR U+66B6
ENCODING 26294
SWIDTH 1000 0
DWIDTH 16 0
BBX 16 16 0 -2
BITMAP 
0000
0220
4924
7FF8
4A40
4A3E
4B90
7AB0
4AD4
4AD8
4CD0
7D70
0590
099C
0000
0000
ENDCHAR
STARTCHAR U+66C5
ENCODING 26309
SWIDTH 1000 0
DWIDTH 16 0
BBX 16 16 0 -2
BITMAP 
0000
1FF0
0FF0
1010
0FF0
0A24
3C78
37F8
0924
3FF8
3FFC
0100
1FF8
0100
0000
0000
ENDCHAR
STARTCHAR U+66CD
ENCODING 26317
SWIDTH 1000 0
DWIDTH 16 0
BBX 16 16 0 -2
BITMAP 
0000
0040
03F8
7A08
4BF8
4BF8
4A08
7BF0
495C
4840
4BDC
7844
43F8
0040
0000
0000
ENDCHAR
STARTCHAR U+66D0
ENCODING 26320
SWIDTH 1000 0
DWIDTH 16 0
BBX 16 16 0 -2
BITMAP 
0000
0FF0
0FF0
0FF0
0284
3EFC
3E7C
3EFC
2900
0908
17F0
3FF8
0100
7FFE
0000
0000
ENDCHAR
STARTCHAR U+66D1
ENCODING 26321
SWIDTH 1000 0
DWIDTH 16 0
BBX 16 16 0 -2
BITMAP 
0000
0FF0
0FE0
0820
07C0
7EFC
7EFC
3EFC
0300
04C0
3B7C
1C90
0730
09C0
1E00
0000
ENDCHAR
STARTCHAR U+66D3
ENCODING 26323
SWIDTH 1000 0
DWIDTH 16 0
BBX 16 16 0 -2
BITMAP 
0000
1FF0
1010
1FF0
1108
1FF8
2100
1FFC
3C20
0918
3FFC
0540
0970
3388
0000
0000
ENDCHAR
STARTCHAR U+66D5
ENCODING 26325
SWIDTH 1000 0
DWIDTH 16 0
BBX 16 16 0 -2
BITMAP 
0000
0100
01F0
7A20
4FF8
4A94
4B2C
7BFC
4A08
4A78
4C70
7CFC
0908
08FC
0000
0000
ENDCHAR
STARTCHAR U+66D7
ENCODING 26327
SWIDTH 1000 0
DWIDTH 16 0
BBX 16 16 0 -2
BITMAP 
00A0
00A8
01A0
7858
4800
4890
4BFC
7848
49F0
4844
4BF8
7940
024C
0444
0000
0000
ENDCHAR
STARTCHAR U+66E1
ENCODING 26337
SWIDTH 1000 0
DWIDTH 16 0
BBX 16 16 0 -2
BITMAP 
0000
0FE0
0820
0FE0
3EF8
2288
3EF8
3EF8
3FFE
4FE0
0820
0FE0
0FE0
0824
37D8
0000
ENDCHAR
STARTCHAR U+66E2
ENCODING 26338
SWIDTH 1000 0
DWIDTH 16 0
BBX 16 16 0 -2
BITMAP 
0000
0040
03FC
7C48
484C
4BB0
4918
7AEC
49F0
4A10
49E0
7950
4248
04C4
0000
0000
ENDCHAR
STARTCHAR U+66E5
ENCODING 26341
SWIDTH 1000 0
DWIDTH 16 0
BBX 16 16 0 -2
BITMAP 
0000
0048
7870
4BFC
4C90
4DE8
7C70
4DF8
4DF8
4D48
7DB0
45FC
0958
015A
02A4
0000
ENDCHAR
STARTCHAR U+66E7
ENCODING 26343
SWIDTH 1000 0
DWIDTH 16 0
BBX 16 16 0 -2
BITMAP 
0000
1FF8
1008
1FF8
1FF8
0110
3E10
3E7C
3E54
3F54
557C
5F10
4914
0BFA
0000
0000
ENDCHAR
STARTCHAR U+66EA
ENCODING 26346
SWIDTH 1000 0
DWIDTH 16 0
BBX 16 16 0 -2
BITMAP 
0000
03FC
3CA4
4CA4
4B7C
4A28
3CB6
4B48
4ACC
4FF8
4A4C
3EF8
0AC8
0034
0000
0000
ENDCHAR
STARTCHAR U+66EF
ENCODING 26351
SWIDTH 1000 0
DWIDTH 16 0
BBX 16 16 0 -2
BITMAP 
0000
07FC
7C04
4FF8
4C28
4DE8
7DFC
4F7C
4C80
4D7C
7DF4
49F4
0854
03BC
0000
0000
ENDCHAR
STARTCHAR U+66F1
ENCODING 26353
SWIDTH 1000 0
DWIDTH 16 0
BBX 16 16 0 -2
BITMAP 
0000
2008
3FF8
2008
2008
3FF8
2108
2108
1FF8
0108
0100
0100
0100
0100
0000
0000
ENDCHAR
STARTCHAR U+6702
ENCODING 26370
SWIDTH 1000 0
DWIDTH 16 0
BBX 16 16 0 -2
BITMAP 
0000
1FF8
1010
1FF0
1010
1FE4
7FFE
2220
3E24
227C
3E24
2244
3E84
2118
0000
0000
ENDCHAR
STARTCHAR U+6706
ENCODING 26374
SWIDTH 1000 0
DWIDTH 16 0
BBX 16 16 0 -2
BITMAP 
0000
2220
1040
017E
7FAA
4BAA
5D54
7F54
0094
3E24
2224
3E44
2284
3E08
0000
0000
ENDCHAR
STARTCHAR U+670C
ENCODING 26380
SWIDTH 1000 0
DWIDTH 16 0
BBX 16 16 0 -2
BITMAP 
0000
3C10
2430
2490
2508
3D08
2604
25F8
3C48
2488
2488
4488
4508
0810
0000
0000
ENDCHAR
STARTCHAR U+6711
ENCODING 26385
SWIDTH 1000 0
DWIDTH 16 0
BBX 16 16 0 -2
BITMAP 
0000
3D40
2550
2550
3550
2FFC
2550
2D50
3550
2550
2560
2500
4500
4DFE
0000
0000
ENDCHAR
STARTCHAR U+671A
ENCODING 26394
SWIDTH 1000 0
DWIDTH 16 0
BBX 16 16 0 -2
BITMAP 
0000
0104
7FFE
1000
0C18
03E0
1EFC
2704
26FC
3F04
2704
27FC
1B04
020C
0000
0000
ENDCHAR
STARTCHAR U+6724
ENCODING 26404
SWIDTH 1000 0
DWIDTH 16 0
BBX 16 16 0 -2
BITMAP 
0000
3F7E
2284
3EFC
3E7C
4284
4204
0084
7EFC
3E7C
4284
7EFC
4284
420C
0000
0000
ENDCHAR
STARTCHAR U+6725
ENCODING 26405
SWIDTH 1000 0
DWIDTH 16 0
BBX 16 16 0 -2
BITMAP 
0000
3C08
2B74
2910
3998
2A24
2A04
2BFC
3840
2BFC
4888
4888
4908
0A10
0000
0000
ENDCHAR
STARTCHAR U+6729
ENCODING 26409
SWIDTH 1000 0
DWIDTH 16 0
BBX 16 16 0 -2
BITMAP 
0100
0100
0100
0108
1FF0
0100
0500
0540
0920
0920
1110
2108
010C
0300
0000
0000
ENDCHAR
STARTCHAR U+6730
ENCODING 26416
SWIDTH 1000 0
DWIDTH 16 0
BBX 16 16 0 -2
BITMAP 
0100
0100
3FFC
0380
0540
0930
110C
6000
0FE0
0180
0200
0C04
1004
1FFC
0000
0000
ENDCHAR
STARTCHAR U+6732
ENCODING 26418
SWIDTH 1000 0
DWIDTH 16 0
BBX 16 16 0 -2
BITMAP 
0000
0020
1020
1040
3C40
1860
3460
3060
5060
5090
1090
1108
120C
0006
0000
0000
ENDCHAR
STARTCHAR U+6744
ENCODING 26436
SWIDTH 1000 0
DWIDTH 16 0
BBX 16 16 0 -2
BITMAP 
0000
1008
11F0
1420
3820
1020
1FFE
3420
5020
5020
1020
1020
1020
1020
0000
0000
ENDCHAR
STARTCHAR U+674A
ENCODING 26442
SWIDTH 1000 0
DWIDTH 16 0
BBX 16 16 0 -2
BITMAP 
0000
1104
1124
1524
3924
1124
1D24
3124
5124
5124
1124
1224
1224
1004
0000
0000
ENDCHAR
STARTCHAR U+6752
ENCODING 26450
SWIDTH 1000 0
DWIDTH 16 0
BBX 16 16 0 -2
BITMAP 
0000
0004
10FC
1224
3C24
1824
34A4
3044
5044
5044
1044
1084
1108
0218
0000
0000
ENDCHAR
STARTCHAR U+6758
ENCODING 26456
SWIDTH 1000 0
DWIDTH 16 0
BBX 16 16 0 -2
BITMAP 
0000
1FFC
1008
1008
1FFC
10C0
1080
1084
27F8
2280
2290
248C
4884
4080
0000
0000
ENDCHAR
STARTCHAR U+675B
ENCODING 26459
SWIDTH 1000 0
DWIDTH 16 0
BBX 16 16 0 -2
BITMAP 
0000
1008
10F8
1408
3908
19F0
3500
3100
51FC
5004
1004
1004
1008
0018
0000
0000
ENDCHAR
STARTCHAR U+6767
ENCODING 26471
SWIDTH 1000 0
DWIDTH 16 0
BBX 16 16 0 -2
BITMAP 
1000
1040
1020
1604
39F8
1900
3500
3100
5100
5100
1100
1100
11FC
1000
0000
0000
ENDCHAR
STARTCHAR U+676B
ENCODING 26475
SWIDTH 1000 0
DWIDTH 16 0
BBX 16 16 0 -2
BITMAP 
0000
0020
1020
1020
3C20
1120
3D38
3520
3120
5120
1120
1120
1124
07FE
0000
0000
ENDCHAR
STARTCHAR U+6780
ENCODING 26496
SWIDTH 1000 0
DWIDTH 16 0
BBX 16 16 0 -2
BITMAP 
0000
01E0
0420
0910
1208
2424
0FD0
0100
0104
3FF8
0500
0930
1108
2104
0000
0000
ENDCHAR
STARTCHAR U+6782
ENCODING 26498
SWIDTH 1000 0
DWIDTH 16 0
BBX 16 16 0 -2
BITMAP 
0000
0000
11FC
1104
3D04
11FC
3D04
3104
50FC
1104
1104
1104
1204
020C
0000
0000
ENDCHAR
STARTCHAR U+6788
ENCODING 26504
SWIDTH 1000 0
DWIDTH 16 0
BBX 16 16 0 -2
BITMAP 
0000
1080
1084
1EF8
1080
1180
1E7C
0180
0104
3FF8
0520
0918
1104
2004
0000
0000
ENDCHAR
STARTCHAR U+678A
ENCODING 26506
SWIDTH 1000 0
DWIDTH 16 0
BBX 16 16 0 -2
BITMAP 
0000
10C0
133E
1224
3A24
1224
3A24
3224
5224
5224
12A4
1324
1020
1020
0000
0000
ENDCHAR
STARTCHAR U+67A4
ENCODING 26532
SWIDTH 1000 0
DWIDTH 16 0
BBX 16 16 0 -2
BITMAP 
1000
1040
1048
7E40
1044
19F8
3460
3060
5060
5090
1090
1108
110C
1206
0000
0000
ENDCHAR
STARTCHAR U+67AC
ENCODING 26540
SWIDTH 1000 0
DWIDTH 16 0
BBX 16 16 0 -2
BITMAP 
0000
00F8
1108
7F08
1128
1D28
1108
33FE
5108
5108
1108
1108
1208
0018
0000
0000
ENDCHAR
STARTCHAR U+67BF
ENCODING 26559
SWIDTH 1000 0
DWIDTH 16 0
BBX 16 16 0 -2
BITMAP 
0000
1020
1024
14F8
3820
10A4
3888
308A
51FC
5088
1088
1108
1108
1000
0000
0000
ENDCHAR
STARTCHAR U+67C7
ENCODING 26567
SWIDTH 1000 0
DWIDTH 16 0
BBX 16 16 0 -2
BITMAP 
0000
100C
1070
14C0
3840
1BFE
1460
30E0
50D0
5150
1148
124C
1444
0000
0000
0000
ENDCHAR
STARTCHAR U+67D5
ENCODING 26581
SWIDTH 1000 0
DWIDTH 16 0
BBX 16 16 0 -2
BITMAP 
1000
1008
10F8
1450
3820
1004
1DFC
3468
30A0
5120
1220
1420
1020
10E0
0000
0000
ENDCHAR
STARTCHAR U+67D6
ENCODING 26582
SWIDTH 1000 0
DWIDTH 16 0
BBX 16 16 0 -2
BITMAP 
0000
1000
11FC
1444
3884
1084
1D08
3618
5000
51F8
1108
1108
1108
11FC
0000
0000
ENDCHAR
STARTCHAR U+67E8
ENCODING 26600
SWIDTH 1000 0
DWIDTH 16 0
BBX 16 16 0 -2
BITMAP 
0000
1080
1084
1378
7D40
1240
1A48
37F8
3248
5248
1248
1248
1048
1040
0000
0000
ENDCHAR
STARTCHAR U+6801
ENCODING 26625
SWIDTH 1000 0
DWIDTH 16 0
BBX 16 16 0 -2
BITMAP 
0000
1104
113C
1A64
33E4
1264
3CA4
37A4
51A4
5124
1124
1224
1420
1020
0000
0000
ENDCHAR
STARTCHAR U+6806
ENCODING 26630
SWIDTH 1000 0
DWIDTH 16 0
BBX 16 16 0 -2
BITMAP 
0000
0100
7FFE
0100
1FF8
1108
1108
1EF0
0460
181E
21C0
0400
0380
0060
0000
0000
ENDCHAR
STARTCHAR U+680D
ENCODING 26637
SWIDTH 1000 0
DWIDTH 16 0
BBX 16 16 0 -2
BITMAP 
0000
1020
10A0
1120
7D2C
12F0
1A20
3420
3028
50F0
1020
1020
1020
13FE
0000
0000
ENDCHAR
STARTCHAR U+6810
ENCODING 26640
SWIDTH 1000 0
DWIDTH 16 0
BBX 16 16 0 -2
BITMAP 
0000
1040
1020
1020
7CE0
1024
1828
35B0
30A0
5130
1130
122C
1024
1060
0000
0000
ENDCHAR
STARTCHAR U+6815
ENCODING 26645
SWIDTH 1000 0
DWIDTH 16 0
BBX 16 16 0 -2
BITMAP 
0000
1004
11F8
1520
7D20
1120
19DC
1508
3108
51FC
1120
1120
1120
1120
00DC
0000
ENDCHAR
STARTCHAR U+681B
ENCODING 26651
SWIDTH 1000 0
DWIDTH 16 0
BBX 16 16 0 -2
BITMAP 
0000
1040
13F8
1048
3888
1118
3800
3110
5294
53FC
1294
12A4
14A4
1448
0000
0000
ENDCHAR
STARTCHAR U+6823
ENCODING 26659
SWIDTH 1000 0
DWIDTH 16 0
BBX 16 16 0 -2
BITMAP 
0000
1180
1104
1138
7E10
3210
3E10
56FE
5210
5210
1210
1210
1214
1068
0000
0000
ENDCHAR
STARTCHAR U+6824
ENCODING 26660
SWIDTH 1000 0
DWIDTH 16 0
BBX 16 16 0 -2
BITMAP 
0000
1020
1020
1220
7A64
10E8
38B0
38B0
52B0
52A8
1528
1424
1C20
1060
0000
0000
ENDCHAR
STARTCHAR U+6836
ENCODING 26678
SWIDTH 1000 0
DWIDTH 16 0
BBX 16 16 0 -2
BITMAP 
0000
1004
13FC
1204
7E44
12FC
3A44
3644
5264
5294
1294
1304
1204
13FC
0000
0000
ENDCHAR
STARTCHAR U+6847
ENCODING 26695
SWIDTH 1000 0
DWIDTH 16 0
BBX 16 16 0 -2
BITMAP 
0000
0800
0A7C
7F48
1248
1C48
0A7C
1000
6004
7FFC
0740
0930
1108
2004
0000
0000
ENDCHAR
STARTCHAR U+6856
ENCODING 26710
SWIDTH 1000 0
DWIDTH 16 0
BBX 16 16 0 -2
BITMAP 
0000
1040
1080
1280
3BF8
32B8
3AB8
56B8
52B8
52B8
12B8
12B8
12B8
17FE
0000
0000
ENDCHAR
STARTCHAR U+685A
ENCODING 26714
SWIDTH 1000 0
DWIDTH 16 0
BBX 16 16 0 -2
BITMAP 
0000
1124
1148
1290
7D48
1124
1800
3484
517C
5208
1590
1050
1060
1080
0300
0000
ENDCHAR
STARTCHAR U+685E
ENCODING 26718
SWIDTH 1000 0
DWIDTH 16 0
BBX 16 16 0 -2
BITMAP 
0000
1140
1178
1248
3BC8
1250
3CD0
37C8
50C4
5144
1144
124C
1240
1440
0000
0000
ENDCHAR
STARTCHAR U+686A
ENCODING 26730
SWIDTH 1000 0
DWIDTH 16 0
BBX 16 16 0 -2
BITMAP 
0000
11FC
1008
1008
38F8
3008
39F8
3408
5010
53FC
1010
1090
1010
1010
0000
0000
ENDCHAR
STARTCHAR U+686C
ENCODING 26732
SWIDTH 1000 0
DWIDTH 16 0
BBX 16 16 0 -2
BITMAP 
0000
1040
0148
2144
0248
1850
1020
20C0
0F00
0104
3FF8
0D10
1108
2108
0000
0000
ENDCHAR
STARTCHAR U+6873
ENCODING 26739
SWIDTH 1000 0
DWIDTH 16 0
BBX 16 16 0 -2
BITMAP 
0000
1040
1080
1108
7DF8
1084
33FE
3910
5548
5244
1048
10F0
1040
1040
0000
0000
ENDCHAR
STARTCHAR U+688E
ENCODING 26766
SWIDTH 1000 0
DWIDTH 16 0
BBX 16 16 0 -2
BITMAP 
0000
1060
1084
1578
3908
11F8
3908
35F0
5000
5108
11F0
1100
1104
11FC
0000
0000
ENDCHAR
STARTCHAR U+6895
ENCODING 26773
SWIDTH 1000 0
DWIDTH 16 0
BBX 16 16 0 -2
BITMAP 
0000
1000
11FC
1044
7CC4
1048
3888
3508
5040
50A0
1304
1502
150A
10F8
0000
0000
ENDCHAR
STARTCHAR U+6899
ENCODING 26777
SWIDTH 1000 0
DWIDTH 16 0
BBX 16 16 0 -2
BITMAP 
0000
1000
1040
11FC
7D44
1144
38F8
3444
53FC
5244
1244
13F8
1040
1000
0000
0000
ENDCHAR
STARTCHAR U+689E
ENCODING 26782
SWIDTH 1000 0
DWIDTH 16 0
BBX 16 16 0 -2
BITMAP 
0000
1008
10F8
1008
7DF8
1100
3900
350C
50F0
5000
1324
1302
150A
10F8
0000
0000
ENDCHAR
STARTCHAR U+68B7
ENCODING 26807
SWIDTH 1000 0
DWIDTH 16 0
BBX 16 16 0 -2
BITMAP 
0000
0800
0FFC
0868
3E18
2218
2224
3FC4
0180
7FFE
0100
0530
1908
2004
0000
0000
ENDCHAR
STARTCHAR U+68B8
ENCODING 26808
SWIDTH 1000 0
DWIDTH 16 0
BBX 16 16 0 -2
BITMAP 
0000
1084
1304
1114
3914
37D4
3114
5B94
5554
5514
1114
1114
1104
110C
0000
0000
ENDCHAR
STARTCHAR U+68BD
ENCODING 26813
SWIDTH 1000 0
DWIDTH 16 0
BBX 16 16 0 -2
BITMAP 
0000
1000
1040
1046
7DF8
1040
3840
35FC
5040
50A0
1300
1302
150A
10F8
0000
0000
ENDCHAR
STARTCHAR U+68BE
ENCODING 26814
SWIDTH 1000 0
DWIDTH 16 0
BBX 16 16 0 -2
BITMAP 
0000
1040
1040
11F8
3840
1148
3850
3066
51F8
50E0
1150
1248
1444
1040
0000
0000
ENDCHAR
STARTCHAR U+68BF
ENCODING 26815
SWIDTH 1000 0
DWIDTH 16 0
BBX 16 16 0 -2
BITMAP 
0000
1020
1044
1278
7C40
3050
3394
5AF8
5210
9214
1278
1210
1310
14FC
0000
0000
ENDCHAR
STARTCHAR U+68C1
ENCODING 26817
SWIDTH 1000 0
DWIDTH 16 0
BBX 16 16 0 -2
BITMAP 
0000
100C
1088
1400
7DFC
1108
1908
3508
51F0
5090
1090
1090
1112
101E
0200
0000
ENDCHAR
STARTCHAR U+68C3
ENCODING 26819
SWIDTH 1000 0
DWIDTH 16 0
BBX 16 16 0 -2
BITMAP 
0000
0440
3844
0ABC
3C24
1C44
2A04
0818
0100
7FFE
0100
0D10
110C
2104
0000
0000
ENDCHAR
STARTCHAR U+68DB
ENCODING 26843
SWIDTH 1000 0
DWIDTH 16 0
BBX 16 16 0 -2
BITMAP 
0000
1040
1044
13B8
7D08
1274
3B84
35FC
5188
5178
1108
11F8
1108
1118
0000
0000
ENDCHAR
STARTCHAR U+68E2
ENCODING 26850
SWIDTH 1000 0
DWIDTH 16 0
BBX 16 16 0 -2
BITMAP 
0000
1004
13FC
1A94
3224
33FC
3A44
5244
52B4
1284
1284
12FC
1204
120C
0000
0000
ENDCHAR
STARTCHAR U+68FE
ENCODING 26878
SWIDTH 1000 0
DWIDTH 16 0
BBX 16 16 0 -2
BITMAP 
0000
0800
3FFC
0860
1E78
28A0
0800
3FFE
6008
07E0
0440
0440
0840
003C
1000
0000
ENDCHAR
STARTCHAR U+68FF
ENCODING 26879
SWIDTH 1000 0
DWIDTH 16 0
BBX 16 16 0 -2
BITMAP 
0000
1060
118C
1104
7D44
118C
3104
3D04
55F8
5050
1050
1092
1092
111E
0000
0000
ENDCHAR
STARTCHAR U+6902
ENCODING 26882
SWIDTH 1000 0
DWIDTH 16 0
BBX 16 16 0 -2
BITMAP 
0000
1000
11F0
1E10
33F0
3024
3BD8
3840
5148
5140
9050
1348
1444
10C0
0000
0000
ENDCHAR
STARTCHAR U+6903
ENCODING 26883
SWIDTH 1000 0
DWIDTH 16 0
BBX 16 16 0 -2
BITMAP 
1040
1040
107C
1A40
33BE
1248
3AF0
3244
5238
5250
5250
1250
1490
141E
0000
0000
ENDCHAR
STARTCHAR U+6918
ENCODING 26904
SWIDTH 1000 0
DWIDTH 16 0
BBX 16 16 0 -2
BITMAP 
0000
0820
0A24
3C78
1C78
2AA4
4A00
0100
1EF8
0030
0040
0380
0C00
37FC
0000
0000
ENDCHAR
STARTCHAR U+691D
ENCODING 26909
SWIDTH 1000 0
DWIDTH 16 0
BBX 16 16 0 -2
BITMAP 
0000
11F8
3F48
1148
3D48
1968
24A0
013C
0100
7FFE
0380
0560
1918
6104
0000
0000
ENDCHAR
STARTCHAR U+691E
ENCODING 26910
SWIDTH 1000 0
DWIDTH 16 0
BBX 16 16 0 -2
BITMAP 
0000
1018
13E0
3D04
1DF8
3310
1110
0310
0104
3FF8
0100
0910
110C
2104
0000
0000
ENDCHAR
STARTCHAR U+6929
ENCODING 26921
SWIDTH 1000 0
DWIDTH 16 0
BBX 16 16 0 -2
BITMAP 
1000
1020
13FE
1220
3A20
1278
3A24
36F8
5228
5270
1260
1250
1488
1406
0000
0000
ENDCHAR
STARTCHAR U+692B
ENCODING 26923
SWIDTH 1000 0
DWIDTH 16 0
BBX 16 16 0 -2
BITMAP 
1000
1008
1090
1000
39F8
1148
39F8
3548
5148
51F0
1046
13F8
1040
1000
0000
0000
ENDCHAR
STARTCHAR U+692C
ENCODING 26924
SWIDTH 1000 0
DWIDTH 16 0
BBX 16 16 0 -2
BITMAP 
0000
1040
1020
1BDE
3200
11F8
3110
3910
51F0
5110
5110
11F0
1110
17FE
0000
0000
ENDCHAR
STARTCHAR U+692E
ENCODING 26926
SWIDTH 1000 0
DWIDTH 16 0
BBX 16 16 0 -2
BITMAP 
0040
1040
1088
13F4
3940
3084
3BF8
3110
524C
5490
1320
10C8
1330
10C0
0100
0000
ENDCHAR
STARTCHAR U+693A
ENCODING 26938
SWIDTH 1000 0
DWIDTH 16 0
BBX 16 16 0 -2
BITMAP 
0000
1104
12FC
1284
7A84
327C
3E10
3212
527C
5238
1258
1254
1292
1210
0000
0000
ENDCHAR
STARTCHAR U+693E
ENCODING 26942
SWIDTH 1000 0
DWIDTH 16 0
BBX 16 16 0 -2
BITMAP 
0000
1090
1090
13FE
3800
33C4
3A54
3254
53D4
5254
13D4
1254
1244
10CC
0000
0000
ENDCHAR
STARTCHAR U+6943
ENCODING 26947
SWIDTH 1000 0
DWIDTH 16 0
BBX 16 16 0 -2
BITMAP 
1000
13FC
1204
13FC
3A00
13FC
3A40
3A88
52F4
5220
1224
14F8
1420
1026
01D8
0000
ENDCHAR
STARTCHAR U+6946
ENCODING 26950
SWIDTH 1000 0
DWIDTH 16 0
BBX 16 16 0 -2
BITMAP 
1000
13FE
1090
1294
3BFC
1294
3BFC
3240
5098
53F4
1110
1220
11E0
1198
0200
0000
ENDCHAR
STARTCHAR U+6947
ENCODING 26951
SWIDTH 1000 0
DWIDTH 16 0
BBX 16 16 0 -2
BITMAP 
1000
11F8
1188
1588
39B8
11A8
3BFC
3604
52F4
5294
1294
12F4
1204
120C
0000
0000
ENDCHAR
STARTCHAR U+694D
ENCODING 26957
SWIDTH 1000 0
DWIDTH 16 0
BBX 16 16 0 -2
BITMAP 
0100
0100
0104
3FF8
05C0
0930
310C
0100
0000
7BBC
4AA4
4AA4
4AA4
7338
0000
0000
ENDCHAR
STARTCHAR U+6950
ENCODING 26960
SWIDTH 1000 0
DWIDTH 16 0
BBX 16 16 0 -2
BITMAP 
1000
1200
13FC
1244
3BFC
1244
3BBC
3490
5108
5294
1110
1110
1110
1210
0000
0000
ENDCHAR
STARTCHAR U+6967
ENCODING 26983
SWIDTH 1000 0
DWIDTH 16 0
BBX 16 16 0 -2
BITMAP 
1000
1108
17FE
1108
3940
3248
3BF8
3A48
5248
51F4
1040
1098
1104
1204
0000
0000
ENDCHAR
STARTCHAR U+6985
ENCODING 27013
SWIDTH 1000 0
DWIDTH 16 0
BBX 16 16 0 -2
BITMAP 
1000
1008
11F8
1508
39F8
1108
39F8
3508
5204
53FC
12A4
12A4
12A4
17FE
0000
0000
ENDCHAR
STARTCHAR U+698B
ENCODING 27019
SWIDTH 1000 0
DWIDTH 16 0
BBX 16 16 0 -2
BITMAP 
1000
1008
10F8
1408
38F8
3008
38F8
3800
519C
5084
139C
1084
1084
131C
0000
0000
ENDCHAR
STARTCHAR U+698C
ENCODING 27020
SWIDTH 1000 0
DWIDTH 16 0
BBX 16 16 0 -2
BITMAP 
0000
13F8
1014
1CB8
31B4
30A8
38AC
30F8
50AA
50AC
10AA
1128
1128
1026
0000
0000
ENDCHAR
STARTCHAR U+698F
ENCODING 27023
SWIDTH 1000 0
DWIDTH 16 0
BBX 16 16 0 -2
BITMAP 
0000
110C
1090
1884
3178
1080
3908
3204
5200
53FC
12D4
12D4
12D4
17FE
0000
0000
ENDCHAR
STARTCHAR U+699D
ENCODING 27037
SWIDTH 1000 0
DWIDTH 16 0
BBX 16 16 0 -2
BITMAP 
0000
10A8
1338
1128
7AA8
104E
3A00
3FBC
5228
52A8
16A8
16D0
1A28
120C
0000
0000
ENDCHAR
STARTCHAR U+699F
ENCODING 27039
SWIDTH 1000 0
DWIDTH 16 0
BBX 16 16 0 -2
BITMAP 
0000
1020
1020
13DC
3A00
1024
39D8
3490
5024
51F8
1020
10F8
1020
1020
0000
0000
ENDCHAR
STARTCHAR U+69A2
ENCODING 27042
SWIDTH 1000 0
DWIDTH 16 0
BBX 16 16 0 -2
BITMAP 
0000
1020
1020
1BDC
3200
30F8
3888
3950
50A0
5120
1270
10AC
1320
1060
0000
0000
ENDCHAR
STARTCHAR U+69C0
ENCODING 27072
SWIDTH 1000 0
DWIDTH 16 0
BBX 16 16 0 -2
BITMAP 
0000
0104
7FFC
0FF0
0FF0
0004
3FFC
2FE4
27C4
0108
7FFE
0540
0938
3104
0000
0000
ENDCHAR
STARTCHAR U+69D2
ENCODING 27090
SWIDTH 1000 0
DWIDTH 16 0
BBX 16 16 0 -2
BITMAP 
0000
1060
13FE
1080
3910
13E0
38C8
37F4
5000
53FC
1224
11FC
1224
11FC
0000
0000
ENDCHAR
STARTCHAR U+69D5
ENCODING 27093
SWIDTH 1000 0
DWIDTH 16 0
BBX 16 16 0 -2
BITMAP 
1000
1040
107C
1440
39BC
1108
39F8
35F8
5020
57FE
1040
1148
1244
1002
0000
0000
ENDCHAR
STARTCHAR U+69DA
ENCODING 27098
SWIDTH 1000 0
DWIDTH 16 0
BBX 16 16 0 -2
BITMAP 
1004
13FE
1090
17FE
3A94
13FC
3800
35FC
5108
5128
1128
1148
1040
1088
0000
0000
ENDCHAR
STARTCHAR U+69DC
ENCODING 27100
SWIDTH 1000 0
DWIDTH 16 0
BBX 16 16 0 -2
BITMAP 
1100
1120
1104
1AF8
35FC
1220
3BF8
3224
51D8
53F0
1090
110C
1104
121C
0000
0000
ENDCHAR
STARTCHAR U+69E1
ENCODING 27105
SWIDTH 1000 0
DWIDTH 16 0
BBX 16 16 0 -2
BITMAP 
1000
11FC
1070
1470
3988
33FC
3994
3508
52D4
57FE
1140
1148
1244
1040
0000
0000
ENDCHAR
STARTCHAR U+69E3
ENCODING 27107
SWIDTH 1000 0
DWIDTH 16 0
BBX 16 16 0 -2
BITMAP 
1000
1020
11FC
1A40
31F8
1060
3890
3006
51F8
51E8
5148
1148
1088
1018
0000
0000
ENDCHAR
STARTCHAR U+69E9
ENCODING 27113
SWIDTH 1000 0
DWIDTH 16 0
BBX 16 16 0 -2
BITMAP 
0000
0AFC
36A0
3EA0
22FC
1C30
3E50
2014
3E08
0104
3FF8
0520
0918
3104
0000
0000
ENDCHAR
STARTCHAR U+69F0
ENCODING 27120
SWIDTH 1000 0
DWIDTH 16 0
BBX 16 16 0 -2
BITMAP 
1000
2040
227C
28D0
3230
326C
2C80
67FC
6220
6278
2224
2478
2A00
09FC
0000
0000
ENDCHAR
STARTCHAR U+69FA
ENCODING 27130
SWIDTH 1000 0
DWIDTH 16 0
BBX 16 16 0 -2
BITMAP 
1000
1004
13FE
1220
3BFC
1248
3BFE
3248
52F0
52C4
14C8
14D0
174C
1040
0000
0000
ENDCHAR
STARTCHAR U+6A0E
ENCODING 27150
SWIDTH 1000 0
DWIDTH 16 0
BBX 16 16 0 -2
BITMAP 
0000
1020
1220
1BDC
3500
1278
3A40
32F8
5688
5A88
12F8
1288
1288
12F8
0000
0000
ENDCHAR
STARTCHAR U+6A10
ENCODING 27152
SWIDTH 1000 0
DWIDTH 16 0
BBX 16 16 0 -2
BITMAP 
1040
1040
107C
1040
3BFC
1244
1A34
3654
32AC
52AC
1254
12A4
1224
11FC
0000
0000
ENDCHAR
STARTCHAR U+6A1C
ENCODING 27164
SWIDTH 1000 0
DWIDTH 16 0
BBX 16 16 0 -2
BITMAP 
1000
1020
13FC
1A00
3288
128C
1BF8
3688
5288
5288
1270
1404
1554
124A
0000
0000
ENDCHAR
STARTCHAR U+6A2C
ENCODING 27180
SWIDTH 1000 0
DWIDTH 16 0
BBX 16 16 0 -2
BITMAP 
1000
1040
13FC
7E24
125C
13D4
3A24
5244
53FC
1240
10A0
1504
1502
10F8
0000
0000
ENDCHAR
STARTCHAR U+6A2D
ENCODING 27181
SWIDTH 1000 0
DWIDTH 16 0
BBX 16 16 0 -2
BITMAP 
1100
1110
13FC
7D10
11F0
1110
39F0
5114
53F8
1148
124C
15F0
1040
1044
03B8
0000
ENDCHAR
STARTCHAR U+6A33
ENCODING 27187
SWIDTH 1000 0
DWIDTH 16 0
BBX 16 16 0 -2
BITMAP 
1008
11F8
100C
7DF8
13F8
1000
3BBC
5124
53BC
1010
17FE
1110
1090
1030
0000
0000
ENDCHAR
STARTCHAR U+6A42
ENCODING 27202
SWIDTH 1000 0
DWIDTH 16 0
BBX 16 16 0 -2
BITMAP 
1108
1094
1168
7E64
13FC
12A4
3B1C
52FC
5204
11F8
1044
13F8
1098
1304
0400
0000
ENDCHAR
STARTCHAR U+6A43
ENCODING 27203
SWIDTH 1000 0
DWIDTH 16 0
BBX 16 16 0 -2
BITMAP 
1000
13E8
12B6
7D18
120C
13B8
38A8
53C8
5404
147C
13A8
10B0
1110
136E
0000
0000
ENDCHAR
STARTCHAR U+6A4C
ENCODING 27212
SWIDTH 1000 0
DWIDTH 16 0
BBX 16 16 0 -2
BITMAP 
1000
13DC
14E4
7FFC
14E4
135C
3A04
52F4
5294
12F4
1294
1374
1334
120C
0000
0000
ENDCHAR
STARTCHAR U+6A57
ENCODING 27223
SWIDTH 1000 0
DWIDTH 16 0
BBX 16 16 0 -2
BITMAP 
1000
1110
139C
7D10
10A4
17BC
3CA4
54BC
57A4
14A4
14DC
13C4
1244
100C
0000
0000
ENDCHAR
STARTCHAR U+6A5C
ENCODING 27228
SWIDTH 1000 0
DWIDTH 16 0
BBX 16 16 0 -2
BITMAP 
0004
3FFC
2920
20BC
2F50
2AA0
4FB8
4444
0100
0904
3FF8
0520
0918
3104
0000
0000
ENDCHAR
STARTCHAR U+6A63
ENCODING 27235
SWIDTH 1000 0
DWIDTH 16 0
BBX 16 16 0 -2
BITMAP 
1000
1020
11FE
7A84
1084
1280
3870
53FC
5324
13FC
1324
13FC
1444
144C
0000
0000
ENDCHAR
STARTCHAR U+6A6C
ENCODING 27244
SWIDTH 1000 0
DWIDTH 16 0
BBX 16 16 0 -2
BITMAP 
1000
13BC
1328
7D34
1398
1118
3B68
508E
55FC
1104
1104
11FC
1104
11FC
0000
0000
ENDCHAR
STARTCHAR U+6A6E
ENCODING 27246
SWIDTH 1000 0
DWIDTH 16 0
BBX 16 16 0 -2
BITMAP 
1000
12BC
1364
7E64
13EC
10A0
3B00
52FC
51FC
1204
13FC
1204
11F8
1106
0200
0000
ENDCHAR
STARTCHAR U+6A70
ENCODING 27248
SWIDTH 1000 0
DWIDTH 16 0
BBX 16 16 0 -2
BITMAP 
1040
1040
13FC
7E08
13F8
13F8
3A08
53F0
5144
1248
17DC
1044
13F8
1040
0000
0000
ENDCHAR
STARTCHAR U+6A74
ENCODING 27252
SWIDTH 1000 0
DWIDTH 16 0
BBX 16 16 0 -2
BITMAP 
1000
1090
12D4
7E98
1290
13DE
3840
5198
53E0
1104
17FA
1140
114C
12C4
0000
0000
ENDCHAR
STARTCHAR U+6A75
ENCODING 27253
SWIDTH 1000 0
DWIDTH 16 0
BBX 16 16 0 -2
BITMAP 
1200
1288
12D0
7F94
129C
17E4
3828
57A8
5498
1798
1488
1798
14A8
15A4
0000
0000
ENDCHAR
STARTCHAR U+6A77
ENCODING 27255
SWIDTH 1000 0
DWIDTH 16 0
BBX 16 16 0 -2
BITMAP 
2240
2248
22E8
FEAE
22E8
32A8
2AA8
64E8
A014
A1F0
2110
2110
2110
2212
000C
0000
ENDCHAR
STARTCHAR U+6A7A
ENCODING 27258
SWIDTH 1000 0
DWIDTH 16 0
BBX 16 16 0 -2
BITMAP 
1000
13FC
1264
7FFC
1264
13DC
3A04
52F4
5294
12F4
1294
1294
12E4
120C
0000
0000
ENDCHAR
STARTCHAR U+6A7B
ENCODING 27259
SWIDTH 1000 0
DWIDTH 16 0
BBX 16 16 0 -2
BITMAP 
1000
11F0
1090
7C90
11F0
1090
3914
50E8
539C
1328
1328
1338
1528
1564
0298
0000
ENDCHAR
STARTCHAR U+6A7D
ENCODING 27261
SWIDTH 1000 0
DWIDTH 16 0
BBX 16 16 0 -2
BITMAP 
0000
1220
117C
1C20
33FE
1248
3A14
5368
51FC
1120
1224
1478
1600
11FC
0000
0000
ENDCHAR
STARTCHAR U+6A82
ENCODING 27266
SWIDTH 1000 0
DWIDTH 16 0
BBX 16 16 0 -2
BITMAP 
1000
1090
13FC
7E94
13FC
13FC
3804
53F8
53F8
1404
17FC
1538
1510
118C
0000
0000
ENDCHAR
STARTCHAR U+6A88
ENCODING 27272
SWIDTH 1000 0
DWIDTH 16 0
BBX 16 16 0 -2
BITMAP 
1204
13FC
1254
7FFC
1200
11FC
3804
53F8
5204
11F8
110C
1310
1510
118C
0100
0000
ENDCHAR
STARTCHAR U+6A8A
ENCODING 27274
SWIDTH 1000 0
DWIDTH 16 0
BBX 16 16 0 -2
BITMAP 
0000
1148
17D8
7D14
17E4
347C
3FD0
5450
57D4
1518
1150
1790
1110
1100
0000
0000
ENDCHAR
STARTCHAR U+6A8F
ENCODING 27279
SWIDTH 1000 0
DWIDTH 16 0
BBX 16 16 0 -2
BITMAP 
0000
10A4
11A8
7CA4
1358
3110
3824
51D8
53FC
1044
13F8
1150
124C
1442
0000
0000
ENDCHAR
STARTCHAR U+6A98
ENCODING 27288
SWIDTH 1000 0
DWIDTH 16 0
BBX 16 16 0 -2
BITMAP 
1000
1390
1494
7CEC
14A4
1498
3F7E
5410
5790
16BE
1690
1A90
1A90
1390
0000
0000
ENDCHAR
STARTCHAR U+6A99
ENCODING 27289
SWIDTH 1000 0
DWIDTH 16 0
BBX 16 16 0 -2
BITMAP 
0000
10F8
1314
7FF4
1314
1BF4
36F4
3204
71B8
10A0
13BC
12A4
12A4
00A4
0000
0000
ENDCHAR
STARTCHAR U+6AA7
ENCODING 27303
SWIDTH 1000 0
DWIDTH 16 0
BBX 16 16 0 -2
BITMAP 
1100
1108
119C
7D00
1104
12FC
3BA4
5564
5258
1498
1000
1124
1502
14F8
0000
0000
ENDCHAR
STARTCHAR U+6AB2
ENCODING 27314
SWIDTH 1000 0
DWIDTH 16 0
BBX 16 16 0 -2
BITMAP 
1000
13FE
1404
7DFC
15FC
15CC
3DFC
55B4
55FC
141C
14F4
1494
1404
13F8
0000
0000
ENDCHAR
STARTCHAR U+6AB5
ENCODING 27317
SWIDTH 1000 0
DWIDTH 16 0
BBX 16 16 0 -2
BITMAP 
1008
1288
1354
7FD8
1288
1354
3B88
53FE
5288
1354
1398
1354
13B8
13FE
0000
0000
ENDCHAR
STARTCHAR U+6ABC
ENCODING 27324
SWIDTH 1000 0
DWIDTH 16 0
BBX 16 16 0 -2
BITMAP 
1000
10F8
1348
7D50
10E8
17FE
3800
51F8
53FC
1008
11F0
1124
150A
14F8
0000
0000
ENDCHAR
STARTCHAR U+6AC0
ENCODING 27328
SWIDTH 1000 0
DWIDTH 16 0
BBX 16 16 0 -2
BITMAP 
1110
1110
13FC
7DF0
1110
11F0
3BFE
5148
53E6
14D0
11E8
10C0
114C
12C4
0000
0000
ENDCHAR
STARTCHAR U+6AC4
ENCODING 27332
SWIDTH 1000 0
DWIDTH 16 0
BBX 16 16 0 -2
BITMAP 
1000
1038
11C0
7FFE
1244
13FC
3AD4
53FC
5240
11F8
1044
13B8
1284
1492
0000
0000
ENDCHAR
STARTCHAR U+6ACA
ENCODING 27338
SWIDTH 1000 0
DWIDTH 16 0
BBX 16 16 0 -2
BITMAP 
1000
13DE
1266
7FFE
13DE
1202
3A72
5292
5262
12DA
12F2
1292
1292
12E6
0000
0000
ENDCHAR
STARTCHAR U+6ACE
ENCODING 27342
SWIDTH 1000 0
DWIDTH 16 0
BBX 16 16 0 -2
BITMAP 
1000
1024
13D8
7E04
13F8
1278
3A04
53F8
53FC
1524
15FC
15FC
1540
118E
0000
0000
ENDCHAR
STARTCHAR U+6AD2
ENCODING 27346
SWIDTH 1000 0
DWIDTH 16 0
BBX 16 16 0 -2
BITMAP 
2100
2154
2288
F900
21DC
3298
6D90
6F08
A2E4
2408
21F0
21C8
2144
2204
0000
0000
ENDCHAR
STARTCHAR U+6AD7
ENCODING 27351
SWIDTH 1000 0
DWIDTH 16 0
BBX 16 16 0 -2
BITMAP 
1080
1094
1198
7C04
13FC
12A4
3BFC
5028
5224
13F8
1324
1298
141A
1066
0000
0000
ENDCHAR
STARTCHAR U+6AD8
ENCODING 27352
SWIDTH 1000 0
DWIDTH 16 0
BBX 16 16 0 -2
BITMAP 
1100
1114
1198
7FFC
1154
1788
3800
51F8
57FE
1008
11F0
1120
1502
1498
0060
0000
ENDCHAR
STARTCHAR U+6AE2
ENCODING 27362
SWIDTH 1000 0
DWIDTH 16 0
BBX 16 16 0 -2
BITMAP 
0000
1110
13D0
7BF4
136C
33E4
3B48
52D8
53D8
1118
17F0
1298
1128
1004
0200
0000
ENDCHAR
STARTCHAR U+6AE3
ENCODING 27363
SWIDTH 1000 0
DWIDTH 16 0
BBX 16 16 0 -2
BITMAP 
1000
1194
1308
7E10
10FE
10A4
3AFC
52A4
57FC
11FC
1220
14FE
1600
19FE
0000
0000
ENDCHAR
STARTCHAR U+6AE6
ENCODING 27366
SWIDTH 1000 0
DWIDTH 16 0
BBX 16 16 0 -2
BITMAP 
0000
1024
13D8
7E94
13FC
1294
3B68
53FC
53A4
1270
1488
15F8
1650
107E
0180
0000
ENDCHAR
STARTCHAR U+6AE9
ENCODING 27369
SWIDTH 1000 0
DWIDTH 16 0
BBX 16 16 0 -2
BITMAP 
2000
27FE
24FE
FFE2
27DE
3402
6C42
64B2
A5C2
A51A
258A
251A
250A
05F6
0000
0000
ENDCHAR
STARTCHAR U+6AED
ENCODING 27373
SWIDTH 1000 0
DWIDTH 16 0
BBX 16 16 0 -2
BITMAP 
0000
17BE
14A8
7FA8
339C
3418
3CA8
532E
51FC
1108
11F8
1108
11F0
1004
03F8
0000
ENDCHAR
STARTCHAR U+6AF4
ENCODING 27380
SWIDTH 1000 0
DWIDTH 16 0
BBX 16 16 0 -2
BITMAP 
1000
123E
17D4
7A24
1680
17BE
3EA4
56BC
5724
133C
16A4
163C
1224
1042
0000
0000
ENDCHAR
STARTCHAR U+6AF5
ENCODING 27381
SWIDTH 1000 0
DWIDTH 16 0
BBX 16 16 0 -2
BITMAP 
1000
1110
139C
7E40
1124
12F8
3A28
57F0
5228
13F0
1224
11D8
1224
1482
0000
0000
ENDCHAR
STARTCHAR U+6AF7
ENCODING 27383
SWIDTH 1000 0
DWIDTH 16 0
BBX 16 16 0 -2
BITMAP 
1080
10F0
1320
7FFC
1264
13FC
3960
57DE
5754
116C
1354
17EC
1760
117E
0000
0000
ENDCHAR
STARTCHAR U+6AFE
ENCODING 27390
SWIDTH 1000 0
DWIDTH 16 0
BBX 16 16 0 -2
BITMAP 
0100
2110
22E8
7D94
27A4
3238
2A14
65A2
613E
27C8
254C
256C
256A
07DA
0000
0000
ENDCHAR
STARTCHAR U+6AFF
ENCODING 27391
SWIDTH 1000 0
DWIDTH 16 0
BBX 16 16 0 -2
BITMAP 
0000
1168
139C
7D88
1256
3004
3FFC
55F8
5208
11F8
1080
177C
1408
13FC
0000
0000
ENDCHAR
STARTCHAR U+6B01
ENCODING 27393
SWIDTH 1000 0
DWIDTH 16 0
BBX 16 16 0 -2
BITMAP 
2008
2288
27C8
FEDE
27C8
36CC
310C
6FDA
A7E8
A468
2788
2688
2A48
2B28
0000
0000
ENDCHAR
STARTCHAR U+6B0D
ENCODING 27405
SWIDTH 1000 0
DWIDTH 16 0
BBX 16 16 0 -2
BITMAP 
1000
1094
1388
7D20
13FC
13FC
3A20
53F8
53FE
10C0
131C
13DC
1204
13FC
0000
0000
ENDCHAR
STARTCHAR U+6B0E
ENCODING 27406
SWIDTH 1000 0
DWIDTH 16 0
BBX 16 16 0 -2
BITMAP 
1010
1190
7DBE
1838
75B4
1190
1600
6BFE
7F00
21FE
3F10
3F70
2210
3D30
0000
0000
ENDCHAR
STARTCHAR U+6B14
ENCODING 27412
SWIDTH 1000 0
DWIDTH 16 0
BBX 16 16 0 -2
BITMAP 
1000
11DE
1266
7DDE
11DE
1102
3AFC
53FC
51FC
11FE
1008
11F8
10F0
109E
0300
0000
ENDCHAR
STARTCHAR U+6B15
ENCODING 27413
SWIDTH 1000 0
DWIDTH 16 0
BBX 16 16 0 -2
BITMAP 
1000
13FE
1264
7DD8
13FE
1408
3C90
53FE
5564
15E8
15D8
1568
19C8
1A56
0000
0000
ENDCHAR
STARTCHAR U+6B1C
ENCODING 27420
SWIDTH 1000 0
DWIDTH 16 0
BBX 16 16 0 -2
BITMAP 
1000
1044
13FC
7E44
15FC
17BC
3AA8
51F0
53FC
13FC
1F14
11EC
1618
138C
0000
0000
ENDCHAR
STARTCHAR U+6B26
ENCODING 27430
SWIDTH 1000 0
DWIDTH 16 0
BBX 16 16 0 -2
BITMAP 
0040
0840
1440
127C
22A4
0028
1C20
0020
1F30
0250
0450
0488
0908
0006
0200
0000
ENDCHAR
STARTCHAR U+6B29
ENCODING 27433
SWIDTH 1000 0
DWIDTH 16 0
BBX 16 16 0 -2
BITMAP 
0040
7F40
1140
127C
1284
2B28
4520
0020
7E30
4230
4250
4248
4288
3D06
0000
0000
ENDCHAR
STARTCHAR U+6B2A
ENCODING 27434
SWIDTH 1000 0
DWIDTH 16 0
BBX 16 16 0 -2
BITMAP 
0040
0840
4840
4A7C
4A94
4AA8
4A20
3C20
4930
4950
4950
4948
4988
3704
0000
0000
ENDCHAR
STARTCHAR U+6B2E
ENCODING 27438
SWIDTH 1000 0
DWIDTH 16 0
BBX 16 16 0 -2
BITMAP 
0040
2240
0440
017C
3EA4
4B28
4A20
4A20
4A20
4A50
3450
1090
2088
0104
0000
0000
ENDCHAR
STARTCHAR U+6B30
ENCODING 27440
SWIDTH 1000 0
DWIDTH 16 0
BBX 16 16 0 -2
BITMAP 
0840
0840
1040
3F7C
55A4
5528
5520
5520
5520
5550
5550
5690
3888
4104
0000
0000
ENDCHAR
STARTCHAR U+6B40
ENCODING 27456
SWIDTH 1000 0
DWIDTH 16 0
BBX 16 16 0 -2
BITMAP 
0000
0860
7F40
187C
1E84
2AA0
4820
3E20
0020
3E30
2850
2A48
4888
0906
0000
0000
ENDCHAR
STARTCHAR U+6B44
ENCODING 27460
SWIDTH 1000 0
DWIDTH 16 0
BBX 16 16 0 -2
BITMAP 
0000
3E20
2220
2E44
2A7C
2A10
7F20
4120
5D30
6530
6530
5948
4148
4386
0000
0000
ENDCHAR
STARTCHAR U+6B4F
ENCODING 27471
SWIDTH 1000 0
DWIDTH 16 0
BBX 16 16 0 -2
BITMAP 
0000
2020
7FC0
247E
3844
4890
7EA0
4920
3E20
7F30
0A50
3C48
0E88
7106
0000
0000
ENDCHAR
STARTCHAR U+6B57
ENCODING 27479
SWIDTH 1000 0
DWIDTH 16 0
BBX 16 16 0 -2
BITMAP 
0000
0830
1720
7FA4
055C
1A50
5A90
5A90
6990
7F90
48B0
7BA8
5ACC
12C6
0000
0000
ENDCHAR
STARTCHAR U+6B5A
ENCODING 27482
SWIDTH 1000 0
DWIDTH 16 0
BBX 16 16 0 -2
BITMAP 
0220
1220
2D40
097E
1E54
0990
3F10
2A10
1530
0030
3F28
2148
2144
3F04
0000
0000
ENDCHAR
STARTCHAR U+6B68
ENCODING 27496
SWIDTH 1000 0
DWIDTH 16 0
BBX 16 16 0 -2
BITMAP 
0000
0100
0100
09F8
0900
0904
7FFE
0100
0900
1108
11F0
2900
2500
43FC
0000
0000
ENDCHAR
STARTCHAR U+6B6C
ENCODING 27500
SWIDTH 1000 0
DWIDTH 16 0
BBX 16 16 0 -2
BITMAP 
0100
0900
09F8
0904
7FFE
0180
0FF0
0810
0990
1014
3FF8
1110
1090
2030
0000
0000
ENDCHAR
STARTCHAR U+6B71
ENCODING 27505
SWIDTH 1000 0
DWIDTH 16 0
BBX 16 16 0 -2
BITMAP 
0000
0818
09E0
2824
29F8
2E20
2BFC
29FC
2A24
29FC
2820
2DFC
3020
0026
03D8
0000
ENDCHAR
STARTCHAR U+6B7A
ENCODING 27514
SWIDTH 1000 0
DWIDTH 16 0
BBX 16 16 0 -2
BITMAP 
0000
0000
0104
01F8
0D00
0908
0EF8
1010
2410
4320
0040
0180
0600
1800
2000
0000
ENDCHAR
STARTCHAR U+6B90
ENCODING 27536
SWIDTH 1000 0
DWIDTH 16 0
BBX 16 16 0 -2
BITMAP 
0020
0224
3DF8
1020
1DFC
2524
2524
6524
18F8
08B0
1128
122C
2020
4020
0000
0000
ENDCHAR
STARTCHAR U+6B9C
ENCODING 27548
SWIDTH 1000 0
DWIDTH 16 0
BBX 16 16 0 -2
BITMAP 
0000
0350
3D54
11F8
2550
3D70
2504
64F8
1804
09F8
10C0
1148
2244
0002
0000
0000
ENDCHAR
STARTCHAR U+6B9D
ENCODING 27549
SWIDTH 1000 0
DWIDTH 16 0
BBX 16 16 0 -2
BITMAP 
0060
0440
39F8
2048
24F0
3C84
49F8
6928
1BC4
1048
11F0
2140
224C
4444
0000
0000
ENDCHAR
STARTCHAR U+6BD1
ENCODING 27601
SWIDTH 1000 0
DWIDTH 16 0
BBX 16 16 0 -2
BITMAP 
0000
2020
3EA0
34A0
4CBC
4DE8
44A8
7EA8
54A8
54A8
4CA0
4680
3C84
087E
0000
0000
ENDCHAR
STARTCHAR U+6BDC
ENCODING 27612
SWIDTH 1000 0
DWIDTH 16 0
BBX 16 16 0 -2
BITMAP 
0000
0620
1820
3020
1268
1CA8
30A4
1324
1D22
7020
1020
1020
1004
0FFC
0000
0000
ENDCHAR
STARTCHAR U+6BDD
ENCODING 27613
SWIDTH 1000 0
DWIDTH 16 0
BBX 16 16 0 -2
BITMAP 
0000
0608
1810
3020
1240
1C08
3010
1120
1E44
7008
1010
1060
1004
0FFE
0000
0000
ENDCHAR
STARTCHAR U+6BE5
ENCODING 27621
SWIDTH 1000 0
DWIDTH 16 0
BBX 16 16 0 -2
BITMAP 
0000
0680
1884
317C
1114
1DF4
7114
10F4
1714
3914
10E8
1038
1004
0FFC
0000
0000
ENDCHAR
STARTCHAR U+6BE9
ENCODING 27625
SWIDTH 1000 0
DWIDTH 16 0
BBX 16 16 0 -2
BITMAP 
0000
0620
1924
70A8
10B0
0C24
70F8
12A0
0CA8
7128
1024
1020
1002
0FFC
0000
0000
ENDCHAR
STARTCHAR U+6BED
ENCODING 27629
SWIDTH 1000 0
DWIDTH 16 0
BBX 16 16 0 -2
BITMAP 
0000
0208
3C30
00C0
3E48
4470
44C0
4240
7C5C
25E0
2840
2840
1C44
603C
0000
0000
ENDCHAR
STARTCHAR U+6BF4
ENCODING 27636
SWIDTH 1000 0
DWIDTH 16 0
BBX 16 16 0 -2
BITMAP 
0000
0650
1854
30DC
1050
1C54
70D8
1050
16D4
7958
1090
1110
1014
0FFC
0000
0000
ENDCHAR
STARTCHAR U+6BF6
ENCODING 27638
SWIDTH 1000 0
DWIDTH 16 0
BBX 16 16 0 -2
BITMAP 
0000
0450
3848
10F0
1444
18F8
30B0
102C
1450
78A0
10C8
1030
10C4
0FFC
0000
0000
ENDCHAR
STARTCHAR U+6BFA
ENCODING 27642
SWIDTH 1000 0
DWIDTH 16 0
BBX 16 16 0 -2
BITMAP 
0000
0C60
3060
1090
15FE
7840
11D4
11E8
1570
79E8
1254
1254
1004
0FFC
0000
0000
ENDCHAR
STARTCHAR U+6C0A
ENCODING 27658
SWIDTH 1000 0
DWIDTH 16 0
BBX 16 16 0 -2
BITMAP 
0000
0624
1BFC
31FC
1574
3994
1164
10FC
1DF8
70F8
1108
10F4
11FA
1FFE
0000
0000
ENDCHAR
STARTCHAR U+6C1C
ENCODING 27676
SWIDTH 1000 0
DWIDTH 16 0
BBX 16 16 0 -2
BITMAP 
0800
0800
0FFC
1020
2FE0
4000
1FF8
1050
1FD0
1050
1FC8
1048
104A
1FC6
0000
0000
ENDCHAR
STARTCHAR U+6C1E
ENCODING 27678
SWIDTH 1000 0
DWIDTH 16 0
BBX 16 16 0 -2
BITMAP 
0000
0800
0FF8
1010
27E0
3FF0
0050
1F90
0210
3FF0
2528
24AA
282A
2066
0000
0000
ENDCHAR
STARTCHAR U+6C2D
ENCODING 27693
SWIDTH 1000 0
DWIDTH 16 0
BBX 16 16 0 -2
BITMAP 
0000
0808
1FFC
2020
47C0
3FF8
0210
1FD0
3FF0
1FD0
2248
1FC8
0B86
1266
2000
0000
ENDCHAR
STARTCHAR U+6C31
ENCODING 27697
SWIDTH 1000 0
DWIDTH 16 0
BBX 16 16 0 -2
BITMAP 
0000
0804
17F8
1FF0
2000
1FF8
1FD0
1F90
1F90
0028
3FC8
37E8
0A46
34C6
0800
0000
ENDCHAR
STARTCHAR U+6C39
ENCODING 27705
SWIDTH 1000 0
DWIDTH 16 0
BBX 16 16 0 -2
BITMAP 
0000
0020
3F20
0424
04AC
09B0
08B0
1130
1228
2426
2020
2040
2004
1FFC
0000
0000
ENDCHAR
STARTCHAR U+6C3C
ENCODING 27708
SWIDTH 1000 0
DWIDTH 16 0
BBX 16 16 0 -2
BITMAP 
0000
0100
0100
3F08
0530
0908
090C
3304
4000
0100
0100
02C0
0420
181E
2000
0000
ENDCHAR
STARTCHAR U+6C44
ENCODING 27716
SWIDTH 1000 0
DWIDTH 16 0
BBX 16 16 0 -2
BITMAP 
0000
2040
1840
0840
0040
4040
3040
04C0
08C0
08A0
1120
3210
2208
040C
0000
0000
ENDCHAR
STARTCHAR U+6C45
ENCODING 27717
SWIDTH 1000 0
DWIDTH 16 0
BBX 16 16 0 -2
BITMAP 
0000
2004
17FE
0080
0100
4100
2200
03FC
0804
1008
1008
2008
2008
2070
0000
0000
ENDCHAR
STARTCHAR U+6C48
ENCODING 27720
SWIDTH 1000 0
DWIDTH 16 0
BBX 16 16 0 -2
BITMAP 
0000
2000
1BFE
0004
0404
2804
0834
1044
1184
1204
2004
2008
2008
1018
0000
0000
ENDCHAR
STARTCHAR U+6C51
ENCODING 27729
SWIDTH 1000 0
DWIDTH 16 0
BBX 16 16 0 -2
BITMAP 
0000
2018
1060
0380
0080
4080
2080
0084
0BF8
1080
1080
2080
6084
00FE
0000
0000
ENDCHAR
STARTCHAR U+6C53
ENCODING 27731
SWIDTH 1000 0
DWIDTH 16 0
BBX 16 16 0 -2
BITMAP 
0000
03F8
1808
0010
0060
2040
1040
0844
13F8
1040
1040
2040
6040
00C0
0000
0000
ENDCHAR
STARTCHAR U+6C56
ENCODING 27734
SWIDTH 1000 0
DWIDTH 16 0
BBX 16 16 0 -2
BITMAP 
0000
0100
2108
2108
2108
1EF0
0100
010C
3FB0
05C0
0940
0920
3118
430C
0000
0000
ENDCHAR
STARTCHAR U+6C58
ENCODING 27736
SWIDTH 1000 0
DWIDTH 16 0
BBX 16 16 0 -2
BITMAP 
0000
301C
08E0
0140
0040
4040
2040
0FFE
1040
1040
2040
2040
4040
4040
0000
0000
ENDCHAR
STARTCHAR U+6C63
ENCODING 27747
SWIDTH 1000 0
DWIDTH 16 0
BBX 16 16 0 -2
BITMAP 
0000
2080
1080
00F8
0110
4210
2420
0020
1820
1060
1090
2090
6108
0606
0000
0000
ENDCHAR
STARTCHAR U+6C6C
ENCODING 27756
SWIDTH 1000 0
DWIDTH 16 0
BBX 16 16 0 -2
BITMAP 
0000
0440
3FFC
0440
0444
3FF8
0840
1100
0188
1F90
0560
0920
111C
6300
0000
0000
ENDCHAR
STARTCHAR U+6C6E
ENCODING 27758
SWIDTH 1000 0
DWIDTH 16 0
BBX 16 16 0 -2
BITMAP 
0000
2080
1100
01FE
0104
4204
21F4
1804
1004
1014
21E4
2004
4008
0018
0000
0000
ENDCHAR
STARTCHAR U+6C75
ENCODING 27765
SWIDTH 1000 0
DWIDTH 16 0
BBX 16 16 0 -2
BITMAP 
0000
1040
0860
00A0
0118
222C
04C0
0800
13F8
1008
2010
2020
4020
4000
0000
0000
ENDCHAR
STARTCHAR U+6C77
ENCODING 27767
SWIDTH 1000 0
DWIDTH 16 0
BBX 16 16 0 -2
BITMAP 
0000
1080
0880
0084
017C
2108
0308
0090
1890
1060
2060
2060
4098
430C
0000
0000
ENDCHAR
STARTCHAR U+6C7C
ENCODING 27772
SWIDTH 1000 0
DWIDTH 16 0
BBX 16 16 0 -2
BITMAP 
0000
2100
1140
0240
03FC
0240
2440
0040
1044
13F8
2040
2040
4040
4000
0000
0000
ENDCHAR
STARTCHAR U+6C7F
ENCODING 27775
SWIDTH 1000 0
DWIDTH 16 0
BBX 16 16 0 -2
BITMAP 
0000
1008
01F8
0030
0040
2020
27FE
0848
1040
1040
2040
2040
4040
40C0
0000
0000
ENDCHAR
STARTCHAR U+6C91
ENCODING 27793
SWIDTH 1000 0
DWIDTH 16 0
BBX 16 16 0 -2
BITMAP 
0000
2008
11F8
0088
0088
2088
2108
0FFE
1108
1108
2110
2110
4110
07FE
0000
0000
ENDCHAR
STARTCHAR U+6C9E
ENCODING 27806
SWIDTH 1000 0
DWIDTH 16 0
BBX 16 16 0 -2
BITMAP 
0000
0004
13F8
0040
0040
23FC
2244
0A44
1244
1244
2244
2248
4040
0040
0000
0000
ENDCHAR
STARTCHAR U+6CA0
ENCODING 27808
SWIDTH 1000 0
DWIDTH 16 0
BBX 16 16 0 -2
BITMAP 
0000
101C
02E0
0300
0250
2A50
1248
1248
1248
1248
6448
2444
2844
3846
0000
0000
ENDCHAR
STARTCHAR U+6CA8
ENCODING 27816
SWIDTH 1000 0
DWIDTH 16 0
BBX 16 16 0 -2
BITMAP 
0000
23FC
1208
0218
0328
2AA8
32A8
1248
1268
24A8
2514
2614
2806
0002
0000
0000
ENDCHAR
STARTCHAR U+6CAF
ENCODING 27823
SWIDTH 1000 0
DWIDTH 16 0
BBX 16 16 0 -2
BITMAP 
0000
0100
3F88
0570
0920
1118
2104
0004
3FF8
0400
0FF0
3810
0810
0FF0
0000
0000
ENDCHAR
STARTCHAR U+6CB5
ENCODING 27829
SWIDTH 1000 0
DWIDTH 16 0
BBX 16 16 0 -2
BITMAP 
0000
2080
1100
0104
02FE
2400
3840
11C0
1148
1144
2244
2442
2040
3040
0000
0000
ENDCHAR
STARTCHAR U+6CC8
ENCODING 27848
SWIDTH 1000 0
DWIDTH 16 0
BBX 16 16 0 -2
BITMAP 
0000
2080
10F8
0108
0290
2060
2060
0890
130E
1460
1000
2080
6070
0010
0000
0000
ENDCHAR
STARTCHAR U+6CCB
ENCODING 27851
SWIDTH 1000 0
DWIDTH 16 0
BBX 16 16 0 -2
BITMAP 
0000
2040
1048
03F0
0040
2148
2150
0910
1116
12F8
2210
2210
4210
0400
0000
0000
ENDCHAR
STARTCHAR U+6CCE
ENCODING 27854
SWIDTH 1000 0
DWIDTH 16 0
BBX 16 16 0 -2
BITMAP 
0000
1080
0900
0104
02F8
2280
1088
08F0
1080
1080
20F8
2080
6080
0080
0000
0000
ENDCHAR
STARTCHAR U+6CD8
ENCODING 27864
SWIDTH 1000 0
DWIDTH 16 0
BBX 16 16 0 -2
BITMAP 
0000
201C
11E0
0244
0244
2148
2150
0844
17FE
1040
2040
2040
6040
00C0
0000
0000
ENDCHAR
STARTCHAR U+6CDF
ENCODING 27871
SWIDTH 1000 0
DWIDTH 16 0
BBX 16 16 0 -2
BITMAP 
0000
100C
09F0
0040
0040
2040
1048
0A70
1240
1240
1240
2240
6244
07FE
0000
0000
ENDCHAR
STARTCHAR U+6CE4
ENCODING 27876
SWIDTH 1000 0
DWIDTH 16 0
BBX 16 16 0 -2
BITMAP 
0000
2208
1288
0248
0208
2208
0208
0208
1210
1290
2318
2624
4442
0082
0000
0000
ENDCHAR
STARTCHAR U+6CE6
ENCODING 27878
SWIDTH 1000 0
DWIDTH 16 0
BBX 16 16 0 -2
BITMAP 
0000
3204
13FC
0204
0204
23F8
0240
0A58
14F0
1450
2490
2490
4910
080E
0000
0000
ENDCHAR
STARTCHAR U+6CFF
ENCODING 27903
SWIDTH 1000 0
DWIDTH 16 0
BBX 16 16 0 -2
BITMAP 
0000
13FC
0A08
0208
03F8
2208
1208
0BF4
0A4C
1250
1220
2218
638E
0200
0000
0000
ENDCHAR
STARTCHAR U+6D02
ENCODING 27906
SWIDTH 1000 0
DWIDTH 16 0
BBX 16 16 0 -2
BITMAP 
0000
2040
1040
07FE
0090
2090
2298
0294
1494
1492
2912
2110
4210
0030
0000
0000
ENDCHAR
STARTCHAR U+6D05
ENCODING 27909
SWIDTH 1000 0
DWIDTH 16 0
BBX 16 16 0 -2
BITMAP 
0000
2004
13F8
0040
03FC
2248
0248
0BF8
1248
1248
27BC
2208
4208
0208
0000
0000
ENDCHAR
STARTCHAR U+6D06
ENCODING 27910
SWIDTH 1000 0
DWIDTH 16 0
BBX 16 16 0 -2
BITMAP 
0000
2008
11F8
0020
0044
2744
2148
0270
1250
1450
284C
2044
4080
0FFE
0000
0000
ENDCHAR
STARTCHAR U+6D14
ENCODING 27924
SWIDTH 1000 0
DWIDTH 16 0
BBX 16 16 0 -2
BITMAP 
0000
2040
1040
03FC
0040
2048
21B0
0810
17FE
1010
1110
2090
6010
0030
0000
0000
ENDCHAR
STARTCHAR U+6D15
ENCODING 27925
SWIDTH 1000 0
DWIDTH 16 0
BBX 16 16 0 -2
BITMAP 
0000
2070
1190
0108
020C
45F8
2108
09C8
1128
1218
13E8
2208
6208
0410
0000
0000
ENDCHAR
STARTCHAR U+6D1C
ENCODING 27932
SWIDTH 1000 0
DWIDTH 16 0
BBX 16 16 0 -2
BITMAP 
0000
0610
0DE0
1340
03E0
1C18
2FE0
0820
0FC0
0188
1D70
0920
1118
6304
0000
0000
ENDCHAR
STARTCHAR U+6D21
ENCODING 27937
SWIDTH 1000 0
DWIDTH 16 0
BBX 16 16 0 -2
BITMAP 
0000
0040
1878
0BC0
4040
23F8
0040
0844
13F8
1160
2150
2248
4446
0040
0000
0000
ENDCHAR
STARTCHAR U+6D23
ENCODING 27939
SWIDTH 1000 0
DWIDTH 16 0
BBX 16 16 0 -2
BITMAP 
0000
1440
0244
0148
0150
2044
03F8
0840
1150
1248
1444
2840
6040
0040
0000
0000
ENDCHAR
STARTCHAR U+6D24
ENCODING 27940
SWIDTH 1000 0
DWIDTH 16 0
BBX 16 16 0 -2
BITMAP 
0000
10C0
08C0
00A0
0118
220E
03F8
0840
1040
1048
21F0
2040
4040
07FE
0000
0000
ENDCHAR
STARTCHAR U+6D49
ENCODING 27977
SWIDTH 1000 0
DWIDTH 16 0
BBX 16 16 0 -2
BITMAP 
0000
217C
1110
0510
057C
3554
3554
1554
2554
2554
2154
2254
2250
2410
0000
0000
ENDCHAR
STARTCHAR U+6D4C
ENCODING 27980
SWIDTH 1000 0
DWIDTH 16 0
BBX 16 16 0 -2
BITMAP 
0000
2120
1220
0224
023C
3AE0
3626
1224
1228
2230
6210
2230
224A
2286
0000
0000
ENDCHAR
STARTCHAR U+6D50
ENCODING 27984
SWIDTH 1000 0
DWIDTH 16 0
BBX 16 16 0 -2
BITMAP 
0000
2020
13FE
0008
0088
2094
2BFE
1200
1200
1200
2200
2200
2400
3000
0000
0000
ENDCHAR
STARTCHAR U+6D55
ENCODING 27989
SWIDTH 1000 0
DWIDTH 16 0
BBX 16 16 0 -2
BITMAP 
0000
23FC
1208
0208
0208
4BF0
3210
1490
1448
2026
6100
20C0
2020
2030
0000
0000
ENDCHAR
STARTCHAR U+6D56
ENCODING 27990
SWIDTH 1000 0
DWIDTH 16 0
BBX 16 16 0 -2
BITMAP 
0000
201C
13E0
0004
0248
4140
2100
0014
13F8
1210
2110
2090
4010
0030
0000
0000
ENDCHAR
STARTCHAR U+6D5B
ENCODING 27995
SWIDTH 1000 0
DWIDTH 16 0
BBX 16 16 0 -2
BITMAP 
0000
1040
08A0
0110
022C
24C0
0010
09F0
1020
1248
13B8
2208
6208
03F8
0000
0000
ENDCHAR
STARTCHAR U+6D5D
ENCODING 27997
SWIDTH 1000 0
DWIDTH 16 0
BBX 16 16 0 -2
BITMAP 
0000
228C
1208
0250
07A4
2348
2308
0B10
1324
1308
2508
2530
6904
00FE
0000
0000
ENDCHAR
STARTCHAR U+6D6B
ENCODING 28011
SWIDTH 1000 0
DWIDTH 16 0
BBX 16 16 0 -2
BITMAP 
0000
2004
17FC
04A0
0120
221C
2008
01F0
1040
1040
23FC
2040
6040
0040
0000
0000
ENDCHAR
STARTCHAR U+6D71
ENCODING 28017
SWIDTH 1000 0
DWIDTH 16 0
BBX 16 16 0 -2
BITMAP 
0000
2004
13F8
0200
03F8
2200
2204
0BF8
1304
1328
2510
2510
4508
08C6
0000
0000
ENDCHAR
STARTCHAR U+6D72
ENCODING 28018
SWIDTH 1000 0
DWIDTH 16 0
BBX 16 16 0 -2
BITMAP 
0100
2100
12F8
0310
00A0
2060
21DC
0240
11F8
1048
21F0
2044
63F8
0040
0000
0000
ENDCHAR
STARTCHAR U+6D73
ENCODING 28019
SWIDTH 1000 0
DWIDTH 16 0
BBX 16 16 0 -2
BITMAP 
0000
2110
110C
07F0
0060
201E
2208
1BF8
13C8
1228
2218
23E8
6408
0418
0000
0000
ENDCHAR
STARTCHAR U+6D81
ENCODING 28033
SWIDTH 1000 0
DWIDTH 16 0
BBX 16 16 0 -2
BITMAP 
0000
2204
1208
1210
0FC0
4204
2308
0690
1620
2A06
2204
2208
6210
0260
0000
0000
ENDCHAR
STARTCHAR U+6D8F
ENCODING 28047
SWIDTH 1000 0
DWIDTH 16 0
BBX 16 16 0 -2
BITMAP 
0000
200C
1670
0210
0410
2414
2778
1110
2910
2A10
267E
2400
4700
48FC
0000
0000
ENDCHAR
STARTCHAR U+6D9A
ENCODING 28058
SWIDTH 1000 0
DWIDTH 16 0
BBX 16 16 0 -2
BITMAP 
0000
1008
0910
0800
43F8
2208
0208
0208
0BF8
10A0
10A0
2120
6224
203C
0400
0000
ENDCHAR
STARTCHAR U+6DA2
ENCODING 28066
SWIDTH 1000 0
DWIDTH 16 0
BBX 16 16 0 -2
BITMAP 
0000
11FC
0108
0108
40F8
2BFC
1204
1244
1244
1244
2244
2260
109C
1306
0400
0000
ENDCHAR
STARTCHAR U+6DA5
ENCODING 28069
SWIDTH 1000 0
DWIDTH 16 0
BBX 16 16 0 -2
BITMAP 
0040
1040
0BFE
0000
41F8
2108
11F0
0808
11F8
1030
1020
2020
6020
00E0
0000
0000
ENDCHAR
STARTCHAR U+6DAD
ENCODING 28077
SWIDTH 1000 0
DWIDTH 16 0
BBX 16 16 0 -2
BITMAP 
0000
203C
11C0
0248
0148
2414
27EC
0000
13F8
2110
20A0
2040
60B0
030C
0400
0000
ENDCHAR
STARTCHAR U+6DB0
ENCODING 28080
SWIDTH 1000 0
DWIDTH 16 0
BBX 16 16 0 -2
BITMAP 
0000
2084
139C
018C
008C
2154
0220
0000
17FE
22A4
2128
2198
4298
0466
0800
0000
ENDCHAR
STARTCHAR U+6DB1
ENCODING 28081
SWIDTH 1000 0
DWIDTH 16 0
BBX 16 16 0 -2
BITMAP 
0000
01FC
1A00
01F8
4200
21F8
0200
0A06
13F8
1248
2230
2210
424C
0380
0000
0000
ENDCHAR
STARTCHAR U+6DB6
ENCODING 28086
SWIDTH 1000 0
DWIDTH 16 0
BBX 16 16 0 -2
BITMAP 
0000
1038
11C0
0040
47FC
2248
2250
07FC
1250
1240
2044
23F8
4040
0FFE
0000
0000
ENDCHAR
STARTCHAR U+6DC1
ENCODING 28097
SWIDTH 1000 0
DWIDTH 16 0
BBX 16 16 0 -2
BITMAP 
0000
2040
104C
01B8
4110
20A0
07FE
00C0
1094
1378
2120
2320
60F0
018C
0600
0000
ENDCHAR
STARTCHAR U+6DE7
ENCODING 28135
SWIDTH 1000 0
DWIDTH 16 0
BBX 16 16 0 -2
BITMAP 
0000
2040
1020
17DE
0480
2040
2010
1110
1520
1524
2D42
2180
6108
06F8
0000
0000
ENDCHAR
STARTCHAR U+6DFE
ENCODING 28158
SWIDTH 1000 0
DWIDTH 16 0
BBX 16 16 0 -2
BITMAP 
0100
0380
0460
1FFC
2110
0FE0
0520
7FFC
0180
0090
1FA0
0560
1918
6304
0000
0000
ENDCHAR
STARTCHAR U+6DFF
ENCODING 28159
SWIDTH 1000 0
DWIDTH 16 0
BBX 16 16 0 -2
BITMAP 
0000
2040
13F8
0208
0208
23F8
23F8
1840
17FC
1444
2444
2444
444C
0040
0000
0000
ENDCHAR
STARTCHAR U+6E01
ENCODING 28161
SWIDTH 1000 0
DWIDTH 16 0
BBX 16 16 0 -2
BITMAP 
0000
2040
10CC
0370
0148
2244
2440
1040
1048
13D8
2160
2250
4458
00C4
0000
0000
ENDCHAR
STARTCHAR U+6E02
ENCODING 28162
SWIDTH 1000 0
DWIDTH 16 0
BBX 16 16 0 -2
BITMAP 
0000
03FC
1208
03F8
0208
23F8
0240
1846
13B8
1110
20A0
2060
619E
0600
0000
0000
ENDCHAR
STARTCHAR U+6E06
ENCODING 28166
SWIDTH 1000 0
DWIDTH 16 0
BBX 16 16 0 -2
BITMAP 
0000
2084
1494
0054
0794
2314
2314
0354
1594
2514
2514
2514
4904
000C
0000
0000
ENDCHAR
STARTCHAR U+6E0F
ENCODING 28175
SWIDTH 1000 0
DWIDTH 16 0
BBX 16 16 0 -2
BITMAP 
0000
2040
13F8
0040
41B8
2604
07FE
1008
13E8
1248
2248
2388
4008
0030
0000
0000
ENDCHAR
STARTCHAR U+6E12
ENCODING 28178
SWIDTH 1000 0
DWIDTH 16 0
BBX 16 16 0 -2
BITMAP 
0000
0040
13FC
0248
0248
23F8
0248
0BF8
10A0
1120
1FFE
2020
6020
0020
0000
0000
ENDCHAR
STARTCHAR U+6E18
ENCODING 28184
SWIDTH 1000 0
DWIDTH 16 0
BBX 16 16 0 -2
BITMAP 
0000
23F8
10A0
0064
03FC
20A8
0320
0040
1040
17FE
2040
2248
4444
4840
0000
0000
ENDCHAR
STARTCHAR U+6E2A
ENCODING 28202
SWIDTH 1000 0
DWIDTH 16 0
BBX 16 16 0 -2
BITMAP 
0000
201C
17E0
0040
03F8
2248
23FC
1040
1444
17FC
2444
25FC
6504
040C
0000
0000
ENDCHAR
STARTCHAR U+6E37
ENCODING 28215
SWIDTH 1000 0
DWIDTH 16 0
BBX 16 16 0 -2
BITMAP 
0040
1040
0BFE
0010
0130
2208
190E
11F8
1108
21F8
60A0
20A0
2124
223E
0400
0000
ENDCHAR
STARTCHAR U+6E42
ENCODING 28226
SWIDTH 1000 0
DWIDTH 16 0
BBX 16 16 0 -2
BITMAP 
0000
07BC
14A4
04A4
07BC
2008
23F8
1000
17FE
1100
21F8
2008
4008
0030
0000
0000
ENDCHAR
STARTCHAR U+6E4C
ENCODING 28236
SWIDTH 1000 0
DWIDTH 16 0
BBX 16 16 0 -2
BITMAP 
0000
20C0
18A0
0110
43EC
2410
03F0
0A10
13F0
13F0
220C
2230
4208
0384
0000
0000
ENDCHAR
STARTCHAR U+6E50
ENCODING 28240
SWIDTH 1000 0
DWIDTH 16 0
BBX 16 16 0 -2
BITMAP 
0000
2218
1210
0224
4FDC
2244
0344
06C4
167C
1A44
2244
2244
4244
0278
0000
0000
ENDCHAR
STARTCHAR U+6E59
ENCODING 28249
SWIDTH 1000 0
DWIDTH 16 0
BBX 16 16 0 -2
BITMAP 
0000
2020
13FE
0050
0250
2454
2092
0100
1040
2FFE
2080
2090
4108
0604
0000
0000
ENDCHAR
STARTCHAR U+6E6A
ENCODING 28266
SWIDTH 1000 0
DWIDTH 16 0
BBX 16 16 0 -2
BITMAP 
0000
0000
11F8
0110
43F0
2024
03D8
0188
16D0
1120
2660
20B0
4328
04C4
0000
0000
ENDCHAR
STARTCHAR U+6E6C
ENCODING 28268
SWIDTH 1000 0
DWIDTH 16 0
BBX 16 16 0 -2
BITMAP 
0000
0620
1820
0AA8
3C30
1E48
2884
4904
0100
3F90
0560
0920
1118
2104
0000
0000
ENDCHAR
STARTCHAR U+6E6D
ENCODING 28269
SWIDTH 1000 0
DWIDTH 16 0
BBX 16 16 0 -2
BITMAP 
0000
0110
1084
13F8
00A0
27BC
04E4
0CA4
152C
1414
1414
24E4
6404
07FC
0000
0000
ENDCHAR
STARTCHAR U+6E70
ENCODING 28272
SWIDTH 1000 0
DWIDTH 16 0
BBX 16 16 0 -2
BITMAP 
0000
2100
11F8
0310
40E0
209E
0310
11E0
1248
13F0
2440
23F8
4040
0FFE
0000
0000
ENDCHAR
STARTCHAR U+6E75
ENCODING 28277
SWIDTH 1000 0
DWIDTH 16 0
BBX 16 16 0 -2
BITMAP 
0010
2110
1020
07FC
0040
21F0
0044
03B8
1180
11F0
2220
2440
40B0
030E
0400
0000
ENDCHAR
STARTCHAR U+6E7C
ENCODING 28284
SWIDTH 1000 0
DWIDTH 16 0
BBX 16 16 0 -2
BITMAP 
0000
00C0
131C
0204
43FC
2204
0204
03FC
1800
13FC
1040
2040
6040
07FE
0000
0000
ENDCHAR
STARTCHAR U+6E81
ENCODING 28289
SWIDTH 1000 0
DWIDTH 16 0
BBX 16 16 0 -2
BITMAP 
0000
2010
17FC
0110
4000
2BFC
1404
1040
17FC
10E0
60E0
2158
264C
0040
0000
0000
ENDCHAR
STARTCHAR U+6E84
ENCODING 28292
SWIDTH 1000 0
DWIDTH 16 0
BBX 16 16 0 -2
BITMAP 
0040
2244
1248
01B0
4080
2178
0320
00E0
175C
2048
23F0
2044
43F8
0040
0000
0000
ENDCHAR
STARTCHAR U+6E87
ENCODING 28295
SWIDTH 1000 0
DWIDTH 16 0
BBX 16 16 0 -2
BITMAP 
0040
2048
1150
07FC
00E0
2958
1244
1080
1084
2778
2110
2120
20D0
008C
0700
0000
ENDCHAR
STARTCHAR U+6E8A
ENCODING 28298
SWIDTH 1000 0
DWIDTH 16 0
BBX 16 16 0 -2
BITMAP 
0000
27BC
1484
0484
0484
2718
0400
0FBE
1424
1424
27D8
2410
4428
0446
0000
0000
ENDCHAR
STARTCHAR U+6E8B
ENCODING 28299
SWIDTH 1000 0
DWIDTH 16 0
BBX 16 16 0 -2
BITMAP 
0000
07F0
1120
013E
01E4
2224
02C4
0CB8
0900
13FC
14A8
24A8
64A8
0FFE
0000
0000
ENDCHAR
STARTCHAR U+6E91
ENCODING 28305
SWIDTH 1000 0
DWIDTH 16 0
BBX 16 16 0 -2
BITMAP 
0040
204C
1248
0150
03F8
2208
0208
03F8
0A08
13F8
1208
23F0
60D8
0304
0000
0000
ENDCHAR
STARTCHAR U+6E95
ENCODING 28309
SWIDTH 1000 0
DWIDTH 16 0
BBX 16 16 0 -2
BITMAP 
0000
1204
15FC
0410
00E0
2804
13F8
1166
1658
21B0
6668
20A8
2326
0460
0000
0000
ENDCHAR
STARTCHAR U+6E9A
ENCODING 28314
SWIDTH 1000 0
DWIDTH 16 0
BBX 16 16 0 -2
BITMAP 
0000
2010
1294
0118
0040
20C0
0120
0A38
14C4
1200
23F0
2210
4210
03E0
0000
0000
ENDCHAR
STARTCHAR U+6EA8
ENCODING 28328
SWIDTH 1000 0
DWIDTH 16 0
BBX 16 16 0 -2
BITMAP 
0000
2120
1164
03A4
0120
2FFE
2120
0124
1798
2318
2590
2568
414A
0106
0000
0000
ENDCHAR
STARTCHAR U+6EA9
ENCODING 28329
SWIDTH 1000 0
DWIDTH 16 0
BBX 16 16 0 -2
BITMAP 
0000
0040
13F8
0210
0210
23E0
2204
0BF8
1204
11FC
2054
2554
6504
0018
0000
0000
ENDCHAR
STARTCHAR U+6EAC
ENCODING 28332
SWIDTH 1000 0
DWIDTH 16 0
BBX 16 16 0 -2
BITMAP 
0000
2110
1120
07FC
0080
23F8
2080
0880
1378
1140
2150
225C
4240
0422
001C
0000
ENDCHAR
STARTCHAR U+6EB5
ENCODING 28341
SWIDTH 1000 0
DWIDTH 16 0
BBX 16 16 0 -2
BITMAP 
0000
21A8
1638
07A8
04A8
27A8
048C
0780
1478
27C8
2928
2910
4938
014E
0000
0000
ENDCHAR
STARTCHAR U+6EB8
ENCODING 28344
SWIDTH 1000 0
DWIDTH 16 0
BBX 16 16 0 -2
BITMAP 
0000
2040
17FC
0048
01F0
27FE
2190
0BE0
10C8
13F4
2144
2140
624C
04C4
0000
0000
ENDCHAR
STARTCHAR U+6ED9
ENCODING 28377
SWIDTH 1000 0
DWIDTH 16 0
BBX 16 16 0 -2
BITMAP 
0000
2404
17F8
0480
0528
25F0
2720
05F8
1520
15F8
2520
2528
65D0
07FE
0000
0000
ENDCHAR
STARTCHAR U+6EDB
ENCODING 28379
SWIDTH 1000 0
DWIDTH 16 0
BBX 16 16 0 -2
BITMAP 
0000
2038
11C4
0008
0240
2100
2204
01F8
1040
17FE
2040
2444
4444
07FC
0000
0000
ENDCHAR
STARTCHAR U+6EE3
ENCODING 28387
SWIDTH 1000 0
DWIDTH 16 0
BBX 16 16 0 -2
BITMAP 
0000
2404
17F8
07F8
0404
27F8
254C
0530
19C8
1900
23F8
2208
4208
03F8
0000
0000
ENDCHAR
STARTCHAR U+6EE7
ENCODING 28391
SWIDTH 1000 0
DWIDTH 16 0
BBX 16 16 0 -2
BITMAP 
0000
2010
1110
07E0
021E
2464
0464
10A8
12A8
2118
2110
2298
24A8
2846
0000
0000
ENDCHAR
STARTCHAR U+6EEA
ENCODING 28394
SWIDTH 1000 0
DWIDTH 16 0
BBX 16 16 0 -2
BITMAP 
0000
217C
1710
0220
025C
20C4
27D4
1254
2254
2254
6254
2228
2224
2242
0000
0000
ENDCHAR
STARTCHAR U+6EF0
ENCODING 28400
SWIDTH 1000 0
DWIDTH 16 0
BBX 16 16 0 -2
BITMAP 
0080
2040
13FC
0110
0024
23D8
2208
0BF8
13F8
1208
13F8
22A0
6120
023E
0400
0000
ENDCHAR
STARTCHAR U+6EF3
ENCODING 28403
SWIDTH 1000 0
DWIDTH 16 0
BBX 16 16 0 -2
BITMAP 
0080
2040
13FC
0110
0110
43FC
24A4
051C
1204
13F4
2314
22F4
4204
020C
0000
0000
ENDCHAR
STARTCHAR U+6EFA
ENCODING 28410
SWIDTH 1000 0
DWIDTH 16 0
BBX 16 16 0 -2
BITMAP 
0000
2220
1244
0578
0588
25A8
2510
0528
1444
1400
2520
2904
4900
01F0
0000
0000
ENDCHAR
STARTCHAR U+6F0B
ENCODING 28427
SWIDTH 1000 0
DWIDTH 16 0
BBX 16 16 0 -2
BITMAP 
0000
2F40
197C
0AC8
0A30
2A6E
2A88
0970
19E0
2BB8
2820
28FC
4820
09FE
0000
0000
ENDCHAR
STARTCHAR U+6F10
ENCODING 28432
SWIDTH 1000 0
DWIDTH 16 0
BBX 16 16 0 -2
BITMAP 
0800
0A20
1C28
7F58
0448
3E48
09A8
3E04
0900
1710
05E0
0960
111C
2300
0000
0000
ENDCHAR
STARTCHAR U+6F17
ENCODING 28439
SWIDTH 1000 0
DWIDTH 16 0
BBX 16 16 0 -2
BITMAP 
0000
2080
17FC
0448
0488
4568
24B8
0408
17F8
1000
2528
2504
4902
01F0
0000
0000
ENDCHAR
STARTCHAR U+6F1D
ENCODING 28445
SWIDTH 1000 0
DWIDTH 16 0
BBX 16 16 0 -2
BITMAP 
0000
27BC
1084
0284
008C
23B4
2484
0840
13F8
1208
2208
23F8
4208
03F8
0000
0000
ENDCHAR
STARTCHAR U+6F28
ENCODING 28456
SWIDTH 1000 0
DWIDTH 16 0
BBX 16 16 0 -2
BITMAP 
0000
2400
147C
00C8
0230
446C
24A0
04FC
1220
1278
2224
2478
4620
09FC
0000
0000
ENDCHAR
STARTCHAR U+6F34
ENCODING 28468
SWIDTH 1000 0
DWIDTH 16 0
BBX 16 16 0 -2
BITMAP 
0000
2048
1448
0448
03F8
4444
27BC
0810
11E0
200C
23F0
2350
4248
0044
0000
0000
ENDCHAR
STARTCHAR U+6F3D
ENCODING 28477
SWIDTH 1000 0
DWIDTH 16 0
BBX 16 16 0 -2
BITMAP 
0000
2408
17F8
0408
07F0
2588
24D0
050C
1500
15FC
2A40
27FE
4840
0000
0000
0000
ENDCHAR
STARTCHAR U+6F42
ENCODING 28482
SWIDTH 1000 0
DWIDTH 16 0
BBX 16 16 0 -2
BITMAP 
0000
2040
1444
0444
07FC
2010
2120
07FC
1120
1124
2528
2328
4124
0FFE
0000
0000
ENDCHAR
STARTCHAR U+6F44
ENCODING 28484
SWIDTH 1000 0
DWIDTH 16 0
BBX 16 16 0 -2
BITMAP 
0000
2210
1220
07A0
023E
2FC4
0AC8
0AA8
1F28
2228
2790
2A10
4228
0246
0000
0000
ENDCHAR
STARTCHAR U+6F48
ENCODING 28488
SWIDTH 1000 0
DWIDTH 16 0
BBX 16 16 0 -2
BITMAP 
0000
23FC
14A4
04A4
44A4
235C
00C4
0B48
10B0
1120
2670
20AC
4320
0460
0000
0000
ENDCHAR
STARTCHAR U+6F49
ENCODING 28489
SWIDTH 1000 0
DWIDTH 16 0
BBX 16 16 0 -2
BITMAP 
0000
2444
1444
07FC
4008
23F8
03F8
0208
13F8
1420
24A4
2738
6420
073E
0000
0000
ENDCHAR
STARTCHAR U+6F4A
ENCODING 28490
SWIDTH 1000 0
DWIDTH 16 0
BBX 16 16 0 -2
BITMAP 
0000
2110
1310
04D6
0858
2790
2210
02EC
1724
2628
2A98
2A50
4228
0246
0000
0000
ENDCHAR
STARTCHAR U+6F4C
ENCODING 28492
SWIDTH 1000 0
DWIDTH 16 0
BBX 16 16 0 -2
BITMAP 
0000
0040
17BE
0520
001C
2200
03F8
0110
1218
13E0
2048
21F0
4044
07FE
0000
0000
ENDCHAR
STARTCHAR U+6F56
ENCODING 28502
SWIDTH 1000 0
DWIDTH 16 0
BBX 16 16 0 -2
BITMAP 
0000
37BC
1210
0294
0318
2A94
1508
1208
23F8
2248
23F8
2200
2204
23FE
0000
0000
ENDCHAR
STARTCHAR U+6F65
ENCODING 28517
SWIDTH 1000 0
DWIDTH 16 0
BBX 16 16 0 -2
BITMAP 
0000
2004
17F8
0120
07F8
4528
27F8
0040
1090
1084
27F8
2190
4688
0004
0000
0000
ENDCHAR
STARTCHAR U+6F71
ENCODING 28529
SWIDTH 1000 0
DWIDTH 16 0
BBX 16 16 0 -2
BITMAP 
0000
1040
07FC
0040
03F8
2004
2FFC
0BF8
1000
23F8
2208
23F0
4120
07FE
0000
0000
ENDCHAR
STARTCHAR U+6F75
ENCODING 28533
SWIDTH 1000 0
DWIDTH 16 0
BBX 16 16 0 -2
BITMAP 
0000
0290
12D0
0390
029E
07E4
2004
0784
16A8
1598
2598
2690
44A8
0586
0000
0000
ENDCHAR
STARTCHAR U+6F79
ENCODING 28537
SWIDTH 1000 0
DWIDTH 16 0
BBX 16 16 0 -2
BITMAP 
0000
2000
17FC
00C0
01B0
228C
2C00
0210
1FFC
1230
2738
2AD4
4294
0210
0000
0000
ENDCHAR
STARTCHAR U+6F8A
ENCODING 28554
SWIDTH 1000 0
DWIDTH 16 0
BBX 16 16 0 -2
BITMAP 
0010
2100
12FC
00A4
03FC
6524
261C
0C14
14E4
13F8
23FC
2010
6110
0010
0000
0000
ENDCHAR
STARTCHAR U+6F8F
ENCODING 28559
SWIDTH 1000 0
DWIDTH 16 0
BBX 16 16 0 -2
BITMAP 
0000
23F0
1210
0210
43E0
27BC
04A4
04A4
1738
2040
2444
2448
4448
07F8
0000
0000
ENDCHAR
STARTCHAR U+6F98
ENCODING 28568
SWIDTH 1000 0
DWIDTH 16 0
BBX 16 16 0 -2
BITMAP 
0000
2220
1228
0730
06A8
46E8
226C
1200
23F8
2208
23F8
2208
2208
23F8
0000
0000
ENDCHAR
STARTCHAR U+6F99
ENCODING 28569
SWIDTH 1000 0
DWIDTH 16 0
BBX 16 16 0 -2
BITMAP 
0000
2188
1618
0588
0618
2408
27F0
0204
13F8
1204
21FC
2154
6544
0118
0000
0000
ENDCHAR
STARTCHAR U+6F9B
ENCODING 28571
SWIDTH 1000 0
DWIDTH 16 0
BBX 16 16 0 -2
BITMAP 
0000
1100
0AE0
03F8
0248
23F8
1A48
11B0
13FC
2208
23F8
23F8
2208
23F8
0000
0000
ENDCHAR
STARTCHAR U+6F9D
ENCODING 28573
SWIDTH 1000 0
DWIDTH 16 0
BBX 16 16 0 -2
BITMAP 
0080
2440
17BE
0940
051C
25F0
2000
0BF8
1248
13F8
1448
23F8
6448
0458
0000
0000
ENDCHAR
STARTCHAR U+6FB7
ENCODING 28599
SWIDTH 1000 0
DWIDTH 16 0
BBX 16 16 0 -2
BITMAP 
0000
23F8
1428
04C8
00E0
27FC
2524
07FC
1040
2FFE
2100
21F8
4210
0430
0000
0000
ENDCHAR
STARTCHAR U+6FBB
ENCODING 28603
SWIDTH 1000 0
DWIDTH 16 0
BBX 16 16 0 -2
BITMAP 
0000
2408
1240
00BC
0E40
24A4
0528
0450
1238
2254
2390
2430
4600
09FC
0000
0000
ENDCHAR
STARTCHAR U+6FD0
ENCODING 28624
SWIDTH 1000 0
DWIDTH 16 0
BBX 16 16 0 -2
BITMAP 
0000
23F8
1208
03F8
03F8
2084
03F8
0094
1768
1188
26F8
21F8
4208
01F8
0000
0000
ENDCHAR
STARTCHAR U+6FD3
ENCODING 28627
SWIDTH 1000 0
DWIDTH 16 0
BBX 16 16 0 -2
BITMAP 
0080
2040
17FE
0010
04A4
27F8
27F8
04A8
17FC
14A8
25F0
25B0
4AA8
0CA4
0000
0000
ENDCHAR
STARTCHAR U+6FD6
ENCODING 28630
SWIDTH 1000 0
DWIDTH 16 0
BBX 16 16 0 -2
BITMAP 
0000
27FC
14A4
04A4
07D8
20A8
21D0
07BE
1040
11F8
2708
21F8
4108
01F8
0000
0000
ENDCHAR
STARTCHAR U+6FD7
ENCODING 28631
SWIDTH 1000 0
DWIDTH 16 0
BBX 16 16 0 -2
BITMAP 
0210
2294
1118
07F8
0608
27F8
07F8
0104
17F8
1258
2DBE
2490
40B0
0080
0000
0000
ENDCHAR
STARTCHAR U+6FD9
ENCODING 28633
SWIDTH 1000 0
DWIDTH 16 0
BBX 16 16 0 -2
BITMAP 
0000
254C
15B8
0110
029C
2224
2C00
1FFC
1840
2248
22D0
20A0
4110
020C
0400
0000
ENDCHAR
STARTCHAR U+6FE5
ENCODING 28645
SWIDTH 1000 0
DWIDTH 16 0
BBX 16 16 0 -2
BITMAP 
0000
2080
1170
02A0
01C0
27FE
2404
11F0
13F8
2248
23F8
2248
41B0
021C
0400
0000
ENDCHAR
STARTCHAR U+6FEA
ENCODING 28650
SWIDTH 1000 0
DWIDTH 16 0
BBX 16 16 0 -2
BITMAP 
0200
2210
179C
0268
0348
42FE
2536
17B6
28B6
2FBE
28A0
27A0
44A2
01BE
0000
0000
ENDCHAR
STARTCHAR U+6FF8
ENCODING 28664
SWIDTH 1000 0
DWIDTH 16 0
BBX 16 16 0 -2
BITMAP 
0200
2214
1338
00C0
00A0
2138
26C4
13F8
13F8
2208
23F0
23F8
4508
01F8
0000
0000
ENDCHAR
STARTCHAR U+7002
ENCODING 28674
SWIDTH 1000 0
DWIDTH 16 0
BBX 16 16 0 -2
BITMAP 
0000
1100
12F0
0244
03FC
43FC
2244
0BBC
1094
160A
23F8
21F8
6208
01F8
0000
0000
ENDCHAR
STARTCHAR U+7003
ENCODING 28675
SWIDTH 1000 0
DWIDTH 16 0
BBX 16 16 0 -2
BITMAP 
0000
2F7C
1944
097C
0F44
4944
2978
0F40
197E
29AC
2F54
24A4
4944
080C
0000
0000
ENDCHAR
STARTCHAR U+7008
ENCODING 28680
SWIDTH 1000 0
DWIDTH 16 0
BBX 16 16 0 -2
BITMAP 
0000
239C
1194
069C
0088
2776
284C
03F0
13F8
23F8
23F8
2044
47F8
0040
0000
0000
ENDCHAR
STARTCHAR U+7010
ENCODING 28688
SWIDTH 1000 0
DWIDTH 16 0
BBX 16 16 0 -2
BITMAP 
0000
2118
17D4
0110
0114
26F8
02F4
1694
16F8
2298
2ED0
22B8
4F6A
0846
0000
0000
ENDCHAR
STARTCHAR U+7012
ENCODING 28690
SWIDTH 1000 0
DWIDTH 16 0
BBX 16 16 0 -2
BITMAP 
0000
3044
13F8
0250
0368
2CE4
1158
1654
10A0
27FC
26F8
2718
26F8
27F8
0000
0000
ENDCHAR
STARTCHAR U+7013
ENCODING 28691
SWIDTH 1000 0
DWIDTH 16 0
BBX 16 16 0 -2
BITMAP 
0000
2490
1AB0
0AB0
06BE
2764
29D4
0814
29D4
2894
28D8
2888
4BD8
0026
0000
0000
ENDCHAR
STARTCHAR U+7025
ENCODING 28709
SWIDTH 1000 0
DWIDTH 16 0
BBX 16 16 0 -2
BITMAP 
0000
27BC
1294
008C
47B4
2044
07B8
01F8
1110
10E0
27FC
25F4
4514
04EC
0000
0000
ENDCHAR
STARTCHAR U+702D
ENCODING 28717
SWIDTH 1000 0
DWIDTH 16 0
BBX 16 16 0 -2
BITMAP 
0000
0210
2330
0648
0B46
4D90
2D22
1F6A
1D6A
2F6A
246A
26AA
44A2
00AE
0000
0000
ENDCHAR
STARTCHAR U+702E
ENCODING 28718
SWIDTH 1000 0
DWIDTH 16 0
BBX 16 16 0 -2
BITMAP 
0000
200C
17F0
0FFC
0950
2160
261C
1210
1294
1738
23B8
26B4
4A56
0210
0000
0000
ENDCHAR
STARTCHAR U+7036
ENCODING 28726
SWIDTH 1000 0
DWIDTH 16 0
BBX 16 16 0 -2
BITMAP 
0000
2F40
1A44
0AB8
0AC0
2F78
2948
093C
1900
2EEE
2AAA
2AAA
4BAA
44EE
0000
0000
ENDCHAR
STARTCHAR U+703D
ENCODING 28733
SWIDTH 1000 0
DWIDTH 16 0
BBX 16 16 0 -2
BITMAP 
0000
2040
17FE
04A0
4170
21F8
0124
03F8
11F8
1714
21E0
2148
4370
02FC
0000
0000
ENDCHAR
STARTCHAR U+7047
ENCODING 28743
SWIDTH 1000 0
DWIDTH 16 0
BBX 16 16 0 -2
BITMAP 
0080
22A8
10A0
07FE
0010
27FC
2048
11F0
17BC
23BC
22A8
2398
4798
0006
0020
0000
ENDCHAR
STARTCHAR U+704D
ENCODING 28749
SWIDTH 1000 0
DWIDTH 16 0
BBX 16 16 0 -2
BITMAP 
0000
2FBC
18A4
0FBC
08A4
2F1C
28A4
0FFC
1954
2D64
2D74
29B4
4844
080C
0000
0000
ENDCHAR
STARTCHAR U+7053
ENCODING 28755
SWIDTH 1000 0
DWIDTH 16 0
BBX 16 16 0 -2
BITMAP 
0000
1148
2A94
7BB8
1B94
683A
3BA4
52A8
1100
0108
1D90
0560
1938
2304
0000
0000
ENDCHAR
STARTCHAR U+7059
ENCODING 28761
SWIDTH 1000 0
DWIDTH 16 0
BBX 16 16 0 -2
BITMAP 
0000
1048
0150
06AC
03F0
31F8
3400
17FC
2448
23F0
23FC
2044
23B8
2480
0000
0000
ENDCHAR
STARTCHAR U+705C
ENCODING 28764
SWIDTH 1000 0
DWIDTH 16 0
BBX 16 16 0 -2
BITMAP 
0080
2084
0778
07F8
4408
27F8
27F8
1544
1DDC
3DB4
3DDC
5DDC
54E6
4D26
0000
0000
ENDCHAR
STARTCHAR U+7067
ENCODING 28775
SWIDTH 1000 0
DWIDTH 16 0
BBX 16 16 0 -2
BITMAP 
0000
1620
37BC
1EA8
57B0
367C
19AC
1FEC
28AC
2FB4
2FA0
4520
4524
4EBC
0000
0000
ENDCHAR
STARTCHAR U+7072
ENCODING 28786
SWIDTH 1000 0
DWIDTH 16 0
BBX 16 16 0 -2
BITMAP 
0000
0808
0848
0948
4A48
2C48
2848
0848
1048
0848
1448
1208
2008
0018
0000
0000
ENDCHAR
STARTCHAR U+7073
ENCODING 28787
SWIDTH 1000 0
DWIDTH 16 0
BBX 16 16 0 -2
BITMAP 
0800
0800
0804
17FC
1104
2104
4134
0928
0348
0388
0290
0440
0830
300E
0000
0000
ENDCHAR
STARTCHAR U+7077
ENCODING 28791
SWIDTH 1000 0
DWIDTH 16 0
BBX 16 16 0 -2
BITMAP 
0000
0100
0910
0120
01C0
0260
0418
1C2C
2440
0444
3FF8
0440
0840
1000
0000
0000
ENDCHAR
STARTCHAR U+7079
ENCODING 28793
SWIDTH 1000 0
DWIDTH 16 0
BBX 16 16 0 -2
BITMAP 
1000
100C
1070
14C0
5440
3840
1040
13FE
1040
1040
1C40
2440
2044
407E
0000
0000
ENDCHAR
STARTCHAR U+707B
ENCODING 28795
SWIDTH 1000 0
DWIDTH 16 0
BBX 16 16 0 -2
BITMAP 
0100
0100
0100
1FF0
0100
0100
7FFE
0180
1100
0910
0AE0
0240
0420
181C
2000
0000
ENDCHAR
STARTCHAR U+7087
ENCODING 28807
SWIDTH 1000 0
DWIDTH 16 0
BBX 16 16 0 -2
BITMAP 
0000
0880
0880
0A84
4D78
2908
0810
1090
1090
18A0
1460
1260
2090
010E
0200
0000
ENDCHAR
STARTCHAR U+7088
ENCODING 28808
SWIDTH 1000 0
DWIDTH 16 0
BBX 16 16 0 -2
BITMAP 
1000
10F0
1110
1310
5510
3912
120C
1008
11F8
1110
1CA0
2440
20B0
410C
0200
0000
ENDCHAR
STARTCHAR U+708B
ENCODING 28811
SWIDTH 1000 0
DWIDTH 16 0
BBX 16 16 0 -2
BITMAP 
1000
1004
11F8
1220
5440
3840
10F0
1148
1244
1044
1840
2440
2040
4000
0000
0000
ENDCHAR
STARTCHAR U+708C
ENCODING 28812
SWIDTH 1000 0
DWIDTH 16 0
BBX 16 16 0 -2
BITMAP 
1000
1040
10A0
12A0
5510
3A0C
1094
1110
1110
1110
1D10
2510
2210
4010
0000
0000
ENDCHAR
STARTCHAR U+708D
ENCODING 28813
SWIDTH 1000 0
DWIDTH 16 0
BBX 16 16 0 -2
BITMAP 
1000
1004
11F8
1700
5500
59F8
1188
1188
1148
1150
1E30
2630
2248
4086
0100
0000
ENDCHAR
STARTCHAR U+708F
ENCODING 28815
SWIDTH 1000 0
DWIDTH 16 0
BBX 16 16 0 -2
BITMAP 
1000
1020
1020
1224
5524
38A8
10D0
1060
1060
1090
1C90
2508
2108
4206
0000
0000
ENDCHAR
STARTCHAR U+7090
ENCODING 28816
SWIDTH 1000 0
DWIDTH 16 0
BBX 16 16 0 -2
BITMAP 
1000
1020
102C
16F0
5820
3020
11FC
1020
1020
1026
1DF8
2420
2020
4020
0000
0000
ENDCHAR
STARTCHAR U+709E
ENCODING 28830
SWIDTH 1000 0
DWIDTH 16 0
BBX 16 16 0 -2
BITMAP 
0000
1040
1020
1420
1BFE
5040
5040
1060
1058
104C
2840
2440
2040
4040
0000
0000
ENDCHAR
STARTCHAR U+70A0
ENCODING 28832
SWIDTH 1000 0
DWIDTH 16 0
BBX 16 16 0 -2
BITMAP 
0000
1204
13FC
1624
5624
3BFC
1224
1224
1224
11FC
2820
2420
2020
4020
0000
0000
ENDCHAR
STARTCHAR U+70A2
ENCODING 28834
SWIDTH 1000 0
DWIDTH 16 0
BBX 16 16 0 -2
BITMAP 
1040
1048
1044
1444
59F8
3040
1148
1148
1148
1148
1948
2648
224E
4000
0000
0000
ENDCHAR
STARTCHAR U+70A3
ENCODING 28835
SWIDTH 1000 0
DWIDTH 16 0
BBX 16 16 0 -2
BITMAP 
1000
1004
11F8
1608
5408
39E8
3128
1128
1128
1128
19C8
2408
2008
4018
0000
0000
ENDCHAR
STARTCHAR U+70A5
ENCODING 28837
SWIDTH 1000 0
DWIDTH 16 0
BBX 16 16 0 -2
BITMAP 
0040
1050
1050
14AC
54A4
58A4
33D8
1290
1290
117E
2894
2494
2114
4010
0000
0000
ENDCHAR
STARTCHAR U+70A6
ENCODING 28838
SWIDTH 1000 0
DWIDTH 16 0
BBX 16 16 0 -2
BITMAP 
1000
1090
1088
1484
59F8
3088
1088
1088
10D0
1150
1930
2630
2248
4086
0000
0000
ENDCHAR
STARTCHAR U+70A7
ENCODING 28839
SWIDTH 1000 0
DWIDTH 16 0
BBX 16 16 0 -2
BITMAP 
1000
1100
1104
16F8
5A20
3120
112C
11F4
1728
1128
1928
2520
2102
41FC
0000
0000
ENDCHAR
STARTCHAR U+70A8
ENCODING 28840
SWIDTH 1000 0
DWIDTH 16 0
BBX 16 16 0 -2
BITMAP 
1000
1020
1020
15FE
5A04
3080
1080
1088
10B0
10C0
2880
2484
2084
40FC
0000
0000
ENDCHAR
STARTCHAR U+70AA
ENCODING 28842
SWIDTH 1000 0
DWIDTH 16 0
BBX 16 16 0 -2
BITMAP 
1000
1020
1124
1724
5524
3924
1124
10FC
1020
1024
1A24
2624
2224
41FC
0000
0000
ENDCHAR
STARTCHAR U+70B2
ENCODING 28850
SWIDTH 1000 0
DWIDTH 16 0
BBX 16 16 0 -2
BITMAP 
1000
1040
1040
1680
5508
3904
33FC
1000
11F8
1108
1908
2508
2108
41FC
0000
0000
ENDCHAR
STARTCHAR U+70B6
ENCODING 28854
SWIDTH 1000 0
DWIDTH 16 0
BBX 16 16 0 -2
BITMAP 
0040
1040
1040
1444
5878
3040
1040
1040
11B8
1108
2908
2508
4108
41FC
0000
0000
ENDCHAR
STARTCHAR U+70BF
ENCODING 28863
SWIDTH 1000 0
DWIDTH 16 0
BBX 16 16 0 -2
BITMAP 
1000
1020
1148
17B8
5548
3928
1128
110E
11F8
1108
1908
2608
2208
4018
0000
0000
ENDCHAR
STARTCHAR U+70C4
ENCODING 28868
SWIDTH 1000 0
DWIDTH 16 0
BBX 16 16 0 -2
BITMAP 
1000
1020
1024
15FE
5810
3088
1104
1208
1090
1090
2860
2420
20D8
410E
0200
0000
ENDCHAR
ENDFONT
